<ttFont>
    <TTGlyph name=".notdef" xMin="68" yMin="0" xMax="612" yMax="1365">
      <contour>
        <pt x="68" y="0" on="1"/>
        <pt x="68" y="1365" on="1"/>
        <pt x="612" y="1365" on="1"/>
        <pt x="612" y="0" on="1"/>
      </contour>
      <contour>
        <pt x="136" y="68" on="1"/>
        <pt x="544" y="68" on="1"/>
        <pt x="544" y="1297" on="1"/>
        <pt x="136" y="1297" on="1"/>
      </contour>
    </TTGlyph>
    <TTGlyph name="A" xMin="-26" yMin="-8" xMax="1363" yMax="1324">
      <contour>
        <pt x="188" y="268" on="1"/>
        <pt x="614" y="1248" on="1"/>
        <pt x="624" y="1270" on="0"/>
        <pt x="673" y="1324" on="0"/>
        <pt x="687" y="1324" on="1"/>
        <pt x="722" y="1324" on="0"/>
        <pt x="730" y="1310" on="1"/>
        <pt x="1140" y="296" on="1"/>
        <pt x="1154" y="263" on="0"/>
        <pt x="1188" y="172" on="0"/>
        <pt x="1208" y="124" on="0"/>
        <pt x="1256" y="85" on="0"/>
        <pt x="1283" y="78" on="1"/>
        <pt x="1329" y="66" on="0"/>
        <pt x="1354" y="66" on="1"/>
        <pt x="1361" y="53" on="0"/>
        <pt x="1364" y="-2" on="0"/>
        <pt x="1358" y="-8" on="1"/>
        <pt x="1340" y="-7" on="0"/>
        <pt x="1142" y="8" on="0"/>
        <pt x="1049" y="8" on="0"/>
        <pt x="937" y="2" on="0"/>
        <pt x="807" y="-7" on="0"/>
        <pt x="788" y="-8" on="1"/>
        <pt x="780" y="0" on="0"/>
        <pt x="780" y="66" on="0"/>
        <pt x="788" y="66" on="1"/>
        <pt x="864" y="66" on="0"/>
        <pt x="906" y="102" on="1"/>
        <pt x="924" y="117" on="0"/>
        <pt x="924" y="130" on="1"/>
        <pt x="924" y="152" on="0"/>
        <pt x="834" y="368" on="1"/>
        <pt x="804" y="440" on="1"/>
        <pt x="796" y="448" on="0"/>
        <pt x="752" y="450" on="0"/>
        <pt x="460" y="450" on="0"/>
        <pt x="390" y="448" on="1"/>
        <pt x="381" y="448" on="0"/>
        <pt x="376" y="438" on="1"/>
        <pt x="260" y="178" on="0"/>
        <pt x="260" y="134" on="1"/>
        <pt x="260" y="89" on="0"/>
        <pt x="382" y="70" on="1"/>
        <pt x="405" y="66" on="0"/>
        <pt x="414" y="66" on="1"/>
        <pt x="422" y="54" on="0"/>
        <pt x="421" y="-1" on="0"/>
        <pt x="416" y="-8" on="1"/>
        <pt x="276" y="8" on="0"/>
        <pt x="122" y="8" on="0"/>
        <pt x="-18" y="-8" on="1"/>
        <pt x="-24" y="-2" on="0"/>
        <pt x="-28" y="47" on="0"/>
        <pt x="-22" y="64" on="1"/>
        <pt x="0" y="64" on="0"/>
        <pt x="104" y="106" on="0"/>
        <pt x="118" y="128" on="1"/>
        <pt x="152" y="184" on="0"/>
      </contour>
      <contour>
        <pt x="590" y="952" on="1"/>
        <pt x="420" y="560" on="1"/>
        <pt x="420" y="552" on="0"/>
        <pt x="424" y="552" on="1"/>
        <pt x="484" y="546" on="0"/>
        <pt x="688" y="546" on="0"/>
        <pt x="752" y="550" on="0"/>
        <pt x="755" y="555" on="0"/>
        <pt x="756" y="560" on="1"/>
      </contour>
    </TTGlyph>
    <TTGlyph name="AE" xMin="-46" yMin="-8" xMax="1758" yMax="1328">
      <contour>
        <pt x="818" y="550" on="1"/>
        <pt x="818" y="1040" on="1"/>
        <pt x="516" y="560" on="1"/>
        <pt x="514" y="552" on="0"/>
        <pt x="518" y="552" on="1"/>
        <pt x="578" y="546" on="0"/>
        <pt x="764" y="546" on="0"/>
      </contour>
      <contour>
        <pt x="674" y="1320" on="1"/>
        <pt x="764" y="1314" on="0"/>
        <pt x="1092" y="1314" on="0"/>
        <pt x="1610" y="1328" on="1"/>
        <pt x="1619" y="1264" on="0"/>
        <pt x="1663" y="1058" on="0"/>
        <pt x="1668" y="1032" on="1"/>
        <pt x="1658" y="1022" on="0"/>
        <pt x="1596" y="1022" on="0"/>
        <pt x="1590" y="1038" on="1"/>
        <pt x="1532" y="1191" on="0"/>
        <pt x="1452" y="1225" on="1"/>
        <pt x="1418" y="1240" on="0"/>
        <pt x="1374" y="1240" on="1"/>
        <pt x="1208" y="1240" on="1"/>
        <pt x="1119" y="1240" on="0"/>
        <pt x="1098" y="1192" on="0"/>
        <pt x="1098" y="1094" on="1"/>
        <pt x="1098" y="736" on="1"/>
        <pt x="1098" y="727" on="0"/>
        <pt x="1150" y="714" on="0"/>
        <pt x="1184" y="714" on="1"/>
        <pt x="1290" y="714" on="1"/>
        <pt x="1378" y="714" on="0"/>
        <pt x="1442" y="766" on="0"/>
        <pt x="1466" y="854" on="1"/>
        <pt x="1469" y="870" on="0"/>
        <pt x="1518" y="870" on="0"/>
        <pt x="1528" y="860" on="1"/>
        <pt x="1528" y="476" on="1"/>
        <pt x="1520" y="468" on="0"/>
        <pt x="1467" y="468" on="0"/>
        <pt x="1464" y="484" on="1"/>
        <pt x="1438" y="586" on="0"/>
        <pt x="1360" y="620" on="0"/>
        <pt x="1098" y="620" on="0"/>
        <pt x="1098" y="592" on="1"/>
        <pt x="1098" y="282" on="1"/>
        <pt x="1098" y="164" on="0"/>
        <pt x="1114" y="124" on="1"/>
        <pt x="1122" y="105" on="0"/>
        <pt x="1200" y="84" on="0"/>
        <pt x="1244" y="84" on="1"/>
        <pt x="1376" y="84" on="1"/>
        <pt x="1496" y="84" on="0"/>
        <pt x="1620" y="208" on="0"/>
        <pt x="1670" y="340" on="1"/>
        <pt x="1673" y="352" on="0"/>
        <pt x="1694" y="352" on="1"/>
        <pt x="1746" y="352" on="0"/>
        <pt x="1758" y="340" on="1"/>
        <pt x="1754" y="328" on="0"/>
        <pt x="1715" y="220" on="0"/>
        <pt x="1698" y="170" on="0"/>
        <pt x="1684" y="127" on="1"/>
        <pt x="1658" y="48" on="0"/>
        <pt x="1650" y="-4" on="1"/>
        <pt x="730" y="-4" on="0"/>
        <pt x="674" y="-6" on="1"/>
        <pt x="668" y="3" on="0"/>
        <pt x="667" y="57" on="0"/>
        <pt x="674" y="68" on="1"/>
        <pt x="792" y="77" on="0"/>
        <pt x="802" y="102" on="1"/>
        <pt x="818" y="142" on="0"/>
        <pt x="818" y="290" on="1"/>
        <pt x="818" y="450" on="1"/>
        <pt x="660" y="450" on="1"/>
        <pt x="534" y="450" on="0"/>
        <pt x="464" y="448" on="1"/>
        <pt x="453" y="448" on="0"/>
        <pt x="448" y="438" on="1"/>
        <pt x="370" y="320" on="0"/>
        <pt x="274" y="156" on="0"/>
        <pt x="267" y="114" on="0"/>
        <pt x="300" y="86" on="0"/>
        <pt x="325" y="80" on="1"/>
        <pt x="377" y="66" on="0"/>
        <pt x="398" y="66" on="1"/>
        <pt x="405" y="56" on="0"/>
        <pt x="406" y="-2" on="0"/>
        <pt x="400" y="-8" on="1"/>
        <pt x="264" y="8" on="0"/>
        <pt x="104" y="8" on="0"/>
        <pt x="-40" y="-8" on="1"/>
        <pt x="-45" y="-1" on="0"/>
        <pt x="-46" y="46" on="0"/>
        <pt x="-38" y="64" on="1"/>
        <pt x="-15" y="64" on="0"/>
        <pt x="100" y="106" on="0"/>
        <pt x="118" y="128" on="1"/>
        <pt x="168" y="189" on="0"/>
        <pt x="216" y="268" on="1"/>
        <pt x="804" y="1208" on="1"/>
        <pt x="804" y="1225" on="0"/>
        <pt x="754" y="1238" on="1"/>
        <pt x="737" y="1242" on="0"/>
        <pt x="700" y="1244" on="0"/>
        <pt x="676" y="1246" on="0"/>
        <pt x="674" y="1246" on="1"/>
        <pt x="667" y="1257" on="0"/>
        <pt x="668" y="1311" on="0"/>
      </contour>
    </TTGlyph>
    <TTGlyph name="Aacute" xMin="-26" yMin="-8" xMax="1363" yMax="1738">
      <component glyphName="acutecomb.cap" x="1292" y="0" flags="0x1004"/>
      <component glyphName="A" x="0" y="0" flags="0x1004"/>
    </TTGlyph>
    <TTGlyph name="Abreve" xMin="-26" yMin="-8" xMax="1363" yMax="1654">
      <component glyphName="uni0306.cap" x="1204" y="0" flags="0x1004"/>
      <component glyphName="A" x="0" y="0" flags="0x1004"/>
    </TTGlyph>
    <TTGlyph name="Acircumflex" xMin="-26" yMin="-8" xMax="1363" yMax="1740">
      <component glyphName="uni0302.cap" x="1204" y="4" flags="0x1004"/>
      <component glyphName="A" x="0" y="0" flags="0x1004"/>
    </TTGlyph>
    <TTGlyph name="Adieresis" xMin="-26" yMin="-8" xMax="1363" yMax="1728">
      <component glyphName="uni0308.cap" x="298" y="24" flags="0x1004"/>
      <component glyphName="A" x="0" y="0" flags="0x1004"/>
    </TTGlyph>
    <TTGlyph name="Agrave" xMin="-26" yMin="-8" xMax="1363" yMax="1738">
      <component glyphName="gravecomb.cap" x="1082" y="0" flags="0x1004"/>
      <component glyphName="A" x="0" y="0" flags="0x1004"/>
    </TTGlyph>
    <TTGlyph name="Amacron" xMin="-26" yMin="-8" xMax="1363" yMax="1574">
      <component glyphName="uni0304.cap" x="1198" y="22" flags="0x1004"/>
      <component glyphName="A" x="0" y="0" flags="0x1004"/>
    </TTGlyph>
    <TTGlyph name="Aogonek" xMin="-26" yMin="-436" xMax="1355" yMax="1324">
      <contour>
        <pt x="1350" y="-8" on="1"/>
        <pt x="1186" y="4" on="1"/>
        <pt x="1031" y="-88" on="0"/>
        <pt x="999" y="-142" on="1"/>
        <pt x="982" y="-171" on="0"/>
        <pt x="982" y="-239" on="0"/>
        <pt x="1029" y="-296" on="0"/>
        <pt x="1132" y="-296" on="0"/>
        <pt x="1230" y="-218" on="1"/>
        <pt x="1242" y="-218" on="0"/>
        <pt x="1242" y="-233" on="1"/>
        <pt x="1242" y="-269" on="0"/>
        <pt x="1214" y="-308" on="0"/>
        <pt x="1170" y="-351" on="0"/>
        <pt x="1137" y="-376" on="1"/>
        <pt x="1060" y="-436" on="0"/>
        <pt x="926" y="-436" on="0"/>
        <pt x="834" y="-352" on="0"/>
        <pt x="834" y="-199" on="0"/>
        <pt x="1006" y="-20" on="0"/>
        <pt x="1100" y="8" on="1"/>
        <pt x="1090" y="8" on="1"/>
        <pt x="1024" y="8" on="0"/>
        <pt x="807" y="-7" on="0"/>
        <pt x="788" y="-8" on="1"/>
        <pt x="780" y="0" on="0"/>
        <pt x="780" y="66" on="0"/>
        <pt x="788" y="66" on="1"/>
        <pt x="864" y="66" on="0"/>
        <pt x="906" y="102" on="1"/>
        <pt x="924" y="117" on="0"/>
        <pt x="924" y="130" on="1"/>
        <pt x="924" y="152" on="0"/>
        <pt x="834" y="368" on="1"/>
        <pt x="804" y="440" on="1"/>
        <pt x="796" y="448" on="0"/>
        <pt x="752" y="450" on="0"/>
        <pt x="460" y="450" on="0"/>
        <pt x="390" y="448" on="1"/>
        <pt x="381" y="448" on="0"/>
        <pt x="376" y="438" on="1"/>
        <pt x="260" y="178" on="0"/>
        <pt x="260" y="138" on="1"/>
        <pt x="260" y="105" on="0"/>
        <pt x="383" y="66" on="0"/>
        <pt x="414" y="66" on="1"/>
        <pt x="422" y="54" on="0"/>
        <pt x="421" y="-1" on="0"/>
        <pt x="416" y="-8" on="1"/>
        <pt x="276" y="8" on="0"/>
        <pt x="122" y="8" on="0"/>
        <pt x="-18" y="-8" on="1"/>
        <pt x="-24" y="-2" on="0"/>
        <pt x="-28" y="47" on="0"/>
        <pt x="-22" y="64" on="1"/>
        <pt x="0" y="64" on="0"/>
        <pt x="104" y="106" on="0"/>
        <pt x="118" y="128" on="1"/>
        <pt x="152" y="184" on="0"/>
        <pt x="188" y="268" on="1"/>
        <pt x="614" y="1248" on="1"/>
        <pt x="624" y="1270" on="0"/>
        <pt x="673" y="1324" on="0"/>
        <pt x="713" y="1324" on="0"/>
        <pt x="722" y="1310" on="1"/>
        <pt x="1132" y="296" on="1"/>
        <pt x="1146" y="263" on="0"/>
        <pt x="1180" y="172" on="0"/>
        <pt x="1200" y="124" on="0"/>
        <pt x="1248" y="85" on="0"/>
        <pt x="1275" y="78" on="1"/>
        <pt x="1321" y="66" on="0"/>
        <pt x="1346" y="66" on="1"/>
        <pt x="1353" y="53" on="0"/>
        <pt x="1356" y="-2" on="0"/>
      </contour>
      <contour>
        <pt x="424" y="552" on="1"/>
        <pt x="484" y="546" on="0"/>
        <pt x="688" y="546" on="0"/>
        <pt x="752" y="550" on="0"/>
        <pt x="755" y="555" on="0"/>
        <pt x="756" y="560" on="1"/>
        <pt x="590" y="952" on="1"/>
        <pt x="420" y="560" on="1"/>
        <pt x="420" y="552" on="0"/>
      </contour>
    </TTGlyph>
    <TTGlyph name="Aring" xMin="-26" yMin="-8" xMax="1363" yMax="1714">
      <component glyphName="uni030A.cap" x="1208" y="-136" flags="0x1004"/>
      <component glyphName="A" x="0" y="0" flags="0x1004"/>
    </TTGlyph>
    <TTGlyph name="Atilde" xMin="-26" yMin="-8" xMax="1363" yMax="1708">
      <component glyphName="tildecomb.cap" x="1192" y="10" flags="0x1004"/>
      <component glyphName="A" x="0" y="0" flags="0x1004"/>
    </TTGlyph>
    <TTGlyph name="B" xMin="70" yMin="-6" xMax="1169" yMax="1320">
      <contour>
        <pt x="501" y="664" on="1"/>
        <pt x="501" y="218" on="1"/>
        <pt x="501" y="126" on="0"/>
        <pt x="534" y="78" on="0"/>
        <pt x="643" y="78" on="1"/>
        <pt x="720" y="78" on="0"/>
        <pt x="783" y="137" on="1"/>
        <pt x="855" y="204" on="0"/>
        <pt x="855" y="352" on="1"/>
        <pt x="855" y="473" on="0"/>
        <pt x="802" y="564" on="1"/>
        <pt x="742" y="664" on="0"/>
        <pt x="605" y="664" on="1"/>
      </contour>
      <contour>
        <pt x="501" y="742" on="1"/>
        <pt x="605" y="742" on="1"/>
        <pt x="682" y="742" on="0"/>
        <pt x="777" y="864" on="0"/>
        <pt x="777" y="974" on="1"/>
        <pt x="777" y="1240" on="0"/>
        <pt x="611" y="1240" on="1"/>
        <pt x="522" y="1240" on="0"/>
        <pt x="501" y="1192" on="0"/>
        <pt x="501" y="1094" on="1"/>
      </contour>
      <contour>
        <pt x="363" y="1314" on="1"/>
        <pt x="669" y="1320" on="1"/>
        <pt x="821" y="1320" on="0"/>
        <pt x="940" y="1250" on="1"/>
        <pt x="1000" y="1214" on="0"/>
        <pt x="1073" y="1087" on="0"/>
        <pt x="1073" y="948" on="0"/>
        <pt x="1022" y="848" on="0"/>
        <pt x="984" y="814" on="1"/>
        <pt x="913" y="752" on="0"/>
        <pt x="857" y="732" on="1"/>
        <pt x="841" y="725" on="0"/>
        <pt x="847" y="720" on="1"/>
        <pt x="919" y="711" on="0"/>
        <pt x="1048" y="627" on="0"/>
        <pt x="1084" y="589" on="1"/>
        <pt x="1169" y="501" on="0"/>
        <pt x="1169" y="288" on="0"/>
        <pt x="1112" y="202" on="1"/>
        <pt x="979" y="2" on="0"/>
        <pt x="696" y="-6" on="1"/>
        <pt x="642" y="-7" on="0"/>
        <pt x="543" y="-6" on="1"/>
        <pt x="77" y="-6" on="1"/>
        <pt x="71" y="3" on="0"/>
        <pt x="70" y="57" on="0"/>
        <pt x="77" y="68" on="1"/>
        <pt x="195" y="77" on="0"/>
        <pt x="205" y="102" on="1"/>
        <pt x="221" y="142" on="0"/>
        <pt x="221" y="290" on="1"/>
        <pt x="221" y="1026" on="1"/>
        <pt x="221" y="1174" on="0"/>
        <pt x="205" y="1214" on="1"/>
        <pt x="196" y="1237" on="0"/>
        <pt x="77" y="1246" on="1"/>
        <pt x="70" y="1257" on="0"/>
        <pt x="71" y="1311" on="0"/>
        <pt x="77" y="1320" on="1"/>
        <pt x="167" y="1314" on="0"/>
      </contour>
    </TTGlyph>
    <TTGlyph name="C" xMin="80" yMin="-14" xMax="1288" yMax="1334">
      <contour>
        <pt x="1188" y="1296" on="1"/>
        <pt x="1256" y="994" on="1"/>
        <pt x="1256" y="985" on="0"/>
        <pt x="1222" y="964" on="0"/>
        <pt x="1184" y="964" on="0"/>
        <pt x="1176" y="972" on="1"/>
        <pt x="1160" y="1038" on="0"/>
        <pt x="1082" y="1143" on="0"/>
        <pt x="1042" y="1174" on="1"/>
        <pt x="944" y="1248" on="0"/>
        <pt x="790" y="1248" on="1"/>
        <pt x="688" y="1248" on="0"/>
        <pt x="533" y="1158" on="0"/>
        <pt x="488" y="1080" on="1"/>
        <pt x="400" y="925" on="0"/>
        <pt x="400" y="704" on="1"/>
        <pt x="400" y="457" on="0"/>
        <pt x="501" y="273" on="1"/>
        <pt x="551" y="182" on="0"/>
        <pt x="721" y="74" on="0"/>
        <pt x="830" y="74" on="1"/>
        <pt x="985" y="74" on="0"/>
        <pt x="1078" y="160" on="1"/>
        <pt x="1116" y="194" on="0"/>
        <pt x="1150" y="254" on="1"/>
        <pt x="1204" y="348" on="0"/>
        <pt x="1218" y="408" on="1"/>
        <pt x="1261" y="408" on="0"/>
        <pt x="1288" y="384" on="1"/>
        <pt x="1288" y="356" on="0"/>
        <pt x="1225" y="88" on="0"/>
        <pt x="1206" y="80" on="1"/>
        <pt x="1119" y="48" on="0"/>
        <pt x="1072" y="33" on="1"/>
        <pt x="927" y="-14" on="0"/>
        <pt x="582" y="-14" on="0"/>
        <pt x="267" y="155" on="0"/>
        <pt x="80" y="459" on="0"/>
        <pt x="80" y="786" on="0"/>
        <pt x="190" y="1042" on="0"/>
        <pt x="376" y="1226" on="0"/>
        <pt x="632" y="1334" on="0"/>
        <pt x="772" y="1334" on="1"/>
        <pt x="1001" y="1334" on="0"/>
      </contour>
    </TTGlyph>
    <TTGlyph name="Cacute" xMin="80" yMin="-14" xMax="1288" yMax="1738">
      <component glyphName="acutecomb.cap" x="1382" y="0" flags="0x1004"/>
      <component glyphName="C" x="0" y="0" flags="0x1004"/>
    </TTGlyph>
    <TTGlyph name="Ccaron" xMin="80" yMin="-14" xMax="1288" yMax="1738">
      <component glyphName="uni030C.cap" x="422" y="52" flags="0x1004"/>
      <component glyphName="C" x="0" y="0" flags="0x1004"/>
    </TTGlyph>
    <TTGlyph name="Ccedilla" xMin="82" yMin="-332" xMax="1290" yMax="1334">
      <component glyphName="uni0327.cap" x="294" y="2" flags="0x1004"/>
      <component glyphName="C" x="2" y="0" flags="0x1004"/>
    </TTGlyph>
    <TTGlyph name="Ccircumflex" xMin="80" yMin="-14" xMax="1288" yMax="1740">
      <component glyphName="uni0302.cap" x="1298" y="4" flags="0x1004"/>
      <component glyphName="C" x="0" y="0" flags="0x1004"/>
    </TTGlyph>
    <TTGlyph name="Cdotaccent" xMin="80" yMin="-14" xMax="1288" yMax="1716">
      <component glyphName="uni0307" x="1310" y="450" flags="0x1004"/>
      <component glyphName="C" x="0" y="0" flags="0x1004"/>
    </TTGlyph>
    <TTGlyph name="D" xMin="70" yMin="-6" xMax="1437" yMax="1320">
      <contour>
        <pt x="501" y="1094" on="1"/>
        <pt x="501" y="282" on="1"/>
        <pt x="501" y="164" on="0"/>
        <pt x="517" y="124" on="1"/>
        <pt x="526" y="104" on="0"/>
        <pt x="602" y="78" on="0"/>
        <pt x="643" y="78" on="1"/>
        <pt x="887" y="78" on="0"/>
        <pt x="1119" y="357" on="0"/>
        <pt x="1119" y="935" on="0"/>
        <pt x="841" y="1240" on="0"/>
        <pt x="611" y="1240" on="1"/>
        <pt x="522" y="1240" on="0"/>
        <pt x="501" y="1192" on="0"/>
      </contour>
      <contour>
        <pt x="77" y="1320" on="1"/>
        <pt x="167" y="1314" on="0"/>
        <pt x="435" y="1314" on="0"/>
        <pt x="669" y="1320" on="1"/>
        <pt x="900" y="1320" on="0"/>
        <pt x="1245" y="1168" on="0"/>
        <pt x="1437" y="874" on="0"/>
        <pt x="1437" y="672" on="1"/>
        <pt x="1437" y="274" on="0"/>
        <pt x="1116" y="98" on="1"/>
        <pt x="927" y="-6" on="0"/>
        <pt x="655" y="-6" on="1"/>
        <pt x="77" y="-6" on="1"/>
        <pt x="71" y="3" on="0"/>
        <pt x="70" y="57" on="0"/>
        <pt x="77" y="68" on="1"/>
        <pt x="195" y="77" on="0"/>
        <pt x="205" y="102" on="1"/>
        <pt x="221" y="142" on="0"/>
        <pt x="221" y="290" on="1"/>
        <pt x="221" y="1026" on="1"/>
        <pt x="221" y="1174" on="0"/>
        <pt x="205" y="1214" on="1"/>
        <pt x="196" y="1237" on="0"/>
        <pt x="77" y="1246" on="1"/>
        <pt x="70" y="1257" on="0"/>
        <pt x="71" y="1311" on="0"/>
      </contour>
    </TTGlyph>
    <TTGlyph name="Dcaron" xMin="70" yMin="-6" xMax="1437" yMax="1738">
      <component glyphName="uni030C.cap" x="285" y="52" flags="0x1004"/>
      <component glyphName="D" x="0" y="0" flags="0x1004"/>
    </TTGlyph>
    <TTGlyph name="Dcroat" xMin="58" yMin="-6" xMax="1445" yMax="1320">
      <component glyphName="Eth.ref1" x="0" y="0" flags="0x1004"/>
      <component glyphName="D" x="8" y="0" flags="0x1004"/>
    </TTGlyph>
    <TTGlyph name="Dot.a" xMin="-145" yMin="-7" xMax="145" yMax="278">
      <contour>
        <pt x="-46" y="268" on="1"/>
        <pt x="-34" y="285" on="0"/>
        <pt x="-11" y="278" on="1"/>
        <pt x="73" y="248" on="0"/>
        <pt x="139" y="190" on="1"/>
        <pt x="156" y="173" on="0"/>
        <pt x="145" y="153" on="1"/>
        <pt x="47" y="-2" on="1"/>
        <pt x="31" y="-23" on="0"/>
        <pt x="-11" y="10" on="0"/>
        <pt x="-138" y="86" on="1"/>
        <pt x="-159" y="99" on="0"/>
        <pt x="-145" y="120" on="1"/>
      </contour>
    </TTGlyph>
    <TTGlyph name="Dot.b" xMin="-145" yMin="-7" xMax="145" yMax="278">
      <component glyphName="Dot.a" x="0" y="0" flags="0x1004"/>
    </TTGlyph>
    <TTGlyph name="Dot.b.l" xMin="-145" yMin="-7" xMax="145" yMax="278">
      <component glyphName="Dot.a" x="0" y="0" flags="0x1004"/>
    </TTGlyph>
    <TTGlyph name="E" xMin="70" yMin="-6" xMax="1161" yMax="1328">
      <contour>
        <pt x="77" y="1320" on="1"/>
        <pt x="167" y="1314" on="0"/>
        <pt x="495" y="1314" on="0"/>
        <pt x="1013" y="1328" on="1"/>
        <pt x="1022" y="1264" on="0"/>
        <pt x="1066" y="1058" on="0"/>
        <pt x="1071" y="1032" on="1"/>
        <pt x="1061" y="1022" on="0"/>
        <pt x="999" y="1022" on="0"/>
        <pt x="993" y="1038" on="1"/>
        <pt x="935" y="1191" on="0"/>
        <pt x="856" y="1225" on="1"/>
        <pt x="821" y="1240" on="0"/>
        <pt x="777" y="1240" on="1"/>
        <pt x="611" y="1240" on="1"/>
        <pt x="522" y="1240" on="0"/>
        <pt x="501" y="1192" on="0"/>
        <pt x="501" y="1094" on="1"/>
        <pt x="501" y="736" on="1"/>
        <pt x="501" y="727" on="0"/>
        <pt x="554" y="714" on="0"/>
        <pt x="587" y="714" on="1"/>
        <pt x="693" y="714" on="1"/>
        <pt x="781" y="714" on="0"/>
        <pt x="845" y="766" on="0"/>
        <pt x="869" y="854" on="1"/>
        <pt x="872" y="870" on="0"/>
        <pt x="921" y="870" on="0"/>
        <pt x="931" y="860" on="1"/>
        <pt x="931" y="476" on="1"/>
        <pt x="923" y="468" on="0"/>
        <pt x="870" y="468" on="0"/>
        <pt x="867" y="484" on="1"/>
        <pt x="841" y="586" on="0"/>
        <pt x="763" y="620" on="0"/>
        <pt x="501" y="620" on="0"/>
        <pt x="501" y="592" on="1"/>
        <pt x="501" y="282" on="1"/>
        <pt x="501" y="164" on="0"/>
        <pt x="517" y="124" on="1"/>
        <pt x="525" y="105" on="0"/>
        <pt x="603" y="84" on="0"/>
        <pt x="647" y="84" on="1"/>
        <pt x="779" y="84" on="1"/>
        <pt x="899" y="84" on="0"/>
        <pt x="1023" y="208" on="0"/>
        <pt x="1073" y="340" on="1"/>
        <pt x="1076" y="352" on="0"/>
        <pt x="1096" y="352" on="1"/>
        <pt x="1149" y="352" on="0"/>
        <pt x="1161" y="340" on="1"/>
        <pt x="1157" y="328" on="0"/>
        <pt x="1118" y="220" on="0"/>
        <pt x="1101" y="170" on="0"/>
        <pt x="1087" y="127" on="1"/>
        <pt x="1061" y="48" on="0"/>
        <pt x="1053" y="-4" on="1"/>
        <pt x="155" y="-4" on="0"/>
        <pt x="77" y="-6" on="1"/>
        <pt x="71" y="3" on="0"/>
        <pt x="70" y="57" on="0"/>
        <pt x="77" y="68" on="1"/>
        <pt x="195" y="77" on="0"/>
        <pt x="205" y="102" on="1"/>
        <pt x="221" y="142" on="0"/>
        <pt x="221" y="290" on="1"/>
        <pt x="221" y="1026" on="1"/>
        <pt x="221" y="1174" on="0"/>
        <pt x="205" y="1214" on="1"/>
        <pt x="196" y="1237" on="0"/>
        <pt x="77" y="1246" on="1"/>
        <pt x="70" y="1257" on="0"/>
        <pt x="71" y="1311" on="0"/>
      </contour>
    </TTGlyph>
    <TTGlyph name="Eacute" xMin="70" yMin="-6" xMax="1161" yMax="1738">
      <component glyphName="acutecomb.cap" x="1173" y="0" flags="0x1004"/>
      <component glyphName="E" x="0" y="0" flags="0x1004"/>
    </TTGlyph>
    <TTGlyph name="Ebreve" xMin="70" yMin="-6" xMax="1161" yMax="1654">
      <component glyphName="uni0306.cap" x="1101" y="0" flags="0x1004"/>
      <component glyphName="E" x="0" y="0" flags="0x1004"/>
    </TTGlyph>
    <TTGlyph name="Ecaron" xMin="70" yMin="-6" xMax="1161" yMax="1738">
      <component glyphName="uni030C.cap" x="229" y="52" flags="0x1004"/>
      <component glyphName="E" x="0" y="0" flags="0x1004"/>
    </TTGlyph>
    <TTGlyph name="Ecircumflex" xMin="70" yMin="-6" xMax="1161" yMax="1740">
      <component glyphName="uni0302.cap" x="1105" y="4" flags="0x1004"/>
      <component glyphName="E" x="0" y="0" flags="0x1004"/>
    </TTGlyph>
    <TTGlyph name="Edieresis" xMin="70" yMin="-6" xMax="1161" yMax="1728">
      <component glyphName="uni0308.cap" x="199" y="24" flags="0x1004"/>
      <component glyphName="E" x="0" y="0" flags="0x1004"/>
    </TTGlyph>
    <TTGlyph name="Edotaccent" xMin="70" yMin="-6" xMax="1161" yMax="1716">
      <component glyphName="uni0307" x="1109" y="450" flags="0x1004"/>
      <component glyphName="E" x="0" y="0" flags="0x1004"/>
    </TTGlyph>
    <TTGlyph name="Egrave" xMin="70" yMin="-6" xMax="1161" yMax="1738">
      <component glyphName="gravecomb.cap" x="1063" y="0" flags="0x1004"/>
      <component glyphName="E" x="0" y="0" flags="0x1004"/>
    </TTGlyph>
    <TTGlyph name="Emacron" xMin="70" yMin="-6" xMax="1161" yMax="1574">
      <component glyphName="uni0304.cap" x="1091" y="22" flags="0x1004"/>
      <component glyphName="E" x="0" y="0" flags="0x1004"/>
    </TTGlyph>
    <TTGlyph name="Eng" xMin="57" yMin="-436" xMax="1481" yMax="1340">
      <contour>
        <pt x="981" y="1266" on="1"/>
        <pt x="974" y="1266" on="0"/>
        <pt x="976" y="1332" on="0"/>
        <pt x="981" y="1340" on="1"/>
        <pt x="1017" y="1338" on="0"/>
        <pt x="1174" y="1324" on="0"/>
        <pt x="1276" y="1324" on="0"/>
        <pt x="1454" y="1339" on="0"/>
        <pt x="1477" y="1340" on="1"/>
        <pt x="1481" y="1328" on="0"/>
        <pt x="1481" y="1277" on="0"/>
        <pt x="1473" y="1264" on="1"/>
        <pt x="1442" y="1264" on="0"/>
        <pt x="1306" y="1236" on="0"/>
        <pt x="1287" y="1184" on="0"/>
        <pt x="1287" y="1050" on="1"/>
        <pt x="1287" y="278" on="1"/>
        <pt x="1287" y="-60" on="0"/>
        <pt x="967" y="-436" on="0"/>
        <pt x="691" y="-436" on="1"/>
        <pt x="664" y="-436" on="0"/>
        <pt x="592" y="-412" on="0"/>
        <pt x="576" y="-398" on="0"/>
        <pt x="566" y="-384" on="0"/>
        <pt x="563" y="-377" on="0"/>
        <pt x="555" y="-363" on="0"/>
        <pt x="551" y="-353" on="0"/>
        <pt x="549" y="-346" on="1"/>
        <pt x="545" y="-330" on="0"/>
        <pt x="545" y="-314" on="1"/>
        <pt x="545" y="-262" on="0"/>
        <pt x="618" y="-180" on="0"/>
        <pt x="695" y="-180" on="0"/>
        <pt x="758" y="-222" on="0"/>
        <pt x="780" y="-247" on="1"/>
        <pt x="837" y="-314" on="0"/>
        <pt x="873" y="-314" on="1"/>
        <pt x="970" y="-314" on="0"/>
        <pt x="1103" y="-65" on="0"/>
        <pt x="1103" y="136" on="1"/>
        <pt x="369" y="1048" on="1"/>
        <pt x="369" y="282" on="1"/>
        <pt x="369" y="148" on="0"/>
        <pt x="388" y="96" on="0"/>
        <pt x="524" y="68" on="0"/>
        <pt x="555" y="68" on="1"/>
        <pt x="563" y="55" on="0"/>
        <pt x="563" y="4" on="0"/>
        <pt x="559" y="-8" on="1"/>
        <pt x="536" y="-7" on="0"/>
        <pt x="358" y="8" on="0"/>
        <pt x="256" y="8" on="0"/>
        <pt x="99" y="-6" on="0"/>
        <pt x="63" y="-8" on="1"/>
        <pt x="53" y="8" on="0"/>
        <pt x="61" y="66" on="0"/>
        <pt x="63" y="66" on="1"/>
        <pt x="96" y="66" on="0"/>
        <pt x="223" y="95" on="0"/>
        <pt x="247" y="148" on="0"/>
        <pt x="247" y="288" on="1"/>
        <pt x="247" y="1074" on="1"/>
        <pt x="247" y="1172" on="0"/>
        <pt x="217" y="1216" on="1"/>
        <pt x="208" y="1230" on="0"/>
        <pt x="106" y="1250" on="0"/>
        <pt x="79" y="1250" on="1"/>
        <pt x="71" y="1250" on="0"/>
        <pt x="68" y="1316" on="0"/>
        <pt x="75" y="1324" on="1"/>
        <pt x="93" y="1323" on="0"/>
        <pt x="136" y="1319" on="1"/>
        <pt x="233" y="1310" on="0"/>
        <pt x="407" y="1310" on="0"/>
        <pt x="519" y="1324" on="1"/>
        <pt x="573" y="1212" on="0"/>
        <pt x="914" y="794" on="1"/>
        <pt x="1081" y="589" on="0"/>
        <pt x="1161" y="486" on="1"/>
        <pt x="1165" y="500" on="0"/>
        <pt x="1165" y="568" on="1"/>
        <pt x="1165" y="1044" on="1"/>
        <pt x="1165" y="1184" on="0"/>
        <pt x="1141" y="1237" on="0"/>
        <pt x="1014" y="1266" on="0"/>
      </contour>
    </TTGlyph>
    <TTGlyph name="Eogonek" xMin="70" yMin="-436" xMax="1161" yMax="1328">
      <contour>
        <pt x="77" y="1320" on="1"/>
        <pt x="167" y="1314" on="0"/>
        <pt x="495" y="1314" on="0"/>
        <pt x="1013" y="1328" on="1"/>
        <pt x="1022" y="1264" on="0"/>
        <pt x="1066" y="1058" on="0"/>
        <pt x="1071" y="1032" on="1"/>
        <pt x="1061" y="1022" on="0"/>
        <pt x="999" y="1022" on="0"/>
        <pt x="993" y="1038" on="1"/>
        <pt x="935" y="1191" on="0"/>
        <pt x="856" y="1225" on="1"/>
        <pt x="821" y="1240" on="0"/>
        <pt x="777" y="1240" on="1"/>
        <pt x="611" y="1240" on="1"/>
        <pt x="522" y="1240" on="0"/>
        <pt x="501" y="1192" on="0"/>
        <pt x="501" y="1094" on="1"/>
        <pt x="501" y="736" on="1"/>
        <pt x="501" y="727" on="0"/>
        <pt x="554" y="714" on="0"/>
        <pt x="587" y="714" on="1"/>
        <pt x="693" y="714" on="1"/>
        <pt x="781" y="714" on="0"/>
        <pt x="845" y="766" on="0"/>
        <pt x="869" y="854" on="1"/>
        <pt x="872" y="870" on="0"/>
        <pt x="921" y="870" on="0"/>
        <pt x="931" y="860" on="1"/>
        <pt x="931" y="476" on="1"/>
        <pt x="923" y="468" on="0"/>
        <pt x="870" y="468" on="0"/>
        <pt x="867" y="484" on="1"/>
        <pt x="841" y="586" on="0"/>
        <pt x="763" y="620" on="0"/>
        <pt x="501" y="620" on="0"/>
        <pt x="501" y="592" on="1"/>
        <pt x="501" y="282" on="1"/>
        <pt x="501" y="164" on="0"/>
        <pt x="517" y="124" on="1"/>
        <pt x="525" y="105" on="0"/>
        <pt x="603" y="84" on="0"/>
        <pt x="647" y="84" on="1"/>
        <pt x="779" y="84" on="1"/>
        <pt x="899" y="84" on="0"/>
        <pt x="1023" y="208" on="0"/>
        <pt x="1073" y="340" on="1"/>
        <pt x="1076" y="352" on="0"/>
        <pt x="1096" y="352" on="1"/>
        <pt x="1149" y="352" on="0"/>
        <pt x="1161" y="340" on="1"/>
        <pt x="1157" y="328" on="0"/>
        <pt x="1118" y="220" on="0"/>
        <pt x="1101" y="170" on="0"/>
        <pt x="1087" y="127" on="1"/>
        <pt x="1061" y="48" on="0"/>
        <pt x="1053" y="-4" on="1"/>
        <pt x="968" y="-27" on="0"/>
        <pt x="807" y="-142" on="0"/>
        <pt x="807" y="-202" on="1"/>
        <pt x="807" y="-239" on="0"/>
        <pt x="854" y="-296" on="0"/>
        <pt x="958" y="-296" on="0"/>
        <pt x="1055" y="-218" on="1"/>
        <pt x="1067" y="-218" on="0"/>
        <pt x="1067" y="-233" on="1"/>
        <pt x="1067" y="-269" on="0"/>
        <pt x="1039" y="-308" on="0"/>
        <pt x="995" y="-351" on="0"/>
        <pt x="962" y="-376" on="1"/>
        <pt x="885" y="-436" on="0"/>
        <pt x="751" y="-436" on="0"/>
        <pt x="659" y="-352" on="0"/>
        <pt x="659" y="-203" on="0"/>
        <pt x="819" y="-37" on="0"/>
        <pt x="913" y="-4" on="1"/>
        <pt x="334" y="-4" on="1"/>
        <pt x="127" y="-4" on="0"/>
        <pt x="77" y="-6" on="1"/>
        <pt x="71" y="3" on="0"/>
        <pt x="70" y="57" on="0"/>
        <pt x="77" y="68" on="1"/>
        <pt x="195" y="77" on="0"/>
        <pt x="205" y="102" on="1"/>
        <pt x="221" y="142" on="0"/>
        <pt x="221" y="290" on="1"/>
        <pt x="221" y="1026" on="1"/>
        <pt x="221" y="1174" on="0"/>
        <pt x="205" y="1214" on="1"/>
        <pt x="196" y="1237" on="0"/>
        <pt x="77" y="1246" on="1"/>
        <pt x="70" y="1257" on="0"/>
        <pt x="71" y="1311" on="0"/>
      </contour>
    </TTGlyph>
    <TTGlyph name="Eth" xMin="58" yMin="-6" xMax="1445" yMax="1320">
      <component glyphName="D" x="8" y="0" flags="0x1004"/>
      <component glyphName="Eth.ref1" x="0" y="0" flags="0x1004"/>
    </TTGlyph>
    <TTGlyph name="Eth.ref1" xMin="58" yMin="616" xMax="772" yMax="696">
      <contour>
        <pt x="66" y="616" on="1"/>
        <pt x="55" y="616" on="0"/>
        <pt x="62" y="688" on="0"/>
        <pt x="68" y="696" on="1"/>
        <pt x="766" y="696" on="1"/>
        <pt x="772" y="696" on="0"/>
        <pt x="772" y="630" on="0"/>
        <pt x="766" y="616" on="1"/>
      </contour>
    </TTGlyph>
    <TTGlyph name="Euro" xMin="81" yMin="-14" xMax="1341" yMax="1284">
      <contour>
        <pt x="1341" y="370" on="1"/>
        <pt x="1341" y="342" on="0"/>
        <pt x="1280" y="84" on="0"/>
        <pt x="1261" y="76" on="1"/>
        <pt x="1174" y="45" on="0"/>
        <pt x="1130" y="31" on="1"/>
        <pt x="989" y="-14" on="0"/>
        <pt x="649" y="-14" on="0"/>
        <pt x="339" y="156" on="0"/>
        <pt x="249" y="302" on="1"/>
        <pt x="188" y="401" on="0"/>
        <pt x="168" y="504" on="1"/>
        <pt x="81" y="504" on="1"/>
        <pt x="72" y="513" on="0"/>
        <pt x="108" y="588" on="0"/>
        <pt x="121" y="588" on="1"/>
        <pt x="159" y="588" on="1"/>
        <pt x="159" y="594" on="0"/>
        <pt x="159" y="600" on="1"/>
        <pt x="159" y="661" on="0"/>
        <pt x="167" y="716" on="1"/>
        <pt x="81" y="716" on="1"/>
        <pt x="72" y="725" on="0"/>
        <pt x="108" y="800" on="0"/>
        <pt x="121" y="800" on="1"/>
        <pt x="185" y="800" on="1"/>
        <pt x="197" y="839" on="0"/>
        <pt x="212" y="876" on="1"/>
        <pt x="266" y="998" on="0"/>
        <pt x="447" y="1177" on="0"/>
        <pt x="698" y="1284" on="0"/>
        <pt x="835" y="1284" on="1"/>
        <pt x="1071" y="1284" on="0"/>
        <pt x="1245" y="1248" on="1"/>
        <pt x="1245" y="1247" on="0"/>
        <pt x="1311" y="970" on="0"/>
        <pt x="1311" y="947" on="0"/>
        <pt x="1277" y="928" on="0"/>
        <pt x="1241" y="928" on="0"/>
        <pt x="1233" y="936" on="1"/>
        <pt x="1217" y="999" on="0"/>
        <pt x="1141" y="1101" on="0"/>
        <pt x="1102" y="1130" on="1"/>
        <pt x="1006" y="1202" on="0"/>
        <pt x="853" y="1202" on="1"/>
        <pt x="752" y="1202" on="0"/>
        <pt x="597" y="1115" on="0"/>
        <pt x="550" y="1040" on="1"/>
        <pt x="485" y="936" on="0"/>
        <pt x="465" y="800" on="1"/>
        <pt x="867" y="800" on="1"/>
        <pt x="890" y="780" on="0"/>
        <pt x="864" y="736" on="1"/>
        <pt x="854" y="721" on="0"/>
        <pt x="847" y="716" on="1"/>
        <pt x="458" y="716" on="1"/>
        <pt x="457" y="697" on="0"/>
        <pt x="457" y="678" on="1"/>
        <pt x="457" y="632" on="0"/>
        <pt x="461" y="588" on="1"/>
        <pt x="867" y="588" on="1"/>
        <pt x="890" y="568" on="0"/>
        <pt x="864" y="524" on="1"/>
        <pt x="854" y="509" on="0"/>
        <pt x="847" y="504" on="1"/>
        <pt x="472" y="504" on="1"/>
        <pt x="497" y="372" on="0"/>
        <pt x="562" y="262" on="1"/>
        <pt x="613" y="175" on="0"/>
        <pt x="783" y="70" on="0"/>
        <pt x="891" y="70" on="1"/>
        <pt x="1040" y="70" on="0"/>
        <pt x="1135" y="154" on="1"/>
        <pt x="1172" y="187" on="0"/>
        <pt x="1206" y="245" on="1"/>
        <pt x="1257" y="332" on="0"/>
        <pt x="1273" y="392" on="1"/>
        <pt x="1316" y="392" on="0"/>
      </contour>
    </TTGlyph>
    <TTGlyph name="F" xMin="70" yMin="-8" xMax="1071" yMax="1328">
      <contour>
        <pt x="77" y="1320" on="1"/>
        <pt x="167" y="1314" on="0"/>
        <pt x="495" y="1314" on="0"/>
        <pt x="1013" y="1328" on="1"/>
        <pt x="1022" y="1264" on="0"/>
        <pt x="1066" y="1058" on="0"/>
        <pt x="1071" y="1032" on="1"/>
        <pt x="1061" y="1022" on="0"/>
        <pt x="999" y="1022" on="0"/>
        <pt x="993" y="1038" on="1"/>
        <pt x="935" y="1191" on="0"/>
        <pt x="856" y="1225" on="1"/>
        <pt x="821" y="1240" on="0"/>
        <pt x="777" y="1240" on="1"/>
        <pt x="611" y="1240" on="1"/>
        <pt x="522" y="1240" on="0"/>
        <pt x="501" y="1192" on="0"/>
        <pt x="501" y="1094" on="1"/>
        <pt x="501" y="728" on="1"/>
        <pt x="501" y="719" on="0"/>
        <pt x="554" y="706" on="0"/>
        <pt x="587" y="706" on="1"/>
        <pt x="693" y="706" on="1"/>
        <pt x="781" y="706" on="0"/>
        <pt x="845" y="758" on="0"/>
        <pt x="869" y="846" on="1"/>
        <pt x="872" y="862" on="0"/>
        <pt x="921" y="862" on="0"/>
        <pt x="931" y="852" on="1"/>
        <pt x="931" y="468" on="1"/>
        <pt x="923" y="460" on="0"/>
        <pt x="870" y="460" on="0"/>
        <pt x="867" y="476" on="1"/>
        <pt x="841" y="578" on="0"/>
        <pt x="763" y="612" on="0"/>
        <pt x="501" y="612" on="0"/>
        <pt x="501" y="584" on="1"/>
        <pt x="501" y="290" on="1"/>
        <pt x="501" y="142" on="0"/>
        <pt x="517" y="102" on="1"/>
        <pt x="527" y="76" on="0"/>
        <pt x="663" y="66" on="1"/>
        <pt x="670" y="55" on="0"/>
        <pt x="669" y="1" on="0"/>
        <pt x="663" y="-8" on="1"/>
        <pt x="526" y="6" on="0"/>
        <pt x="214" y="6" on="0"/>
        <pt x="77" y="-8" on="1"/>
        <pt x="71" y="1" on="0"/>
        <pt x="70" y="55" on="0"/>
        <pt x="77" y="66" on="1"/>
        <pt x="195" y="75" on="0"/>
        <pt x="205" y="102" on="1"/>
        <pt x="221" y="142" on="0"/>
        <pt x="221" y="290" on="1"/>
        <pt x="221" y="1026" on="1"/>
        <pt x="221" y="1174" on="0"/>
        <pt x="205" y="1214" on="1"/>
        <pt x="196" y="1237" on="0"/>
        <pt x="77" y="1246" on="1"/>
        <pt x="70" y="1257" on="0"/>
        <pt x="71" y="1311" on="0"/>
      </contour>
    </TTGlyph>
    <TTGlyph name="FourDots.a" xMin="-286" yMin="-7" xMax="247" yMax="564">
      <contour>
        <pt x="26" y="554" on="1"/>
        <pt x="38" y="571" on="0"/>
        <pt x="61" y="564" on="1"/>
        <pt x="145" y="534" on="0"/>
        <pt x="211" y="476" on="1"/>
        <pt x="228" y="459" on="0"/>
        <pt x="217" y="439" on="1"/>
        <pt x="133" y="307" on="1"/>
        <pt x="192" y="279" on="0"/>
        <pt x="241" y="236" on="1"/>
        <pt x="258" y="219" on="0"/>
        <pt x="247" y="199" on="1"/>
        <pt x="149" y="44" on="1"/>
        <pt x="133" y="23" on="0"/>
        <pt x="94" y="54" on="0"/>
        <pt x="5" y="108" on="1"/>
        <pt x="-64" y="-2" on="1"/>
        <pt x="-80" y="-23" on="0"/>
        <pt x="-122" y="10" on="0"/>
        <pt x="-249" y="86" on="1"/>
        <pt x="-270" y="99" on="0"/>
        <pt x="-256" y="120" on="1"/>
        <pt x="-165" y="256" on="1"/>
        <pt x="-203" y="280" on="0"/>
        <pt x="-279" y="326" on="1"/>
        <pt x="-300" y="339" on="0"/>
        <pt x="-286" y="360" on="1"/>
        <pt x="-187" y="508" on="1"/>
        <pt x="-175" y="525" on="0"/>
        <pt x="-152" y="518" on="1"/>
        <pt x="-90" y="496" on="0"/>
        <pt x="-38" y="459" on="1"/>
      </contour>
      <contour>
        <pt x="-80" y="261" on="1"/>
        <pt x="-42" y="243" on="0"/>
        <pt x="-8" y="219" on="1"/>
        <pt x="48" y="303" on="1"/>
        <pt x="21" y="321" on="0"/>
        <pt x="-25" y="348" on="1"/>
      </contour>
    </TTGlyph>
    <TTGlyph name="FourDots.b" xMin="-286" yMin="-7" xMax="247" yMax="564">
      <component glyphName="FourDots.a" x="0" y="0" flags="0x1004"/>
    </TTGlyph>
    <TTGlyph name="FourDots.b.l" xMin="-286" yMin="-7" xMax="247" yMax="564">
      <component glyphName="FourDots.a" x="0" y="0" flags="0x1004"/>
    </TTGlyph>
    <TTGlyph name="G" xMin="80" yMin="-14" xMax="1411" yMax="1334">
      <contour>
        <pt x="1188" y="1296" on="1"/>
        <pt x="1256" y="994" on="1"/>
        <pt x="1256" y="985" on="0"/>
        <pt x="1222" y="964" on="0"/>
        <pt x="1184" y="964" on="0"/>
        <pt x="1176" y="972" on="1"/>
        <pt x="1142" y="1099" on="0"/>
        <pt x="1045" y="1174" on="1"/>
        <pt x="949" y="1248" on="0"/>
        <pt x="794" y="1248" on="1"/>
        <pt x="549" y="1248" on="0"/>
        <pt x="454" y="1010" on="1"/>
        <pt x="400" y="874" on="0"/>
        <pt x="400" y="575" on="0"/>
        <pt x="454" y="355" on="0"/>
        <pt x="557" y="178" on="0"/>
        <pt x="722" y="72" on="0"/>
        <pt x="908" y="72" on="0"/>
        <pt x="980" y="104" on="1"/>
        <pt x="998" y="113" on="0"/>
        <pt x="998" y="134" on="1"/>
        <pt x="998" y="366" on="1"/>
        <pt x="998" y="431" on="0"/>
        <pt x="982" y="491" on="0"/>
        <pt x="952" y="504" on="1"/>
        <pt x="910" y="522" on="0"/>
        <pt x="856" y="522" on="1"/>
        <pt x="848" y="522" on="0"/>
        <pt x="847" y="588" on="0"/>
        <pt x="854" y="596" on="1"/>
        <pt x="1160" y="584" on="1"/>
        <pt x="1406" y="596" on="1"/>
        <pt x="1414" y="571" on="0"/>
        <pt x="1407" y="522" on="0"/>
        <pt x="1404" y="522" on="1"/>
        <pt x="1389" y="522" on="0"/>
        <pt x="1313" y="505" on="0"/>
        <pt x="1301" y="498" on="1"/>
        <pt x="1274" y="481" on="0"/>
        <pt x="1274" y="410" on="1"/>
        <pt x="1274" y="196" on="1"/>
        <pt x="1286" y="138" on="1"/>
        <pt x="1286" y="113" on="0"/>
        <pt x="1132" y="54" on="0"/>
        <pt x="1081" y="37" on="1"/>
        <pt x="928" y="-14" on="0"/>
        <pt x="581" y="-14" on="0"/>
        <pt x="266" y="156" on="0"/>
        <pt x="80" y="459" on="0"/>
        <pt x="80" y="828" on="0"/>
        <pt x="266" y="1146" on="0"/>
        <pt x="586" y="1334" on="0"/>
        <pt x="1001" y="1334" on="0"/>
      </contour>
    </TTGlyph>
    <TTGlyph name="Gbreve" xMin="80" yMin="-14" xMax="1411" yMax="1654">
      <component glyphName="uni0306.cap" x="1256" y="0" flags="0x1004"/>
      <component glyphName="G" x="0" y="0" flags="0x1004"/>
    </TTGlyph>
    <TTGlyph name="Gcaron" xMin="92" yMin="-14" xMax="1423" yMax="1738">
      <component glyphName="uni030C.cap" x="408" y="52" flags="0x1004"/>
      <component glyphName="G" x="12" y="0" flags="0x1004"/>
    </TTGlyph>
    <TTGlyph name="Gcircumflex" xMin="80" yMin="-14" xMax="1411" yMax="1740">
      <component glyphName="uni0302.cap" x="1288" y="4" flags="0x1004"/>
      <component glyphName="G" x="0" y="0" flags="0x1004"/>
    </TTGlyph>
    <TTGlyph name="Gcommaaccent" xMin="80" yMin="-436" xMax="1411" yMax="1334">
      <component glyphName="uni0326" x="1322" y="0" flags="0x1004"/>
      <component glyphName="G" x="0" y="0" flags="0x1004"/>
    </TTGlyph>
    <TTGlyph name="Gdotaccent" xMin="80" yMin="-14" xMax="1411" yMax="1716">
      <component glyphName="uni0307" x="1310" y="450" flags="0x1004"/>
      <component glyphName="G" x="0" y="0" flags="0x1004"/>
    </TTGlyph>
    <TTGlyph name="H" xMin="70" yMin="-8" xMax="1414" yMax="1324">
      <contour>
        <pt x="77" y="1324" on="1"/>
        <pt x="214" y="1310" on="0"/>
        <pt x="508" y="1310" on="0"/>
        <pt x="645" y="1324" on="1"/>
        <pt x="651" y="1315" on="0"/>
        <pt x="652" y="1261" on="0"/>
        <pt x="645" y="1250" on="1"/>
        <pt x="527" y="1241" on="0"/>
        <pt x="517" y="1214" on="1"/>
        <pt x="501" y="1174" on="0"/>
        <pt x="501" y="1026" on="1"/>
        <pt x="501" y="742" on="1"/>
        <pt x="505" y="736" on="1"/>
        <pt x="739" y="730" on="0"/>
        <pt x="765" y="730" on="0"/>
        <pt x="981" y="736" on="1"/>
        <pt x="985" y="740" on="0"/>
        <pt x="985" y="744" on="1"/>
        <pt x="983" y="1026" on="1"/>
        <pt x="983" y="1174" on="0"/>
        <pt x="967" y="1214" on="1"/>
        <pt x="957" y="1241" on="0"/>
        <pt x="839" y="1250" on="1"/>
        <pt x="832" y="1261" on="0"/>
        <pt x="833" y="1315" on="0"/>
        <pt x="839" y="1324" on="1"/>
        <pt x="976" y="1310" on="0"/>
        <pt x="1270" y="1310" on="0"/>
        <pt x="1407" y="1324" on="1"/>
        <pt x="1413" y="1315" on="0"/>
        <pt x="1414" y="1261" on="0"/>
        <pt x="1407" y="1250" on="1"/>
        <pt x="1289" y="1241" on="0"/>
        <pt x="1279" y="1214" on="1"/>
        <pt x="1263" y="1174" on="0"/>
        <pt x="1263" y="1026" on="1"/>
        <pt x="1263" y="290" on="1"/>
        <pt x="1263" y="142" on="0"/>
        <pt x="1279" y="102" on="1"/>
        <pt x="1289" y="75" on="0"/>
        <pt x="1407" y="66" on="1"/>
        <pt x="1414" y="55" on="0"/>
        <pt x="1413" y="1" on="0"/>
        <pt x="1407" y="-8" on="1"/>
        <pt x="1270" y="6" on="0"/>
        <pt x="976" y="6" on="0"/>
        <pt x="839" y="-8" on="1"/>
        <pt x="833" y="1" on="0"/>
        <pt x="832" y="55" on="0"/>
        <pt x="839" y="66" on="1"/>
        <pt x="957" y="75" on="0"/>
        <pt x="967" y="102" on="1"/>
        <pt x="983" y="142" on="0"/>
        <pt x="983" y="290" on="1"/>
        <pt x="983" y="620" on="1"/>
        <pt x="979" y="630" on="1"/>
        <pt x="831" y="634" on="0"/>
        <pt x="515" y="634" on="0"/>
        <pt x="503" y="626" on="1"/>
        <pt x="501" y="618" on="1"/>
        <pt x="501" y="290" on="1"/>
        <pt x="501" y="142" on="0"/>
        <pt x="517" y="102" on="1"/>
        <pt x="527" y="75" on="0"/>
        <pt x="645" y="66" on="1"/>
        <pt x="652" y="55" on="0"/>
        <pt x="651" y="1" on="0"/>
        <pt x="645" y="-8" on="1"/>
        <pt x="508" y="6" on="0"/>
        <pt x="214" y="6" on="0"/>
        <pt x="77" y="-8" on="1"/>
        <pt x="71" y="1" on="0"/>
        <pt x="70" y="55" on="0"/>
        <pt x="77" y="66" on="1"/>
        <pt x="195" y="75" on="0"/>
        <pt x="205" y="102" on="1"/>
        <pt x="221" y="142" on="0"/>
        <pt x="221" y="290" on="1"/>
        <pt x="221" y="1026" on="1"/>
        <pt x="221" y="1174" on="0"/>
        <pt x="205" y="1214" on="1"/>
        <pt x="195" y="1241" on="0"/>
        <pt x="77" y="1250" on="1"/>
        <pt x="70" y="1261" on="0"/>
        <pt x="71" y="1315" on="0"/>
      </contour>
    </TTGlyph>
    <TTGlyph name="Hbar" xMin="70" yMin="-8" xMax="1414" yMax="1324">
      <component glyphName="H" x="0" y="0" flags="0x1004"/>
      <component glyphName="Hbar.ref1" x="0" y="0" flags="0x1004"/>
    </TTGlyph>
    <TTGlyph name="Hbar.ref1" xMin="74" yMin="978" xMax="1382" yMax="1070">
      <contour>
        <pt x="1370" y="1070" on="1"/>
        <pt x="1382" y="1070" on="0"/>
        <pt x="1382" y="1005" on="0"/>
        <pt x="1370" y="978" on="1"/>
        <pt x="84" y="978" on="1"/>
        <pt x="74" y="978" on="0"/>
        <pt x="74" y="1052" on="0"/>
        <pt x="86" y="1070" on="1"/>
      </contour>
    </TTGlyph>
    <TTGlyph name="Hcircumflex" xMin="70" yMin="-8" xMax="1414" yMax="1740">
      <component glyphName="uni0302.cap" x="1255" y="4" flags="0x1004"/>
      <component glyphName="H" x="0" y="0" flags="0x1004"/>
    </TTGlyph>
    <TTGlyph name="I" xMin="70" yMin="-8" xMax="652" yMax="1324">
      <contour>
        <pt x="77" y="1324" on="1"/>
        <pt x="214" y="1310" on="0"/>
        <pt x="508" y="1310" on="0"/>
        <pt x="645" y="1324" on="1"/>
        <pt x="651" y="1315" on="0"/>
        <pt x="652" y="1261" on="0"/>
        <pt x="645" y="1250" on="1"/>
        <pt x="527" y="1241" on="0"/>
        <pt x="517" y="1214" on="1"/>
        <pt x="501" y="1174" on="0"/>
        <pt x="501" y="1026" on="1"/>
        <pt x="501" y="290" on="1"/>
        <pt x="501" y="142" on="0"/>
        <pt x="517" y="102" on="1"/>
        <pt x="527" y="75" on="0"/>
        <pt x="645" y="66" on="1"/>
        <pt x="652" y="55" on="0"/>
        <pt x="651" y="1" on="0"/>
        <pt x="645" y="-8" on="1"/>
        <pt x="508" y="6" on="0"/>
        <pt x="214" y="6" on="0"/>
        <pt x="77" y="-8" on="1"/>
        <pt x="71" y="1" on="0"/>
        <pt x="70" y="55" on="0"/>
        <pt x="77" y="66" on="1"/>
        <pt x="195" y="75" on="0"/>
        <pt x="205" y="102" on="1"/>
        <pt x="221" y="142" on="0"/>
        <pt x="221" y="290" on="1"/>
        <pt x="221" y="1026" on="1"/>
        <pt x="221" y="1174" on="0"/>
        <pt x="205" y="1214" on="1"/>
        <pt x="195" y="1241" on="0"/>
        <pt x="77" y="1250" on="1"/>
        <pt x="70" y="1261" on="0"/>
        <pt x="71" y="1315" on="0"/>
      </contour>
    </TTGlyph>
    <TTGlyph name="IJ" xMin="70" yMin="-436" xMax="1187" yMax="1324">
      <component glyphName="J" x="548" y="0" flags="0x1004"/>
      <component glyphName="I" x="0" y="0" flags="0x1004"/>
    </TTGlyph>
    <TTGlyph name="Iacute" xMin="70" yMin="-8" xMax="652" yMax="1738">
      <component glyphName="acutecomb.cap" x="933" y="0" flags="0x1004"/>
      <component glyphName="I" x="0" y="0" flags="0x1004"/>
    </TTGlyph>
    <TTGlyph name="Ibreve" xMin="70" yMin="-8" xMax="652" yMax="1654">
      <component glyphName="uni0306.cap" x="887" y="0" flags="0x1004"/>
      <component glyphName="I" x="0" y="0" flags="0x1004"/>
    </TTGlyph>
    <TTGlyph name="Icircumflex" xMin="70" yMin="-8" xMax="652" yMax="1740">
      <component glyphName="uni0302.cap" x="873" y="4" flags="0x1004"/>
      <component glyphName="I" x="0" y="0" flags="0x1004"/>
    </TTGlyph>
    <TTGlyph name="Idieresis" xMin="18" yMin="-8" xMax="700" yMax="1728">
      <component glyphName="uni0308.cap" x="-26" y="24" flags="0x1004"/>
      <component glyphName="I" x="1" y="0" flags="0x1004"/>
    </TTGlyph>
    <TTGlyph name="Idotaccent" xMin="70" yMin="-8" xMax="652" yMax="1716">
      <component glyphName="uni0307" x="891" y="450" flags="0x1004"/>
      <component glyphName="I" x="0" y="0" flags="0x1004"/>
    </TTGlyph>
    <TTGlyph name="Igrave" xMin="70" yMin="-8" xMax="652" yMax="1738">
      <component glyphName="gravecomb.cap" x="819" y="0" flags="0x1004"/>
      <component glyphName="I" x="0" y="0" flags="0x1004"/>
    </TTGlyph>
    <TTGlyph name="Imacron" xMin="58" yMin="-8" xMax="674" yMax="1574">
      <component glyphName="uni0304.cap" x="876" y="22" flags="0x1004"/>
      <component glyphName="I" x="1" y="0" flags="0x1004"/>
    </TTGlyph>
    <TTGlyph name="Iogonek" xMin="70" yMin="-436" xMax="652" yMax="1324">
      <contour>
        <pt x="77" y="1324" on="1"/>
        <pt x="214" y="1310" on="0"/>
        <pt x="508" y="1310" on="0"/>
        <pt x="645" y="1324" on="1"/>
        <pt x="651" y="1315" on="0"/>
        <pt x="652" y="1261" on="0"/>
        <pt x="645" y="1250" on="1"/>
        <pt x="527" y="1241" on="0"/>
        <pt x="517" y="1214" on="1"/>
        <pt x="501" y="1174" on="0"/>
        <pt x="501" y="1026" on="1"/>
        <pt x="501" y="290" on="1"/>
        <pt x="501" y="142" on="0"/>
        <pt x="517" y="102" on="1"/>
        <pt x="527" y="75" on="0"/>
        <pt x="645" y="66" on="1"/>
        <pt x="652" y="55" on="0"/>
        <pt x="651" y="1" on="0"/>
        <pt x="645" y="-8" on="1"/>
        <pt x="568" y="-1" on="0"/>
        <pt x="493" y="2" on="1"/>
        <pt x="342" y="-87" on="0"/>
        <pt x="310" y="-144" on="1"/>
        <pt x="293" y="-172" on="0"/>
        <pt x="293" y="-239" on="0"/>
        <pt x="340" y="-296" on="0"/>
        <pt x="444" y="-296" on="0"/>
        <pt x="541" y="-218" on="1"/>
        <pt x="553" y="-218" on="0"/>
        <pt x="553" y="-233" on="1"/>
        <pt x="553" y="-269" on="0"/>
        <pt x="525" y="-308" on="0"/>
        <pt x="481" y="-351" on="0"/>
        <pt x="448" y="-376" on="1"/>
        <pt x="371" y="-436" on="0"/>
        <pt x="237" y="-436" on="0"/>
        <pt x="145" y="-352" on="0"/>
        <pt x="145" y="-201" on="0"/>
        <pt x="310" y="-25" on="0"/>
        <pt x="403" y="6" on="1"/>
        <pt x="359" y="6" on="1"/>
        <pt x="214" y="6" on="0"/>
        <pt x="77" y="-8" on="1"/>
        <pt x="71" y="1" on="0"/>
        <pt x="70" y="55" on="0"/>
        <pt x="77" y="66" on="1"/>
        <pt x="195" y="75" on="0"/>
        <pt x="205" y="102" on="1"/>
        <pt x="221" y="142" on="0"/>
        <pt x="221" y="290" on="1"/>
        <pt x="221" y="1026" on="1"/>
        <pt x="221" y="1174" on="0"/>
        <pt x="205" y="1214" on="1"/>
        <pt x="195" y="1241" on="0"/>
        <pt x="77" y="1250" on="1"/>
        <pt x="70" y="1261" on="0"/>
        <pt x="71" y="1315" on="0"/>
      </contour>
    </TTGlyph>
    <TTGlyph name="Itilde" xMin="-4" yMin="-8" xMax="756" yMax="1708">
      <component glyphName="tildecomb.cap" x="862" y="10" flags="0x1004"/>
      <component glyphName="I" x="1" y="0" flags="0x1004"/>
    </TTGlyph>
    <TTGlyph name="J" xMin="-250" yMin="-436" xMax="639" yMax="1324">
      <contour>
        <pt x="64" y="1324" on="1"/>
        <pt x="200" y="1310" on="0"/>
        <pt x="496" y="1310" on="0"/>
        <pt x="632" y="1324" on="1"/>
        <pt x="638" y="1315" on="0"/>
        <pt x="639" y="1261" on="0"/>
        <pt x="632" y="1250" on="1"/>
        <pt x="514" y="1241" on="0"/>
        <pt x="504" y="1214" on="1"/>
        <pt x="488" y="1174" on="0"/>
        <pt x="488" y="1026" on="1"/>
        <pt x="488" y="286" on="1"/>
        <pt x="488" y="-54" on="0"/>
        <pt x="171" y="-436" on="0"/>
        <pt x="-104" y="-436" on="1"/>
        <pt x="-131" y="-436" on="0"/>
        <pt x="-203" y="-412" on="0"/>
        <pt x="-219" y="-398" on="0"/>
        <pt x="-229" y="-384" on="0"/>
        <pt x="-232" y="-377" on="0"/>
        <pt x="-240" y="-363" on="0"/>
        <pt x="-244" y="-353" on="0"/>
        <pt x="-246" y="-346" on="1"/>
        <pt x="-250" y="-330" on="0"/>
        <pt x="-250" y="-314" on="1"/>
        <pt x="-250" y="-262" on="0"/>
        <pt x="-177" y="-180" on="0"/>
        <pt x="-130" y="-180" on="1"/>
        <pt x="-78" y="-180" on="0"/>
        <pt x="-6" y="-256" on="1"/>
        <pt x="16" y="-280" on="0"/>
        <pt x="26" y="-287" on="0"/>
        <pt x="38" y="-298" on="0"/>
        <pt x="45" y="-302" on="0"/>
        <pt x="56" y="-309" on="0"/>
        <pt x="60" y="-310" on="1"/>
        <pt x="69" y="-314" on="0"/>
        <pt x="101" y="-314" on="0"/>
        <pt x="138" y="-293" on="0"/>
        <pt x="165" y="-244" on="0"/>
        <pt x="184" y="-191" on="0"/>
        <pt x="196" y="-100" on="0"/>
        <pt x="204" y="-23" on="0"/>
        <pt x="206" y="40" on="1"/>
        <pt x="208" y="144" on="0"/>
        <pt x="208" y="270" on="1"/>
        <pt x="208" y="1026" on="1"/>
        <pt x="208" y="1174" on="0"/>
        <pt x="192" y="1214" on="1"/>
        <pt x="182" y="1241" on="0"/>
        <pt x="64" y="1250" on="1"/>
        <pt x="57" y="1261" on="0"/>
        <pt x="58" y="1315" on="0"/>
      </contour>
    </TTGlyph>
    <TTGlyph name="Jcircumflex" xMin="-250" yMin="-436" xMax="639" yMax="1740">
      <component glyphName="uni0302.cap" x="862" y="4" flags="0x1004"/>
      <component glyphName="J" x="0" y="0" flags="0x1004"/>
    </TTGlyph>
    <TTGlyph name="K" xMin="70" yMin="-16" xMax="1466" yMax="1324">
      <contour>
        <pt x="873" y="1324" on="1"/>
        <pt x="1133" y="1310" on="1"/>
        <pt x="1252" y="1310" on="0"/>
        <pt x="1381" y="1324" on="1"/>
        <pt x="1386" y="1314" on="0"/>
        <pt x="1384" y="1263" on="0"/>
        <pt x="1377" y="1254" on="1"/>
        <pt x="1222" y="1237" on="0"/>
        <pt x="1151" y="1166" on="1"/>
        <pt x="925" y="936" on="0"/>
        <pt x="775" y="778" on="1"/>
        <pt x="760" y="761" on="0"/>
        <pt x="769" y="746" on="1"/>
        <pt x="1129" y="260" on="1"/>
        <pt x="1264" y="89" on="0"/>
        <pt x="1434" y="68" on="1"/>
        <pt x="1450" y="66" on="0"/>
        <pt x="1461" y="66" on="1"/>
        <pt x="1467" y="53" on="0"/>
        <pt x="1464" y="-2" on="0"/>
        <pt x="1461" y="-8" on="1"/>
        <pt x="1345" y="-16" on="0"/>
        <pt x="1220" y="-16" on="1"/>
        <pt x="1004" y="-16" on="0"/>
        <pt x="893" y="134" on="1"/>
        <pt x="870" y="166" on="0"/>
        <pt x="803" y="255" on="1"/>
        <pt x="604" y="519" on="0"/>
        <pt x="541" y="604" on="1"/>
        <pt x="533" y="612" on="0"/>
        <pt x="507" y="612" on="0"/>
        <pt x="501" y="600" on="1"/>
        <pt x="501" y="290" on="1"/>
        <pt x="501" y="142" on="0"/>
        <pt x="517" y="102" on="1"/>
        <pt x="527" y="75" on="0"/>
        <pt x="645" y="66" on="1"/>
        <pt x="652" y="55" on="0"/>
        <pt x="651" y="1" on="0"/>
        <pt x="645" y="-8" on="1"/>
        <pt x="508" y="6" on="0"/>
        <pt x="214" y="6" on="0"/>
        <pt x="77" y="-8" on="1"/>
        <pt x="71" y="1" on="0"/>
        <pt x="70" y="55" on="0"/>
        <pt x="77" y="66" on="1"/>
        <pt x="195" y="75" on="0"/>
        <pt x="205" y="102" on="1"/>
        <pt x="221" y="142" on="0"/>
        <pt x="221" y="290" on="1"/>
        <pt x="221" y="1026" on="1"/>
        <pt x="221" y="1174" on="0"/>
        <pt x="205" y="1214" on="1"/>
        <pt x="195" y="1241" on="0"/>
        <pt x="77" y="1250" on="1"/>
        <pt x="70" y="1261" on="0"/>
        <pt x="71" y="1315" on="0"/>
        <pt x="77" y="1324" on="1"/>
        <pt x="214" y="1310" on="0"/>
        <pt x="508" y="1310" on="0"/>
        <pt x="645" y="1324" on="1"/>
        <pt x="651" y="1315" on="0"/>
        <pt x="652" y="1261" on="0"/>
        <pt x="645" y="1250" on="1"/>
        <pt x="527" y="1241" on="0"/>
        <pt x="517" y="1214" on="1"/>
        <pt x="501" y="1174" on="0"/>
        <pt x="501" y="1026" on="1"/>
        <pt x="501" y="674" on="1"/>
        <pt x="642" y="786" on="0"/>
        <pt x="731" y="878" on="0"/>
        <pt x="814" y="961" on="0"/>
        <pt x="846" y="995" on="0"/>
        <pt x="874" y="1025" on="1"/>
        <pt x="925" y="1080" on="0"/>
        <pt x="989" y="1166" on="0"/>
        <pt x="989" y="1206" on="1"/>
        <pt x="989" y="1252" on="0"/>
        <pt x="877" y="1252" on="1"/>
        <pt x="870" y="1263" on="0"/>
        <pt x="868" y="1311" on="0"/>
      </contour>
    </TTGlyph>
    <TTGlyph name="Kcommaaccent" xMin="70" yMin="-436" xMax="1466" yMax="1324">
      <component glyphName="uni0326" x="1283" y="0" flags="0x1004"/>
      <component glyphName="K" x="0" y="0" flags="0x1004"/>
    </TTGlyph>
    <TTGlyph name="L" xMin="70" yMin="-6" xMax="1161" yMax="1324">
      <contour>
        <pt x="501" y="282" on="1"/>
        <pt x="501" y="164" on="0"/>
        <pt x="517" y="124" on="1"/>
        <pt x="525" y="105" on="0"/>
        <pt x="603" y="84" on="0"/>
        <pt x="647" y="84" on="1"/>
        <pt x="779" y="84" on="1"/>
        <pt x="899" y="84" on="0"/>
        <pt x="1023" y="208" on="0"/>
        <pt x="1073" y="340" on="1"/>
        <pt x="1076" y="352" on="0"/>
        <pt x="1096" y="352" on="1"/>
        <pt x="1149" y="352" on="0"/>
        <pt x="1161" y="340" on="1"/>
        <pt x="1157" y="328" on="0"/>
        <pt x="1118" y="220" on="0"/>
        <pt x="1101" y="170" on="0"/>
        <pt x="1087" y="127" on="1"/>
        <pt x="1061" y="48" on="0"/>
        <pt x="1053" y="-4" on="1"/>
        <pt x="131" y="-4" on="0"/>
        <pt x="77" y="-6" on="1"/>
        <pt x="71" y="3" on="0"/>
        <pt x="70" y="57" on="0"/>
        <pt x="77" y="68" on="1"/>
        <pt x="195" y="77" on="0"/>
        <pt x="205" y="102" on="1"/>
        <pt x="221" y="142" on="0"/>
        <pt x="221" y="290" on="1"/>
        <pt x="221" y="1026" on="1"/>
        <pt x="221" y="1174" on="0"/>
        <pt x="205" y="1214" on="1"/>
        <pt x="195" y="1241" on="0"/>
        <pt x="77" y="1250" on="1"/>
        <pt x="70" y="1261" on="0"/>
        <pt x="71" y="1315" on="0"/>
        <pt x="77" y="1324" on="1"/>
        <pt x="214" y="1310" on="0"/>
        <pt x="508" y="1310" on="0"/>
        <pt x="645" y="1324" on="1"/>
        <pt x="651" y="1315" on="0"/>
        <pt x="652" y="1261" on="0"/>
        <pt x="645" y="1250" on="1"/>
        <pt x="527" y="1241" on="0"/>
        <pt x="517" y="1214" on="1"/>
        <pt x="499" y="1170" on="0"/>
        <pt x="501" y="1026" on="1"/>
      </contour>
    </TTGlyph>
    <TTGlyph name="Lacute" xMin="70" yMin="-6" xMax="1161" yMax="1738">
      <component glyphName="acutecomb.cap" x="923" y="0" flags="0x1004"/>
      <component glyphName="L" x="0" y="0" flags="0x1004"/>
    </TTGlyph>
    <TTGlyph name="Lcaron" xMin="70" yMin="-6" xMax="1178" yMax="1350">
      <component glyphName="uni0315" x="1570" y="-124" flags="0x1004"/>
      <component glyphName="L" x="0" y="0" flags="0x1004"/>
    </TTGlyph>
    <TTGlyph name="Lcommaaccent" xMin="70" yMin="-436" xMax="1161" yMax="1324">
      <component glyphName="uni0326" x="1157" y="0" flags="0x1004"/>
      <component glyphName="L" x="0" y="0" flags="0x1004"/>
    </TTGlyph>
    <TTGlyph name="Ldot" xMin="70" yMin="-6" xMax="1161" yMax="1324">
      <component glyphName="uni0307" x="1471" y="-492" flags="0x1004"/>
      <component glyphName="L" x="0" y="0" flags="0x1004"/>
    </TTGlyph>
    <TTGlyph name="Lslash" xMin="42" yMin="-6" xMax="1171" yMax="1324">
      <component glyphName="L" x="10" y="0" flags="0x1004"/>
      <component glyphName="Lslash.ref1" x="0" y="0" flags="0x1004"/>
    </TTGlyph>
    <TTGlyph name="Lslash.ref1" xMin="42" yMin="360" xMax="786" yMax="912">
      <contour>
        <pt x="80" y="360" on="1"/>
        <pt x="33" y="415" on="0"/>
        <pt x="42" y="424" on="1"/>
        <pt x="746" y="912" on="1"/>
        <pt x="798" y="860" on="0"/>
        <pt x="786" y="848" on="1"/>
      </contour>
    </TTGlyph>
    <TTGlyph name="M" xMin="33" yMin="-8" xMax="1760" yMax="1324">
      <contour>
        <pt x="126" y="1324" on="1"/>
        <pt x="342" y="1312" on="1"/>
        <pt x="552" y="1324" on="1"/>
        <pt x="699" y="999" on="0"/>
        <pt x="930" y="476" on="1"/>
        <pt x="936" y="472" on="0"/>
        <pt x="939" y="472" on="0"/>
        <pt x="946" y="482" on="0"/>
        <pt x="1096" y="852" on="0"/>
        <pt x="1146" y="991" on="1"/>
        <pt x="1211" y="1171" on="0"/>
        <pt x="1238" y="1279" on="1"/>
        <pt x="1248" y="1316" on="1"/>
        <pt x="1302" y="1310" on="0"/>
        <pt x="1464" y="1310" on="1"/>
        <pt x="1698" y="1324" on="1"/>
        <pt x="1705" y="1317" on="0"/>
        <pt x="1713" y="1261" on="0"/>
        <pt x="1706" y="1248" on="1"/>
        <pt x="1688" y="1248" on="0"/>
        <pt x="1615" y="1235" on="0"/>
        <pt x="1600" y="1224" on="1"/>
        <pt x="1572" y="1205" on="0"/>
        <pt x="1576" y="1101" on="0"/>
        <pt x="1597" y="451" on="0"/>
        <pt x="1604" y="300" on="0"/>
        <pt x="1606" y="258" on="0"/>
        <pt x="1607" y="247" on="0"/>
        <pt x="1609" y="211" on="0"/>
        <pt x="1611" y="198" on="0"/>
        <pt x="1614" y="168" on="0"/>
        <pt x="1617" y="152" on="0"/>
        <pt x="1619" y="140" on="1"/>
        <pt x="1622" y="124" on="0"/>
        <pt x="1638" y="84" on="0"/>
        <pt x="1730" y="66" on="0"/>
        <pt x="1756" y="66" on="1"/>
        <pt x="1771" y="32" on="0"/>
        <pt x="1760" y="-8" on="1"/>
        <pt x="1488" y="8" on="1"/>
        <pt x="1174" y="-8" on="1"/>
        <pt x="1168" y="-2" on="0"/>
        <pt x="1165" y="54" on="0"/>
        <pt x="1170" y="66" on="1"/>
        <pt x="1200" y="66" on="0"/>
        <pt x="1298" y="86" on="0"/>
        <pt x="1326" y="130" on="0"/>
        <pt x="1326" y="260" on="0"/>
        <pt x="1324" y="296" on="1"/>
        <pt x="1304" y="994" on="1"/>
        <pt x="1304" y="1046" on="0"/>
        <pt x="1290" y="1046" on="1"/>
        <pt x="1286" y="1046" on="0"/>
        <pt x="1280" y="1032" on="1"/>
        <pt x="928" y="80" on="1"/>
        <pt x="921" y="60" on="0"/>
        <pt x="866" y="-4" on="0"/>
        <pt x="836" y="-4" on="0"/>
        <pt x="824" y="0" on="1"/>
        <pt x="378" y="1046" on="1"/>
        <pt x="373" y="887" on="0"/>
        <pt x="364" y="599" on="0"/>
        <pt x="357" y="407" on="0"/>
        <pt x="354" y="322" on="1"/>
        <pt x="349" y="171" on="0"/>
        <pt x="360" y="130" on="1"/>
        <pt x="368" y="103" on="0"/>
        <pt x="506" y="66" on="0"/>
        <pt x="534" y="66" on="1"/>
        <pt x="549" y="34" on="0"/>
        <pt x="538" y="-8" on="1"/>
        <pt x="515" y="-7" on="0"/>
        <pt x="341" y="8" on="0"/>
        <pt x="238" y="8" on="0"/>
        <pt x="75" y="-6" on="0"/>
        <pt x="40" y="-8" on="1"/>
        <pt x="34" y="2" on="0"/>
        <pt x="33" y="49" on="0"/>
        <pt x="38" y="64" on="1"/>
        <pt x="71" y="64" on="0"/>
        <pt x="194" y="102" on="0"/>
        <pt x="208" y="136" on="1"/>
        <pt x="213" y="149" on="0"/>
        <pt x="230" y="281" on="0"/>
        <pt x="237" y="415" on="0"/>
        <pt x="252" y="791" on="0"/>
        <pt x="265" y="1137" on="0"/>
        <pt x="266" y="1192" on="0"/>
        <pt x="245" y="1221" on="0"/>
        <pt x="154" y="1250" on="0"/>
        <pt x="126" y="1250" on="1"/>
        <pt x="118" y="1263" on="0"/>
        <pt x="122" y="1320" on="0"/>
      </contour>
    </TTGlyph>
    <TTGlyph name="N" xMin="57" yMin="-10" xMax="1481" yMax="1326">
      <contour>
        <pt x="981" y="1252" on="1"/>
        <pt x="974" y="1252" on="0"/>
        <pt x="976" y="1318" on="0"/>
        <pt x="981" y="1326" on="1"/>
        <pt x="1017" y="1324" on="0"/>
        <pt x="1174" y="1310" on="0"/>
        <pt x="1276" y="1310" on="0"/>
        <pt x="1454" y="1325" on="0"/>
        <pt x="1477" y="1326" on="1"/>
        <pt x="1481" y="1314" on="0"/>
        <pt x="1481" y="1263" on="0"/>
        <pt x="1473" y="1250" on="1"/>
        <pt x="1410" y="1250" on="0"/>
        <pt x="1314" y="1223" on="0"/>
        <pt x="1300" y="1184" on="0"/>
        <pt x="1287" y="1016" on="0"/>
        <pt x="1287" y="958" on="1"/>
        <pt x="1287" y="278" on="1"/>
        <pt x="1287" y="206" on="0"/>
        <pt x="1295" y="-2" on="1"/>
        <pt x="1287" y="-10" on="0"/>
        <pt x="1218" y="-10" on="0"/>
        <pt x="1183" y="36" on="1"/>
        <pt x="369" y="1038" on="1"/>
        <pt x="369" y="314" on="1"/>
        <pt x="369" y="180" on="0"/>
        <pt x="391" y="120" on="1"/>
        <pt x="400" y="96" on="0"/>
        <pt x="525" y="68" on="0"/>
        <pt x="555" y="68" on="1"/>
        <pt x="563" y="55" on="0"/>
        <pt x="563" y="4" on="0"/>
        <pt x="559" y="-8" on="1"/>
        <pt x="536" y="-7" on="0"/>
        <pt x="358" y="8" on="0"/>
        <pt x="256" y="8" on="0"/>
        <pt x="99" y="-6" on="0"/>
        <pt x="63" y="-8" on="1"/>
        <pt x="53" y="8" on="0"/>
        <pt x="61" y="66" on="0"/>
        <pt x="63" y="66" on="1"/>
        <pt x="95" y="66" on="0"/>
        <pt x="213" y="95" on="0"/>
        <pt x="223" y="118" on="1"/>
        <pt x="247" y="172" on="0"/>
        <pt x="247" y="320" on="1"/>
        <pt x="247" y="1028" on="1"/>
        <pt x="247" y="1155" on="0"/>
        <pt x="211" y="1208" on="1"/>
        <pt x="199" y="1225" on="0"/>
        <pt x="104" y="1250" on="0"/>
        <pt x="79" y="1250" on="1"/>
        <pt x="71" y="1250" on="0"/>
        <pt x="68" y="1316" on="0"/>
        <pt x="75" y="1324" on="1"/>
        <pt x="93" y="1323" on="0"/>
        <pt x="136" y="1319" on="1"/>
        <pt x="233" y="1310" on="0"/>
        <pt x="407" y="1310" on="0"/>
        <pt x="519" y="1324" on="1"/>
        <pt x="569" y="1222" on="0"/>
        <pt x="772" y="972" on="1"/>
        <pt x="846" y="880" on="0"/>
        <pt x="1098" y="575" on="0"/>
        <pt x="1161" y="496" on="1"/>
        <pt x="1165" y="510" on="0"/>
        <pt x="1165" y="578" on="1"/>
        <pt x="1165" y="952" on="1"/>
        <pt x="1165" y="1162" on="0"/>
        <pt x="1143" y="1208" on="1"/>
        <pt x="1133" y="1231" on="0"/>
        <pt x="1019" y="1252" on="0"/>
      </contour>
    </TTGlyph>
    <TTGlyph name="Nacute" xMin="57" yMin="-10" xMax="1481" yMax="1738">
      <component glyphName="acutecomb.cap" x="1389" y="0" flags="0x1004"/>
      <component glyphName="N" x="0" y="0" flags="0x1004"/>
    </TTGlyph>
    <TTGlyph name="Ncaron" xMin="57" yMin="-10" xMax="1481" yMax="1738">
      <component glyphName="uni030C.cap" x="429" y="52" flags="0x1004"/>
      <component glyphName="N" x="0" y="0" flags="0x1004"/>
    </TTGlyph>
    <TTGlyph name="Ncommaaccent" xMin="57" yMin="-436" xMax="1481" yMax="1326">
      <component glyphName="uni0326" x="1335" y="0" flags="0x1004"/>
      <component glyphName="N" x="0" y="0" flags="0x1004"/>
    </TTGlyph>
    <TTGlyph name="Ntilde" xMin="57" yMin="-10" xMax="1481" yMax="1708">
      <component glyphName="tildecomb.cap" x="1265" y="10" flags="0x1004"/>
      <component glyphName="N" x="0" y="0" flags="0x1004"/>
    </TTGlyph>
    <TTGlyph name="O" xMin="80" yMin="-20" xMax="1440" yMax="1334">
      <contour>
        <pt x="939" y="1168" on="0"/>
        <pt x="798" y="1248" on="0"/>
        <pt x="644" y="1248" on="0"/>
        <pt x="535" y="1185" on="0"/>
        <pt x="465" y="1083" on="0"/>
        <pt x="442" y="1014" on="1"/>
        <pt x="400" y="888" on="0"/>
        <pt x="400" y="647" on="0"/>
        <pt x="419" y="494" on="0"/>
        <pt x="457" y="344" on="0"/>
        <pt x="522" y="218" on="0"/>
        <pt x="565" y="170" on="1"/>
        <pt x="657" y="66" on="0"/>
        <pt x="802" y="66" on="1"/>
        <pt x="997" y="66" on="0"/>
        <pt x="1076" y="298" on="1"/>
        <pt x="1120" y="424" on="0"/>
        <pt x="1120" y="679" on="0"/>
        <pt x="1093" y="862" on="0"/>
        <pt x="1031" y="1037" on="0"/>
      </contour>
      <contour>
        <pt x="630" y="1334" on="0"/>
        <pt x="890" y="1334" on="0"/>
        <pt x="1139" y="1226" on="0"/>
        <pt x="1326" y="1046" on="0"/>
        <pt x="1440" y="793" on="0"/>
        <pt x="1440" y="519" on="0"/>
        <pt x="1326" y="267" on="0"/>
        <pt x="1139" y="87" on="0"/>
        <pt x="890" y="-20" on="0"/>
        <pt x="630" y="-20" on="0"/>
        <pt x="381" y="87" on="0"/>
        <pt x="194" y="267" on="0"/>
        <pt x="80" y="519" on="0"/>
        <pt x="80" y="793" on="0"/>
        <pt x="194" y="1046" on="0"/>
        <pt x="381" y="1226" on="0"/>
      </contour>
    </TTGlyph>
    <TTGlyph name="OE" xMin="80" yMin="-6" xMax="1986" yMax="1328">
      <contour>
        <pt x="754" y="1326" on="1"/>
        <pt x="1188" y="1314" on="1"/>
        <pt x="1320" y="1314" on="0"/>
        <pt x="1838" y="1328" on="1"/>
        <pt x="1847" y="1264" on="0"/>
        <pt x="1891" y="1058" on="0"/>
        <pt x="1896" y="1032" on="1"/>
        <pt x="1886" y="1022" on="0"/>
        <pt x="1824" y="1022" on="0"/>
        <pt x="1818" y="1038" on="1"/>
        <pt x="1760" y="1191" on="0"/>
        <pt x="1680" y="1225" on="1"/>
        <pt x="1646" y="1240" on="0"/>
        <pt x="1602" y="1240" on="1"/>
        <pt x="1436" y="1240" on="1"/>
        <pt x="1347" y="1240" on="0"/>
        <pt x="1326" y="1192" on="0"/>
        <pt x="1326" y="1094" on="1"/>
        <pt x="1326" y="736" on="1"/>
        <pt x="1326" y="727" on="0"/>
        <pt x="1378" y="714" on="0"/>
        <pt x="1412" y="714" on="1"/>
        <pt x="1518" y="714" on="1"/>
        <pt x="1606" y="714" on="0"/>
        <pt x="1670" y="766" on="0"/>
        <pt x="1694" y="854" on="1"/>
        <pt x="1697" y="870" on="0"/>
        <pt x="1746" y="870" on="0"/>
        <pt x="1756" y="860" on="1"/>
        <pt x="1756" y="476" on="1"/>
        <pt x="1748" y="468" on="0"/>
        <pt x="1695" y="468" on="0"/>
        <pt x="1692" y="484" on="1"/>
        <pt x="1666" y="586" on="0"/>
        <pt x="1588" y="620" on="0"/>
        <pt x="1326" y="620" on="0"/>
        <pt x="1326" y="592" on="1"/>
        <pt x="1326" y="282" on="1"/>
        <pt x="1326" y="164" on="0"/>
        <pt x="1342" y="124" on="1"/>
        <pt x="1350" y="105" on="0"/>
        <pt x="1428" y="84" on="0"/>
        <pt x="1472" y="84" on="1"/>
        <pt x="1604" y="84" on="1"/>
        <pt x="1724" y="84" on="0"/>
        <pt x="1848" y="208" on="0"/>
        <pt x="1898" y="340" on="1"/>
        <pt x="1901" y="352" on="0"/>
        <pt x="1922" y="352" on="1"/>
        <pt x="1974" y="352" on="0"/>
        <pt x="1986" y="340" on="1"/>
        <pt x="1982" y="328" on="0"/>
        <pt x="1943" y="220" on="0"/>
        <pt x="1926" y="170" on="0"/>
        <pt x="1912" y="127" on="1"/>
        <pt x="1886" y="48" on="0"/>
        <pt x="1878" y="-4" on="1"/>
        <pt x="1446" y="-4" on="0"/>
        <pt x="1176" y="-5" on="1"/>
        <pt x="951" y="-6" on="1"/>
        <pt x="897" y="-6" on="1"/>
        <pt x="897" y="-6" on="0"/>
        <pt x="897" y="-6" on="1"/>
        <pt x="948" y="-6" on="1"/>
        <pt x="948" y="-6" on="0"/>
        <pt x="948" y="-6" on="1"/>
        <pt x="758" y="-6" on="1"/>
        <pt x="583" y="-6" on="0"/>
        <pt x="272" y="167" on="0"/>
        <pt x="80" y="474" on="0"/>
        <pt x="80" y="838" on="0"/>
        <pt x="270" y="1149" on="0"/>
        <pt x="580" y="1326" on="0"/>
      </contour>
      <contour>
        <pt x="706" y="1244" on="1"/>
        <pt x="621" y="1244" on="0"/>
        <pt x="492" y="1152" on="0"/>
        <pt x="455" y="1075" on="1"/>
        <pt x="382" y="923" on="0"/>
        <pt x="382" y="726" on="1"/>
        <pt x="382" y="404" on="0"/>
        <pt x="521" y="215" on="1"/>
        <pt x="568" y="151" on="0"/>
        <pt x="710" y="74" on="0"/>
        <pt x="782" y="74" on="1"/>
        <pt x="952" y="74" on="0"/>
        <pt x="1004" y="138" on="1"/>
        <pt x="1046" y="189" on="0"/>
        <pt x="1046" y="298" on="1"/>
        <pt x="1046" y="962" on="1"/>
        <pt x="1046" y="1095" on="0"/>
        <pt x="904" y="1244" on="0"/>
      </contour>
    </TTGlyph>
    <TTGlyph name="Oacute" xMin="80" yMin="-20" xMax="1440" yMax="1738">
      <component glyphName="acutecomb.cap" x="1352" y="0" flags="0x1004"/>
      <component glyphName="O" x="0" y="0" flags="0x1004"/>
    </TTGlyph>
    <TTGlyph name="Obreve" xMin="80" yMin="-20" xMax="1440" yMax="1654">
      <component glyphName="uni0306.cap" x="1272" y="0" flags="0x1004"/>
      <component glyphName="O" x="0" y="0" flags="0x1004"/>
    </TTGlyph>
    <TTGlyph name="Ocircumflex" xMin="80" yMin="-20" xMax="1440" yMax="1740">
      <component glyphName="uni0302.cap" x="1272" y="4" flags="0x1004"/>
      <component glyphName="O" x="0" y="0" flags="0x1004"/>
    </TTGlyph>
    <TTGlyph name="Odieresis" xMin="80" yMin="-20" xMax="1440" yMax="1728">
      <component glyphName="uni0308.cap" x="374" y="24" flags="0x1004"/>
      <component glyphName="O" x="0" y="0" flags="0x1004"/>
    </TTGlyph>
    <TTGlyph name="Ograve" xMin="80" yMin="-20" xMax="1440" yMax="1738">
      <component glyphName="gravecomb.cap" x="1174" y="0" flags="0x1004"/>
      <component glyphName="O" x="0" y="0" flags="0x1004"/>
    </TTGlyph>
    <TTGlyph name="Ohungarumlaut" xMin="80" yMin="-20" xMax="1440" yMax="1738">
      <component glyphName="acutecomb.cap" x="1268" y="0" flags="0x1004"/>
      <component glyphName="acutecomb.cap" x="1604" y="0" flags="0x1004"/>
      <component glyphName="O" x="0" y="0" flags="0x1004"/>
    </TTGlyph>
    <TTGlyph name="Omacron" xMin="80" yMin="-20" xMax="1440" yMax="1574">
      <component glyphName="uni0304.cap" x="1278" y="22" flags="0x1004"/>
      <component glyphName="O" x="0" y="0" flags="0x1004"/>
    </TTGlyph>
    <TTGlyph name="Oslash" xMin="80" yMin="-36" xMax="1440" yMax="1352">
      <component glyphName="O" x="0" y="0" flags="0x1004"/>
      <component glyphName="Oslash.ref1" x="0" y="0" flags="0x1004"/>
    </TTGlyph>
    <TTGlyph name="Oslash.ref1" xMin="328" yMin="-36" xMax="1158" yMax="1352">
      <contour>
        <pt x="1082" y="1352" on="1"/>
        <pt x="1083" y="1352" on="0"/>
        <pt x="1095" y="1347" on="0"/>
        <pt x="1103" y="1344" on="0"/>
        <pt x="1117" y="1339" on="0"/>
        <pt x="1122" y="1336" on="1"/>
        <pt x="1155" y="1320" on="0"/>
        <pt x="1159" y="1312" on="0"/>
        <pt x="1158" y="1310" on="1"/>
        <pt x="404" y="-36" on="1"/>
        <pt x="324" y="-6" on="0"/>
        <pt x="328" y="8" on="1"/>
      </contour>
    </TTGlyph>
    <TTGlyph name="Otilde" xMin="80" yMin="-20" xMax="1440" yMax="1708">
      <component glyphName="tildecomb.cap" x="1260" y="10" flags="0x1004"/>
      <component glyphName="O" x="0" y="0" flags="0x1004"/>
    </TTGlyph>
    <TTGlyph name="P" xMin="70" yMin="-8" xMax="1131" yMax="1320">
      <contour>
        <pt x="363" y="1314" on="1"/>
        <pt x="671" y="1320" on="1"/>
        <pt x="942" y="1320" on="0"/>
        <pt x="1068" y="1156" on="1"/>
        <pt x="1131" y="1074" on="0"/>
        <pt x="1131" y="849" on="0"/>
        <pt x="1013" y="667" on="0"/>
        <pt x="832" y="574" on="0"/>
        <pt x="729" y="574" on="1"/>
        <pt x="681" y="574" on="0"/>
        <pt x="606" y="605" on="0"/>
        <pt x="576" y="635" on="0"/>
        <pt x="576" y="684" on="0"/>
        <pt x="583" y="684" on="1"/>
        <pt x="610" y="676" on="0"/>
        <pt x="739" y="676" on="0"/>
        <pt x="833" y="821" on="0"/>
        <pt x="833" y="1059" on="0"/>
        <pt x="708" y="1240" on="0"/>
        <pt x="522" y="1240" on="0"/>
        <pt x="501" y="1192" on="0"/>
        <pt x="501" y="1094" on="1"/>
        <pt x="501" y="290" on="1"/>
        <pt x="501" y="142" on="0"/>
        <pt x="517" y="102" on="1"/>
        <pt x="527" y="75" on="0"/>
        <pt x="645" y="66" on="1"/>
        <pt x="652" y="55" on="0"/>
        <pt x="651" y="1" on="0"/>
        <pt x="645" y="-8" on="1"/>
        <pt x="508" y="6" on="0"/>
        <pt x="214" y="6" on="0"/>
        <pt x="77" y="-8" on="1"/>
        <pt x="71" y="1" on="0"/>
        <pt x="70" y="55" on="0"/>
        <pt x="77" y="66" on="1"/>
        <pt x="195" y="75" on="0"/>
        <pt x="205" y="102" on="1"/>
        <pt x="221" y="142" on="0"/>
        <pt x="221" y="290" on="1"/>
        <pt x="221" y="1026" on="1"/>
        <pt x="221" y="1174" on="0"/>
        <pt x="205" y="1214" on="1"/>
        <pt x="196" y="1237" on="0"/>
        <pt x="77" y="1246" on="1"/>
        <pt x="70" y="1257" on="0"/>
        <pt x="71" y="1311" on="0"/>
        <pt x="77" y="1320" on="1"/>
        <pt x="167" y="1314" on="0"/>
      </contour>
    </TTGlyph>
    <TTGlyph name="Q" xMin="80" yMin="-286" xMax="1602" yMax="1334">
      <contour>
        <pt x="630" y="1334" on="0"/>
        <pt x="890" y="1334" on="0"/>
        <pt x="1139" y="1226" on="0"/>
        <pt x="1326" y="1046" on="0"/>
        <pt x="1440" y="793" on="0"/>
        <pt x="1440" y="656" on="1"/>
        <pt x="1440" y="437" on="0"/>
        <pt x="1168" y="82" on="0"/>
        <pt x="964" y="14" on="1"/>
        <pt x="1011" y="-9" on="0"/>
        <pt x="1148" y="-86" on="0"/>
        <pt x="1182" y="-102" on="1"/>
        <pt x="1278" y="-148" on="0"/>
        <pt x="1410" y="-148" on="1"/>
        <pt x="1470" y="-148" on="0"/>
        <pt x="1548" y="-132" on="0"/>
        <pt x="1562" y="-132" on="0"/>
        <pt x="1576" y="-140" on="1"/>
        <pt x="1594" y="-149" on="0"/>
        <pt x="1602" y="-168" on="1"/>
        <pt x="1513" y="-215" on="0"/>
        <pt x="1278" y="-286" on="0"/>
        <pt x="1131" y="-286" on="0"/>
        <pt x="1006" y="-240" on="0"/>
        <pt x="894" y="-168" on="0"/>
        <pt x="841" y="-130" on="1"/>
        <pt x="704" y="-32" on="0"/>
        <pt x="602" y="0" on="1"/>
        <pt x="381" y="58" on="0"/>
        <pt x="80" y="424" on="0"/>
        <pt x="80" y="656" on="1"/>
        <pt x="80" y="793" on="0"/>
        <pt x="194" y="1046" on="0"/>
        <pt x="381" y="1226" on="0"/>
      </contour>
      <contour>
        <pt x="939" y="1168" on="0"/>
        <pt x="798" y="1248" on="0"/>
        <pt x="644" y="1248" on="0"/>
        <pt x="535" y="1185" on="0"/>
        <pt x="465" y="1083" on="0"/>
        <pt x="442" y="1014" on="1"/>
        <pt x="400" y="888" on="0"/>
        <pt x="400" y="647" on="0"/>
        <pt x="419" y="494" on="0"/>
        <pt x="457" y="344" on="0"/>
        <pt x="522" y="218" on="0"/>
        <pt x="565" y="170" on="1"/>
        <pt x="657" y="66" on="0"/>
        <pt x="802" y="66" on="1"/>
        <pt x="997" y="66" on="0"/>
        <pt x="1076" y="298" on="1"/>
        <pt x="1120" y="424" on="0"/>
        <pt x="1120" y="679" on="0"/>
        <pt x="1093" y="862" on="0"/>
        <pt x="1031" y="1037" on="0"/>
      </contour>
    </TTGlyph>
    <TTGlyph name="R" xMin="70" yMin="-16" xMax="1464" yMax="1320">
      <contour>
        <pt x="363" y="1314" on="1"/>
        <pt x="671" y="1320" on="1"/>
        <pt x="866" y="1320" on="0"/>
        <pt x="1109" y="1130" on="0"/>
        <pt x="1109" y="956" on="1"/>
        <pt x="1109" y="898" on="0"/>
        <pt x="1052" y="783" on="0"/>
        <pt x="1009" y="741" on="1"/>
        <pt x="917" y="651" on="0"/>
        <pt x="837" y="632" on="1"/>
        <pt x="967" y="458" on="0"/>
        <pt x="1087" y="310" on="1"/>
        <pt x="1127" y="260" on="1"/>
        <pt x="1262" y="89" on="0"/>
        <pt x="1432" y="68" on="1"/>
        <pt x="1448" y="66" on="0"/>
        <pt x="1459" y="66" on="1"/>
        <pt x="1465" y="53" on="0"/>
        <pt x="1462" y="-2" on="0"/>
        <pt x="1459" y="-8" on="1"/>
        <pt x="1343" y="-16" on="0"/>
        <pt x="1218" y="-16" on="1"/>
        <pt x="1002" y="-16" on="0"/>
        <pt x="891" y="134" on="1"/>
        <pt x="567" y="568" on="1"/>
        <pt x="547" y="598" on="0"/>
        <pt x="531" y="598" on="1"/>
        <pt x="501" y="598" on="1"/>
        <pt x="501" y="290" on="1"/>
        <pt x="501" y="142" on="0"/>
        <pt x="517" y="102" on="1"/>
        <pt x="527" y="75" on="0"/>
        <pt x="645" y="66" on="1"/>
        <pt x="652" y="55" on="0"/>
        <pt x="651" y="1" on="0"/>
        <pt x="645" y="-8" on="1"/>
        <pt x="508" y="6" on="0"/>
        <pt x="214" y="6" on="0"/>
        <pt x="77" y="-8" on="1"/>
        <pt x="71" y="1" on="0"/>
        <pt x="70" y="55" on="0"/>
        <pt x="77" y="66" on="1"/>
        <pt x="195" y="75" on="0"/>
        <pt x="205" y="102" on="1"/>
        <pt x="221" y="142" on="0"/>
        <pt x="221" y="290" on="1"/>
        <pt x="221" y="1026" on="1"/>
        <pt x="221" y="1174" on="0"/>
        <pt x="205" y="1214" on="1"/>
        <pt x="196" y="1237" on="0"/>
        <pt x="77" y="1246" on="1"/>
        <pt x="70" y="1257" on="0"/>
        <pt x="71" y="1311" on="0"/>
        <pt x="77" y="1320" on="1"/>
        <pt x="167" y="1314" on="0"/>
      </contour>
      <contour>
        <pt x="811" y="936" on="1"/>
        <pt x="811" y="1156" on="0"/>
        <pt x="711" y="1216" on="1"/>
        <pt x="670" y="1240" on="0"/>
        <pt x="522" y="1240" on="0"/>
        <pt x="501" y="1192" on="0"/>
        <pt x="501" y="1094" on="1"/>
        <pt x="501" y="676" on="1"/>
        <pt x="593" y="676" on="1"/>
        <pt x="681" y="676" on="0"/>
        <pt x="811" y="824" on="0"/>
      </contour>
    </TTGlyph>
    <TTGlyph name="Racute" xMin="70" yMin="-16" xMax="1464" yMax="1738">
      <component glyphName="acutecomb.cap" x="1211" y="0" flags="0x1004"/>
      <component glyphName="R" x="0" y="0" flags="0x1004"/>
    </TTGlyph>
    <TTGlyph name="Rcaron" xMin="70" yMin="-16" xMax="1464" yMax="1738">
      <component glyphName="uni030C.cap" x="223" y="52" flags="0x1004"/>
      <component glyphName="R" x="0" y="0" flags="0x1004"/>
    </TTGlyph>
    <TTGlyph name="Rcommaaccent" xMin="70" yMin="-436" xMax="1464" yMax="1320">
      <component glyphName="uni0326" x="1301" y="0" flags="0x1004"/>
      <component glyphName="R" x="0" y="0" flags="0x1004"/>
    </TTGlyph>
    <TTGlyph name="S" xMin="94" yMin="-20" xMax="958" yMax="1340">
      <contour>
        <pt x="870" y="1284" on="1"/>
        <pt x="882" y="1158" on="0"/>
        <pt x="892" y="952" on="1"/>
        <pt x="883" y="940" on="0"/>
        <pt x="870" y="940" on="1"/>
        <pt x="814" y="940" on="0"/>
        <pt x="810" y="954" on="1"/>
        <pt x="798" y="1047" on="0"/>
        <pt x="730" y="1146" on="1"/>
        <pt x="697" y="1194" on="0"/>
        <pt x="599" y="1256" on="0"/>
        <pt x="475" y="1256" on="0"/>
        <pt x="374" y="1174" on="0"/>
        <pt x="374" y="1082" on="1"/>
        <pt x="374" y="968" on="0"/>
        <pt x="586" y="816" on="1"/>
        <pt x="614" y="795" on="0"/>
        <pt x="672" y="757" on="0"/>
        <pt x="736" y="715" on="0"/>
        <pt x="756" y="701" on="0"/>
        <pt x="814" y="659" on="0"/>
        <pt x="826" y="648" on="1"/>
        <pt x="860" y="613" on="1"/>
        <pt x="883" y="590" on="0"/>
        <pt x="903" y="555" on="0"/>
        <pt x="934" y="501" on="0"/>
        <pt x="940" y="476" on="1"/>
        <pt x="958" y="407" on="0"/>
        <pt x="958" y="350" on="1"/>
        <pt x="958" y="244" on="0"/>
        <pt x="831" y="71" on="0"/>
        <pt x="633" y="-20" on="0"/>
        <pt x="365" y="-20" on="0"/>
        <pt x="142" y="32" on="1"/>
        <pt x="110" y="170" on="0"/>
        <pt x="94" y="372" on="1"/>
        <pt x="100" y="380" on="0"/>
        <pt x="143" y="400" on="0"/>
        <pt x="175" y="400" on="0"/>
        <pt x="178" y="384" on="1"/>
        <pt x="193" y="292" on="0"/>
        <pt x="278" y="184" on="1"/>
        <pt x="319" y="133" on="0"/>
        <pt x="438" y="64" on="0"/>
        <pt x="586" y="64" on="0"/>
        <pt x="696" y="158" on="0"/>
        <pt x="696" y="258" on="1"/>
        <pt x="696" y="335" on="0"/>
        <pt x="628" y="406" on="1"/>
        <pt x="564" y="473" on="0"/>
        <pt x="475" y="534" on="0"/>
        <pt x="440" y="557" on="1"/>
        <pt x="400" y="584" on="1"/>
        <pt x="277" y="666" on="0"/>
        <pt x="236" y="704" on="1"/>
        <pt x="108" y="818" on="0"/>
        <pt x="108" y="978" on="1"/>
        <pt x="108" y="1077" on="0"/>
        <pt x="235" y="1247" on="0"/>
        <pt x="431" y="1340" on="0"/>
        <pt x="609" y="1340" on="0"/>
        <pt x="764" y="1309" on="0"/>
      </contour>
    </TTGlyph>
    <TTGlyph name="Sacute" xMin="94" yMin="-20" xMax="958" yMax="1744">
      <component glyphName="acutecomb.cap" x="1142" y="6" flags="0x1004"/>
      <component glyphName="S" x="0" y="0" flags="0x1004"/>
    </TTGlyph>
    <TTGlyph name="Scaron" xMin="94" yMin="-20" xMax="958" yMax="1744">
      <component glyphName="uni030C.cap" x="186" y="58" flags="0x1004"/>
      <component glyphName="S" x="0" y="0" flags="0x1004"/>
    </TTGlyph>
    <TTGlyph name="Scedilla" xMin="94" yMin="-338" xMax="958" yMax="1340">
      <component glyphName="uni0327.cap" x="38" y="-4" flags="0x1004"/>
      <component glyphName="S" x="0" y="0" flags="0x1004"/>
    </TTGlyph>
    <TTGlyph name="Scircumflex" xMin="94" yMin="-20" xMax="958" yMax="1746">
      <component glyphName="uni0302.cap" x="1046" y="10" flags="0x1004"/>
      <component glyphName="S" x="0" y="0" flags="0x1004"/>
    </TTGlyph>
    <TTGlyph name="T" xMin="16" yMin="-8" xMax="1252" yMax="1352">
      <contour>
        <pt x="966" y="1314" on="1"/>
        <pt x="1070" y="1314" on="0"/>
        <pt x="1162" y="1352" on="0"/>
        <pt x="1186" y="1352" on="0"/>
        <pt x="1198" y="1346" on="1"/>
        <pt x="1252" y="978" on="1"/>
        <pt x="1248" y="974" on="0"/>
        <pt x="1208" y="964" on="0"/>
        <pt x="1176" y="964" on="0"/>
        <pt x="1174" y="974" on="1"/>
        <pt x="1159" y="1074" on="0"/>
        <pt x="1035" y="1226" on="0"/>
        <pt x="960" y="1226" on="1"/>
        <pt x="774" y="1226" on="1"/>
        <pt x="774" y="290" on="1"/>
        <pt x="774" y="142" on="0"/>
        <pt x="790" y="102" on="1"/>
        <pt x="800" y="75" on="0"/>
        <pt x="918" y="66" on="1"/>
        <pt x="925" y="55" on="0"/>
        <pt x="924" y="1" on="0"/>
        <pt x="918" y="-8" on="1"/>
        <pt x="782" y="6" on="0"/>
        <pt x="486" y="6" on="0"/>
        <pt x="350" y="-8" on="1"/>
        <pt x="344" y="1" on="0"/>
        <pt x="343" y="55" on="0"/>
        <pt x="350" y="66" on="1"/>
        <pt x="468" y="75" on="0"/>
        <pt x="478" y="102" on="1"/>
        <pt x="494" y="142" on="0"/>
        <pt x="494" y="290" on="1"/>
        <pt x="494" y="1226" on="1"/>
        <pt x="308" y="1226" on="1"/>
        <pt x="233" y="1226" on="0"/>
        <pt x="109" y="1074" on="0"/>
        <pt x="94" y="974" on="1"/>
        <pt x="92" y="964" on="0"/>
        <pt x="76" y="964" on="1"/>
        <pt x="30" y="964" on="0"/>
        <pt x="16" y="978" on="1"/>
        <pt x="70" y="1346" on="1"/>
        <pt x="82" y="1352" on="0"/>
        <pt x="106" y="1352" on="0"/>
        <pt x="128" y="1342" on="1"/>
        <pt x="196" y="1314" on="0"/>
        <pt x="302" y="1314" on="1"/>
      </contour>
    </TTGlyph>
    <TTGlyph name="T_h" xMin="16" yMin="-8" xMax="2215" yMax="1392">
      <contour>
        <pt x="1234" y="1036" on="1"/>
        <pt x="1234" y="1126" on="0"/>
        <pt x="1190" y="1166" on="1"/>
        <pt x="1143" y="1209" on="0"/>
        <pt x="1097" y="1216" on="1"/>
        <pt x="1031" y="1226" on="0"/>
        <pt x="960" y="1226" on="1"/>
        <pt x="774" y="1226" on="1"/>
        <pt x="774" y="290" on="1"/>
        <pt x="774" y="142" on="0"/>
        <pt x="790" y="102" on="1"/>
        <pt x="800" y="75" on="0"/>
        <pt x="918" y="66" on="1"/>
        <pt x="925" y="55" on="0"/>
        <pt x="924" y="1" on="0"/>
        <pt x="918" y="-8" on="1"/>
        <pt x="782" y="6" on="0"/>
        <pt x="486" y="6" on="0"/>
        <pt x="350" y="-8" on="1"/>
        <pt x="344" y="1" on="0"/>
        <pt x="343" y="55" on="0"/>
        <pt x="350" y="66" on="1"/>
        <pt x="468" y="75" on="0"/>
        <pt x="478" y="102" on="1"/>
        <pt x="494" y="142" on="0"/>
        <pt x="494" y="290" on="1"/>
        <pt x="494" y="1226" on="1"/>
        <pt x="308" y="1226" on="1"/>
        <pt x="233" y="1226" on="0"/>
        <pt x="109" y="1074" on="0"/>
        <pt x="94" y="974" on="1"/>
        <pt x="92" y="964" on="0"/>
        <pt x="76" y="964" on="1"/>
        <pt x="30" y="964" on="0"/>
        <pt x="16" y="978" on="1"/>
        <pt x="70" y="1346" on="1"/>
        <pt x="82" y="1352" on="0"/>
        <pt x="106" y="1352" on="0"/>
        <pt x="128" y="1342" on="1"/>
        <pt x="196" y="1314" on="0"/>
        <pt x="302" y="1314" on="1"/>
        <pt x="966" y="1314" on="1"/>
        <pt x="1146" y="1314" on="0"/>
        <pt x="1401" y="1372" on="1"/>
        <pt x="1486" y="1392" on="1"/>
        <pt x="1494" y="1391" on="0"/>
        <pt x="1514" y="1366" on="0"/>
        <pt x="1516" y="1358" on="1"/>
        <pt x="1494" y="1232" on="0"/>
        <pt x="1494" y="1152" on="1"/>
        <pt x="1494" y="744" on="1"/>
        <pt x="1494" y="734" on="0"/>
        <pt x="1496" y="732" on="1"/>
        <pt x="1500" y="732" on="0"/>
        <pt x="1510" y="742" on="1"/>
        <pt x="1556" y="795" on="0"/>
        <pt x="1727" y="892" on="0"/>
        <pt x="1860" y="892" on="0"/>
        <pt x="1956" y="853" on="0"/>
        <pt x="2017" y="782" on="0"/>
        <pt x="2034" y="722" on="1"/>
        <pt x="2064" y="616" on="0"/>
        <pt x="2064" y="420" on="1"/>
        <pt x="2064" y="290" on="1"/>
        <pt x="2064" y="142" on="0"/>
        <pt x="2080" y="102" on="1"/>
        <pt x="2090" y="75" on="0"/>
        <pt x="2208" y="66" on="1"/>
        <pt x="2215" y="55" on="0"/>
        <pt x="2214" y="1" on="0"/>
        <pt x="2208" y="-8" on="1"/>
        <pt x="2072" y="6" on="0"/>
        <pt x="1820" y="6" on="0"/>
        <pt x="1684" y="-8" on="1"/>
        <pt x="1678" y="1" on="0"/>
        <pt x="1677" y="55" on="0"/>
        <pt x="1684" y="66" on="1"/>
        <pt x="1777" y="73" on="0"/>
        <pt x="1804" y="142" on="0"/>
        <pt x="1804" y="290" on="1"/>
        <pt x="1804" y="448" on="1"/>
        <pt x="1804" y="730" on="0"/>
        <pt x="1670" y="730" on="1"/>
        <pt x="1613" y="730" on="0"/>
        <pt x="1494" y="650" on="0"/>
        <pt x="1494" y="618" on="1"/>
        <pt x="1494" y="290" on="1"/>
        <pt x="1494" y="142" on="0"/>
        <pt x="1510" y="102" on="1"/>
        <pt x="1521" y="74" on="0"/>
        <pt x="1624" y="66" on="1"/>
        <pt x="1631" y="55" on="0"/>
        <pt x="1630" y="1" on="0"/>
        <pt x="1624" y="-8" on="1"/>
        <pt x="1488" y="6" on="0"/>
        <pt x="1226" y="6" on="0"/>
        <pt x="1090" y="-8" on="1"/>
        <pt x="1084" y="1" on="0"/>
        <pt x="1083" y="55" on="0"/>
        <pt x="1090" y="66" on="1"/>
        <pt x="1208" y="75" on="0"/>
        <pt x="1218" y="102" on="1"/>
        <pt x="1234" y="142" on="0"/>
        <pt x="1234" y="290" on="1"/>
      </contour>
    </TTGlyph>
    <TTGlyph name="Tbar" xMin="16" yMin="-8" xMax="1252" yMax="1352">
      <component glyphName="T" x="0" y="0" flags="0x1004"/>
      <component glyphName="Tbar.ref1" x="0" y="0" flags="0x1004"/>
    </TTGlyph>
    <TTGlyph name="Tbar.ref1" xMin="276" yMin="616" xMax="990" yMax="696">
      <contour>
        <pt x="284" y="616" on="1"/>
        <pt x="273" y="616" on="0"/>
        <pt x="280" y="688" on="0"/>
        <pt x="286" y="696" on="1"/>
        <pt x="984" y="696" on="1"/>
        <pt x="990" y="696" on="0"/>
        <pt x="990" y="630" on="0"/>
        <pt x="984" y="616" on="1"/>
      </contour>
    </TTGlyph>
    <TTGlyph name="Tcaron" xMin="16" yMin="-8" xMax="1252" yMax="1752">
      <component glyphName="uni030C.cap" x="290" y="66" flags="0x1004"/>
      <component glyphName="T" x="0" y="0" flags="0x1004"/>
    </TTGlyph>
    <TTGlyph name="Tcommaaccent" xMin="16" yMin="-322" xMax="1252" yMax="1352">
      <component glyphName="uni0327.cap" x="132" y="12" flags="0x1004"/>
      <component glyphName="T" x="0" y="0" flags="0x1004"/>
    </TTGlyph>
    <TTGlyph name="Thorn" xMin="70" yMin="-8" xMax="1123" yMax="1324">
      <contour>
        <pt x="77" y="1324" on="1"/>
        <pt x="214" y="1310" on="0"/>
        <pt x="508" y="1310" on="0"/>
        <pt x="645" y="1324" on="1"/>
        <pt x="651" y="1315" on="0"/>
        <pt x="652" y="1261" on="0"/>
        <pt x="645" y="1250" on="1"/>
        <pt x="527" y="1241" on="0"/>
        <pt x="501" y="1176" on="0"/>
        <pt x="501" y="1078" on="1"/>
        <pt x="501" y="1034" on="1"/>
        <pt x="605" y="1038" on="0"/>
        <pt x="798" y="1038" on="0"/>
        <pt x="1000" y="957" on="0"/>
        <pt x="1123" y="793" on="0"/>
        <pt x="1123" y="566" on="0"/>
        <pt x="1010" y="385" on="0"/>
        <pt x="831" y="292" on="0"/>
        <pt x="729" y="292" on="1"/>
        <pt x="681" y="292" on="0"/>
        <pt x="606" y="323" on="0"/>
        <pt x="576" y="353" on="0"/>
        <pt x="576" y="402" on="0"/>
        <pt x="583" y="402" on="1"/>
        <pt x="610" y="394" on="0"/>
        <pt x="739" y="394" on="0"/>
        <pt x="839" y="540" on="0"/>
        <pt x="839" y="776" on="0"/>
        <pt x="709" y="958" on="0"/>
        <pt x="522" y="958" on="0"/>
        <pt x="511" y="934" on="1"/>
        <pt x="503" y="912" on="0"/>
        <pt x="502" y="837" on="1"/>
        <pt x="501" y="812" on="1"/>
        <pt x="501" y="290" on="1"/>
        <pt x="501" y="142" on="0"/>
        <pt x="517" y="102" on="1"/>
        <pt x="527" y="75" on="0"/>
        <pt x="645" y="66" on="1"/>
        <pt x="652" y="55" on="0"/>
        <pt x="651" y="1" on="0"/>
        <pt x="645" y="-8" on="1"/>
        <pt x="508" y="6" on="0"/>
        <pt x="214" y="6" on="0"/>
        <pt x="77" y="-8" on="1"/>
        <pt x="71" y="1" on="0"/>
        <pt x="70" y="55" on="0"/>
        <pt x="77" y="66" on="1"/>
        <pt x="195" y="75" on="0"/>
        <pt x="205" y="102" on="1"/>
        <pt x="221" y="142" on="0"/>
        <pt x="221" y="290" on="1"/>
        <pt x="221" y="1026" on="1"/>
        <pt x="221" y="1174" on="0"/>
        <pt x="205" y="1214" on="1"/>
        <pt x="195" y="1241" on="0"/>
        <pt x="77" y="1250" on="1"/>
        <pt x="70" y="1261" on="0"/>
        <pt x="71" y="1315" on="0"/>
      </contour>
    </TTGlyph>
    <TTGlyph name="ThreeDots.a" xMin="-244" yMin="-8" xMax="239" yMax="553">
      <contour>
        <pt x="-97" y="543" on="1"/>
        <pt x="-85" y="560" on="0"/>
        <pt x="-62" y="553" on="1"/>
        <pt x="22" y="523" on="0"/>
        <pt x="88" y="465" on="1"/>
        <pt x="105" y="448" on="0"/>
        <pt x="94" y="428" on="1"/>
        <pt x="-4" y="273" on="1"/>
        <pt x="-20" y="252" on="0"/>
        <pt x="-62" y="285" on="0"/>
        <pt x="-189" y="361" on="1"/>
        <pt x="-210" y="374" on="0"/>
        <pt x="-196" y="394" on="1"/>
      </contour>
      <contour>
        <pt x="48" y="314" on="1"/>
        <pt x="60" y="331" on="0"/>
        <pt x="83" y="324" on="1"/>
        <pt x="167" y="294" on="0"/>
        <pt x="233" y="236" on="1"/>
        <pt x="250" y="219" on="0"/>
        <pt x="239" y="199" on="1"/>
        <pt x="141" y="44" on="1"/>
        <pt x="126" y="22" on="0"/>
        <pt x="87" y="53" on="0"/>
        <pt x="12" y="99" on="1"/>
        <pt x="-52" y="-3" on="1"/>
        <pt x="-68" y="-24" on="0"/>
        <pt x="-110" y="9" on="0"/>
        <pt x="-237" y="85" on="1"/>
        <pt x="-258" y="98" on="0"/>
        <pt x="-244" y="119" on="1"/>
        <pt x="-145" y="267" on="1"/>
        <pt x="-121" y="301" on="0"/>
        <pt x="-10" y="228" on="1"/>
      </contour>
    </TTGlyph>
    <TTGlyph name="ThreeDots.b" xMin="-242" yMin="-268" xMax="241" yMax="293">
      <component glyphName="ThreeDots.a" x="2" y="-260" flags="0x1004"/>
    </TTGlyph>
    <TTGlyph name="ThreeDots.b.l" xMin="-242" yMin="-268" xMax="241" yMax="293">
      <component glyphName="ThreeDots.a" x="2" y="-260" flags="0x1004"/>
    </TTGlyph>
    <TTGlyph name="TwoDots.a" xMin="-256" yMin="-7" xMax="247" yMax="324">
      <contour>
        <pt x="56" y="314" on="1"/>
        <pt x="68" y="331" on="0"/>
        <pt x="91" y="324" on="1"/>
        <pt x="175" y="294" on="0"/>
        <pt x="241" y="236" on="1"/>
        <pt x="258" y="219" on="0"/>
        <pt x="247" y="199" on="1"/>
        <pt x="149" y="44" on="1"/>
        <pt x="133" y="23" on="0"/>
        <pt x="94" y="54" on="0"/>
        <pt x="5" y="108" on="1"/>
        <pt x="-64" y="-2" on="1"/>
        <pt x="-80" y="-23" on="0"/>
        <pt x="-122" y="10" on="0"/>
        <pt x="-249" y="86" on="1"/>
        <pt x="-270" y="99" on="0"/>
        <pt x="-256" y="120" on="1"/>
        <pt x="-157" y="268" on="1"/>
        <pt x="-145" y="285" on="0"/>
        <pt x="-122" y="278" on="1"/>
        <pt x="-60" y="256" on="0"/>
        <pt x="-8" y="219" on="1"/>
      </contour>
    </TTGlyph>
    <TTGlyph name="TwoDots.b" xMin="-252" yMin="-54" xMax="251" yMax="277">
      <component glyphName="TwoDots.a" x="4" y="-47" flags="0x1004"/>
    </TTGlyph>
    <TTGlyph name="TwoDots.b.l" xMin="-252" yMin="-54" xMax="251" yMax="277">
      <component glyphName="TwoDots.a" x="4" y="-47" flags="0x1004"/>
    </TTGlyph>
    <TTGlyph name="U" xMin="38" yMin="-18" xMax="1460" yMax="1324">
      <contour>
        <pt x="1219" y="1310" on="1"/>
        <pt x="1453" y="1324" on="1"/>
        <pt x="1459" y="1315" on="0"/>
        <pt x="1460" y="1261" on="0"/>
        <pt x="1453" y="1250" on="1"/>
        <pt x="1438" y="1250" on="0"/>
        <pt x="1418" y="1247" on="0"/>
        <pt x="1392" y="1245" on="0"/>
        <pt x="1374" y="1241" on="0"/>
        <pt x="1349" y="1236" on="0"/>
        <pt x="1331" y="1229" on="0"/>
        <pt x="1322" y="1224" on="1"/>
        <pt x="1305" y="1216" on="0"/>
        <pt x="1287" y="1173" on="0"/>
        <pt x="1271" y="1027" on="0"/>
        <pt x="1271" y="960" on="1"/>
        <pt x="1271" y="572" on="1"/>
        <pt x="1271" y="228" on="0"/>
        <pt x="1040" y="73" on="1"/>
        <pt x="904" y="-18" on="0"/>
        <pt x="723" y="-18" on="1"/>
        <pt x="592" y="-18" on="0"/>
        <pt x="371" y="71" on="0"/>
        <pt x="301" y="158" on="1"/>
        <pt x="189" y="299" on="0"/>
        <pt x="189" y="602" on="1"/>
        <pt x="189" y="1026" on="1"/>
        <pt x="189" y="1174" on="0"/>
        <pt x="173" y="1214" on="1"/>
        <pt x="163" y="1241" on="0"/>
        <pt x="45" y="1250" on="1"/>
        <pt x="38" y="1261" on="0"/>
        <pt x="39" y="1315" on="0"/>
        <pt x="45" y="1324" on="1"/>
        <pt x="182" y="1310" on="0"/>
        <pt x="476" y="1310" on="0"/>
        <pt x="613" y="1324" on="1"/>
        <pt x="619" y="1315" on="0"/>
        <pt x="620" y="1261" on="0"/>
        <pt x="613" y="1250" on="1"/>
        <pt x="495" y="1241" on="0"/>
        <pt x="485" y="1214" on="1"/>
        <pt x="469" y="1174" on="0"/>
        <pt x="469" y="1026" on="1"/>
        <pt x="469" y="660" on="1"/>
        <pt x="469" y="541" on="0"/>
        <pt x="487" y="391" on="0"/>
        <pt x="519" y="318" on="1"/>
        <pt x="602" y="126" on="0"/>
        <pt x="823" y="126" on="1"/>
        <pt x="951" y="126" on="0"/>
        <pt x="1045" y="240" on="1"/>
        <pt x="1147" y="364" on="0"/>
        <pt x="1147" y="618" on="1"/>
        <pt x="1147" y="958" on="1"/>
        <pt x="1147" y="1134" on="0"/>
        <pt x="1119" y="1202" on="1"/>
        <pt x="1103" y="1240" on="0"/>
        <pt x="969" y="1250" on="1"/>
        <pt x="962" y="1261" on="0"/>
        <pt x="963" y="1315" on="0"/>
        <pt x="969" y="1324" on="1"/>
        <pt x="1134" y="1310" on="0"/>
      </contour>
    </TTGlyph>
    <TTGlyph name="Uacute" xMin="38" yMin="-18" xMax="1460" yMax="1738">
      <component glyphName="acutecomb.cap" x="1337" y="0" flags="0x1004"/>
      <component glyphName="U" x="0" y="0" flags="0x1004"/>
    </TTGlyph>
    <TTGlyph name="Ubreve" xMin="38" yMin="-18" xMax="1460" yMax="1654">
      <component glyphName="uni0306.cap" x="1299" y="0" flags="0x1004"/>
      <component glyphName="U" x="0" y="0" flags="0x1004"/>
    </TTGlyph>
    <TTGlyph name="Ucircumflex" xMin="38" yMin="-18" xMax="1460" yMax="1740">
      <component glyphName="uni0302.cap" x="1297" y="4" flags="0x1004"/>
      <component glyphName="U" x="0" y="0" flags="0x1004"/>
    </TTGlyph>
    <TTGlyph name="Udieresis" xMin="38" yMin="-18" xMax="1460" yMax="1728">
      <component glyphName="uni0308.cap" x="401" y="24" flags="0x1004"/>
      <component glyphName="U" x="0" y="0" flags="0x1004"/>
    </TTGlyph>
    <TTGlyph name="Ugrave" xMin="38" yMin="-18" xMax="1460" yMax="1738">
      <component glyphName="gravecomb.cap" x="1231" y="0" flags="0x1004"/>
      <component glyphName="U" x="0" y="0" flags="0x1004"/>
    </TTGlyph>
    <TTGlyph name="Uhungarumlaut" xMin="38" yMin="-18" xMax="1460" yMax="1738">
      <component glyphName="acutecomb.cap" x="1229" y="0" flags="0x1004"/>
      <component glyphName="acutecomb.cap" x="1565" y="0" flags="0x1004"/>
      <component glyphName="U" x="0" y="0" flags="0x1004"/>
    </TTGlyph>
    <TTGlyph name="Umacron" xMin="38" yMin="-18" xMax="1460" yMax="1574">
      <component glyphName="uni0304.cap" x="1299" y="22" flags="0x1004"/>
      <component glyphName="U" x="0" y="0" flags="0x1004"/>
    </TTGlyph>
    <TTGlyph name="Uogonek" xMin="40" yMin="-436" xMax="1488" yMax="1324">
      <contour>
        <pt x="1259" y="1310" on="1"/>
        <pt x="1481" y="1324" on="1"/>
        <pt x="1487" y="1315" on="0"/>
        <pt x="1488" y="1261" on="0"/>
        <pt x="1481" y="1250" on="1"/>
        <pt x="1337" y="1239" on="0"/>
        <pt x="1327" y="1214" on="1"/>
        <pt x="1311" y="1174" on="0"/>
        <pt x="1311" y="1038" on="1"/>
        <pt x="1311" y="636" on="1"/>
        <pt x="1311" y="218" on="0"/>
        <pt x="1097" y="74" on="1"/>
        <pt x="1004" y="12" on="0"/>
        <pt x="875" y="-140" on="0"/>
        <pt x="875" y="-190" on="1"/>
        <pt x="875" y="-296" on="0"/>
        <pt x="973" y="-296" on="1"/>
        <pt x="1026" y="-296" on="0"/>
        <pt x="1123" y="-218" on="1"/>
        <pt x="1135" y="-218" on="0"/>
        <pt x="1135" y="-233" on="1"/>
        <pt x="1135" y="-269" on="0"/>
        <pt x="1107" y="-308" on="0"/>
        <pt x="1063" y="-351" on="0"/>
        <pt x="1030" y="-376" on="1"/>
        <pt x="953" y="-436" on="0"/>
        <pt x="819" y="-436" on="0"/>
        <pt x="727" y="-352" on="0"/>
        <pt x="727" y="-199" on="0"/>
        <pt x="841" y="-45" on="0"/>
        <pt x="933" y="8" on="1"/>
        <pt x="863" y="-10" on="0"/>
        <pt x="655" y="-10" on="0"/>
        <pt x="495" y="27" on="0"/>
        <pt x="350" y="116" on="0"/>
        <pt x="300" y="185" on="1"/>
        <pt x="191" y="335" on="0"/>
        <pt x="191" y="602" on="1"/>
        <pt x="191" y="1026" on="1"/>
        <pt x="191" y="1174" on="0"/>
        <pt x="175" y="1214" on="1"/>
        <pt x="165" y="1241" on="0"/>
        <pt x="47" y="1250" on="1"/>
        <pt x="40" y="1261" on="0"/>
        <pt x="41" y="1315" on="0"/>
        <pt x="47" y="1324" on="1"/>
        <pt x="184" y="1310" on="0"/>
        <pt x="478" y="1310" on="0"/>
        <pt x="615" y="1324" on="1"/>
        <pt x="621" y="1315" on="0"/>
        <pt x="622" y="1261" on="0"/>
        <pt x="615" y="1250" on="1"/>
        <pt x="497" y="1241" on="0"/>
        <pt x="487" y="1214" on="1"/>
        <pt x="471" y="1174" on="0"/>
        <pt x="471" y="1026" on="1"/>
        <pt x="471" y="660" on="1"/>
        <pt x="471" y="541" on="0"/>
        <pt x="489" y="391" on="0"/>
        <pt x="521" y="318" on="1"/>
        <pt x="599" y="138" on="0"/>
        <pt x="861" y="138" on="1"/>
        <pt x="1187" y="138" on="0"/>
        <pt x="1187" y="572" on="1"/>
        <pt x="1187" y="1026" on="1"/>
        <pt x="1187" y="1174" on="0"/>
        <pt x="1171" y="1214" on="1"/>
        <pt x="1161" y="1239" on="0"/>
        <pt x="1021" y="1250" on="1"/>
        <pt x="1014" y="1261" on="0"/>
        <pt x="1015" y="1315" on="0"/>
        <pt x="1021" y="1324" on="1"/>
        <pt x="1186" y="1310" on="0"/>
      </contour>
    </TTGlyph>
    <TTGlyph name="Uring" xMin="38" yMin="-18" xMax="1460" yMax="1850">
      <component glyphName="uni030A.cap" x="1309" y="0" flags="0x1004"/>
      <component glyphName="U" x="0" y="0" flags="0x1004"/>
    </TTGlyph>
    <TTGlyph name="Utilde" xMin="38" yMin="-18" xMax="1460" yMax="1714">
      <component glyphName="tildecomb" x="1281" y="464" flags="0x1004"/>
      <component glyphName="U" x="0" y="0" flags="0x1004"/>
    </TTGlyph>
    <TTGlyph name="V" xMin="-12" yMin="-22" xMax="1404" yMax="1324">
      <contour>
        <pt x="1173" y="1310" on="1"/>
        <pt x="1397" y="1324" on="1"/>
        <pt x="1403" y="1315" on="0"/>
        <pt x="1404" y="1261" on="0"/>
        <pt x="1397" y="1250" on="1"/>
        <pt x="1395" y="1250" on="0"/>
        <pt x="1370" y="1248" on="0"/>
        <pt x="1353" y="1247" on="0"/>
        <pt x="1324" y="1243" on="0"/>
        <pt x="1303" y="1238" on="0"/>
        <pt x="1291" y="1234" on="1"/>
        <pt x="1267" y="1227" on="0"/>
        <pt x="1230" y="1178" on="0"/>
        <pt x="1081" y="819" on="0"/>
        <pt x="813" y="185" on="0"/>
        <pt x="761" y="60" on="1"/>
        <pt x="749" y="33" on="0"/>
        <pt x="683" y="-22" on="0"/>
        <pt x="657" y="-22" on="0"/>
        <pt x="648" y="-15" on="0"/>
        <pt x="640" y="2" on="0"/>
        <pt x="637" y="6" on="1"/>
        <pt x="201" y="1020" on="1"/>
        <pt x="158" y="1125" on="0"/>
        <pt x="131" y="1184" on="1"/>
        <pt x="120" y="1208" on="0"/>
        <pt x="90" y="1224" on="1"/>
        <pt x="49" y="1245" on="0"/>
        <pt x="-5" y="1250" on="1"/>
        <pt x="-12" y="1261" on="0"/>
        <pt x="-11" y="1315" on="0"/>
        <pt x="-5" y="1324" on="1"/>
        <pt x="132" y="1310" on="0"/>
        <pt x="426" y="1310" on="0"/>
        <pt x="563" y="1324" on="1"/>
        <pt x="569" y="1315" on="0"/>
        <pt x="570" y="1261" on="0"/>
        <pt x="563" y="1250" on="1"/>
        <pt x="526" y="1250" on="0"/>
        <pt x="494" y="1241" on="0"/>
        <pt x="473" y="1236" on="0"/>
        <pt x="460" y="1228" on="0"/>
        <pt x="454" y="1223" on="1"/>
        <pt x="441" y="1213" on="0"/>
        <pt x="441" y="1158" on="0"/>
        <pt x="489" y="1046" on="1"/>
        <pt x="787" y="372" on="1"/>
        <pt x="1051" y="1037" on="0"/>
        <pt x="1078" y="1121" on="0"/>
        <pt x="1084" y="1141" on="1"/>
        <pt x="1095" y="1178" on="0"/>
        <pt x="1095" y="1202" on="1"/>
        <pt x="1095" y="1238" on="0"/>
        <pt x="935" y="1250" on="1"/>
        <pt x="928" y="1261" on="0"/>
        <pt x="929" y="1315" on="0"/>
        <pt x="935" y="1324" on="1"/>
        <pt x="1100" y="1310" on="0"/>
      </contour>
    </TTGlyph>
    <TTGlyph name="W" xMin="-12" yMin="-22" xMax="1929" yMax="1324">
      <contour>
        <pt x="1698" y="1310" on="1"/>
        <pt x="1922" y="1324" on="1"/>
        <pt x="1928" y="1315" on="0"/>
        <pt x="1929" y="1261" on="0"/>
        <pt x="1922" y="1250" on="1"/>
        <pt x="1920" y="1250" on="0"/>
        <pt x="1895" y="1248" on="0"/>
        <pt x="1878" y="1247" on="0"/>
        <pt x="1849" y="1243" on="0"/>
        <pt x="1828" y="1238" on="0"/>
        <pt x="1816" y="1234" on="1"/>
        <pt x="1792" y="1227" on="0"/>
        <pt x="1782" y="1214" on="1"/>
        <pt x="1731" y="1146" on="0"/>
        <pt x="1657" y="917" on="0"/>
        <pt x="1372" y="80" on="1"/>
        <pt x="1358" y="41" on="0"/>
        <pt x="1310" y="-22" on="0"/>
        <pt x="1274" y="-22" on="0"/>
        <pt x="1254" y="6" on="1"/>
        <pt x="924" y="836" on="1"/>
        <pt x="768" y="375" on="0"/>
        <pt x="670" y="88" on="1"/>
        <pt x="659" y="58" on="0"/>
        <pt x="616" y="-22" on="0"/>
        <pt x="582" y="-22" on="0"/>
        <pt x="562" y="6" on="1"/>
        <pt x="202" y="1020" on="1"/>
        <pt x="191" y="1053" on="0"/>
        <pt x="132" y="1184" on="1"/>
        <pt x="121" y="1208" on="0"/>
        <pt x="91" y="1224" on="1"/>
        <pt x="50" y="1245" on="0"/>
        <pt x="-4" y="1250" on="1"/>
        <pt x="-12" y="1261" on="0"/>
        <pt x="-11" y="1314" on="0"/>
        <pt x="-4" y="1324" on="1"/>
        <pt x="132" y="1310" on="0"/>
        <pt x="428" y="1310" on="0"/>
        <pt x="564" y="1324" on="1"/>
        <pt x="570" y="1315" on="0"/>
        <pt x="571" y="1261" on="0"/>
        <pt x="564" y="1250" on="1"/>
        <pt x="526" y="1250" on="0"/>
        <pt x="495" y="1241" on="0"/>
        <pt x="474" y="1236" on="0"/>
        <pt x="461" y="1228" on="0"/>
        <pt x="454" y="1223" on="1"/>
        <pt x="442" y="1213" on="0"/>
        <pt x="442" y="1187" on="0"/>
        <pt x="447" y="1163" on="0"/>
        <pt x="459" y="1128" on="0"/>
        <pt x="464" y="1116" on="1"/>
        <pt x="477" y="1080" on="1"/>
        <pt x="486" y="1056" on="0"/>
        <pt x="490" y="1046" on="1"/>
        <pt x="686" y="502" on="1"/>
        <pt x="904" y="1120" on="0"/>
        <pt x="963" y="1280" on="0"/>
        <pt x="998" y="1324" on="0"/>
        <pt x="1026" y="1324" on="0"/>
        <pt x="1038" y="1292" on="1"/>
        <pt x="1380" y="428" on="1"/>
        <pt x="1607" y="1139" on="0"/>
        <pt x="1616" y="1190" on="0"/>
        <pt x="1616" y="1202" on="1"/>
        <pt x="1616" y="1238" on="0"/>
        <pt x="1460" y="1250" on="1"/>
        <pt x="1453" y="1261" on="0"/>
        <pt x="1454" y="1315" on="0"/>
        <pt x="1460" y="1324" on="1"/>
        <pt x="1624" y="1310" on="0"/>
      </contour>
    </TTGlyph>
    <TTGlyph name="Wacute" xMin="-12" yMin="-22" xMax="1929" yMax="1738">
      <component glyphName="W" x="0" y="0" flags="0x1004"/>
      <component glyphName="acutecomb.cap" x="1537" y="0" flags="0x1004"/>
    </TTGlyph>
    <TTGlyph name="Wcircumflex" xMin="-12" yMin="-22" xMax="1929" yMax="1740">
      <component glyphName="uni0302.cap" x="1532" y="4" flags="0x1004"/>
      <component glyphName="W" x="0" y="0" flags="0x1004"/>
    </TTGlyph>
    <TTGlyph name="Wdieresis" xMin="-12" yMin="-22" xMax="1929" yMax="1736">
      <component glyphName="W" x="0" y="0" flags="0x1004"/>
      <component glyphName="uni0308.cap" x="599" y="32" flags="0x1004"/>
    </TTGlyph>
    <TTGlyph name="Wgrave" xMin="-12" yMin="-22" xMax="1929" yMax="1738">
      <component glyphName="W" x="0" y="0" flags="0x1004"/>
      <component glyphName="gravecomb.cap" x="1375" y="0" flags="0x1004"/>
    </TTGlyph>
    <TTGlyph name="X" xMin="-18" yMin="-8" xMax="1429" yMax="1324">
      <contour>
        <pt x="630" y="546" on="1"/>
        <pt x="338" y="160" on="0"/>
        <pt x="338" y="100" on="0"/>
        <pt x="447" y="66" on="0"/>
        <pt x="504" y="66" on="1"/>
        <pt x="511" y="56" on="0"/>
        <pt x="515" y="8" on="0"/>
        <pt x="510" y="-8" on="1"/>
        <pt x="312" y="4" on="0"/>
        <pt x="200" y="4" on="0"/>
        <pt x="113" y="0" on="0"/>
        <pt x="14" y="-7" on="0"/>
        <pt x="-10" y="-8" on="1"/>
        <pt x="-18" y="1" on="0"/>
        <pt x="-18" y="56" on="0"/>
        <pt x="-10" y="66" on="1"/>
        <pt x="83" y="66" on="0"/>
        <pt x="186" y="128" on="0"/>
        <pt x="208" y="158" on="1"/>
        <pt x="564" y="644" on="1"/>
        <pt x="284" y="1074" on="1"/>
        <pt x="278" y="1083" on="0"/>
        <pt x="247" y="1131" on="0"/>
        <pt x="229" y="1157" on="0"/>
        <pt x="216" y="1174" on="1"/>
        <pt x="193" y="1207" on="0"/>
        <pt x="157" y="1233" on="0"/>
        <pt x="65" y="1250" on="0"/>
        <pt x="40" y="1250" on="1"/>
        <pt x="32" y="1250" on="0"/>
        <pt x="32" y="1316" on="0"/>
        <pt x="40" y="1324" on="1"/>
        <pt x="334" y="1312" on="0"/>
        <pt x="400" y="1312" on="0"/>
        <pt x="640" y="1324" on="1"/>
        <pt x="644" y="1315" on="0"/>
        <pt x="643" y="1250" on="0"/>
        <pt x="636" y="1250" on="1"/>
        <pt x="606" y="1250" on="0"/>
        <pt x="531" y="1228" on="0"/>
        <pt x="530" y="1208" on="1"/>
        <pt x="530" y="1188" on="0"/>
        <pt x="546" y="1164" on="1"/>
        <pt x="768" y="828" on="1"/>
        <pt x="793" y="861" on="0"/>
        <pt x="862" y="944" on="1"/>
        <pt x="1034" y="1153" on="0"/>
        <pt x="1034" y="1213" on="0"/>
        <pt x="939" y="1250" on="0"/>
        <pt x="886" y="1250" on="1"/>
        <pt x="878" y="1250" on="0"/>
        <pt x="877" y="1316" on="0"/>
        <pt x="884" y="1324" on="1"/>
        <pt x="1006" y="1310" on="0"/>
        <pt x="1288" y="1310" on="0"/>
        <pt x="1390" y="1324" on="1"/>
        <pt x="1395" y="1314" on="0"/>
        <pt x="1395" y="1250" on="0"/>
        <pt x="1388" y="1250" on="1"/>
        <pt x="1255" y="1250" on="0"/>
        <pt x="1164" y="1144" on="1"/>
        <pt x="822" y="738" on="1"/>
        <pt x="1170" y="214" on="0"/>
        <pt x="1262" y="107" on="0"/>
        <pt x="1385" y="66" on="0"/>
        <pt x="1422" y="66" on="1"/>
        <pt x="1428" y="52" on="0"/>
        <pt x="1429" y="5" on="0"/>
        <pt x="1422" y="-8" on="1"/>
        <pt x="1182" y="4" on="0"/>
        <pt x="1002" y="4" on="0"/>
        <pt x="786" y="-8" on="1"/>
        <pt x="779" y="0" on="0"/>
        <pt x="782" y="66" on="0"/>
        <pt x="790" y="66" on="1"/>
        <pt x="816" y="66" on="0"/>
        <pt x="902" y="98" on="0"/>
        <pt x="902" y="122" on="1"/>
        <pt x="902" y="135" on="0"/>
        <pt x="896" y="144" on="1"/>
      </contour>
    </TTGlyph>
    <TTGlyph name="Y" xMin="0" yMin="-8" xMax="1278" yMax="1324">
      <contour>
        <pt x="466" y="212" on="1"/>
        <pt x="467" y="263" on="1"/>
        <pt x="467" y="568" on="1"/>
        <pt x="467" y="603" on="0"/>
        <pt x="256" y="982" on="1"/>
        <pt x="205" y="1074" on="1"/>
        <pt x="172" y="1136" on="0"/>
        <pt x="148" y="1176" on="1"/>
        <pt x="109" y="1241" on="0"/>
        <pt x="7" y="1250" on="1"/>
        <pt x="0" y="1261" on="0"/>
        <pt x="1" y="1315" on="0"/>
        <pt x="7" y="1324" on="1"/>
        <pt x="144" y="1310" on="0"/>
        <pt x="438" y="1310" on="0"/>
        <pt x="575" y="1324" on="1"/>
        <pt x="581" y="1315" on="0"/>
        <pt x="582" y="1261" on="0"/>
        <pt x="575" y="1250" on="1"/>
        <pt x="538" y="1250" on="0"/>
        <pt x="506" y="1241" on="0"/>
        <pt x="485" y="1236" on="0"/>
        <pt x="472" y="1228" on="0"/>
        <pt x="459" y="1218" on="0"/>
        <pt x="453" y="1204" on="0"/>
        <pt x="453" y="1188" on="0"/>
        <pt x="467" y="1164" on="1"/>
        <pt x="707" y="722" on="1"/>
        <pt x="719" y="710" on="0"/>
        <pt x="959" y="1156" on="1"/>
        <pt x="969" y="1176" on="0"/>
        <pt x="969" y="1202" on="1"/>
        <pt x="969" y="1239" on="0"/>
        <pt x="821" y="1250" on="1"/>
        <pt x="814" y="1261" on="0"/>
        <pt x="815" y="1315" on="0"/>
        <pt x="821" y="1324" on="1"/>
        <pt x="986" y="1310" on="0"/>
        <pt x="1047" y="1310" on="1"/>
        <pt x="1271" y="1324" on="1"/>
        <pt x="1277" y="1315" on="0"/>
        <pt x="1278" y="1261" on="0"/>
        <pt x="1271" y="1250" on="1"/>
        <pt x="1184" y="1243" on="0"/>
        <pt x="1165" y="1233" on="1"/>
        <pt x="1132" y="1214" on="0"/>
        <pt x="1123" y="1200" on="1"/>
        <pt x="1069" y="1118" on="0"/>
        <pt x="794" y="672" on="0"/>
        <pt x="747" y="576" on="0"/>
        <pt x="747" y="558" on="1"/>
        <pt x="747" y="290" on="1"/>
        <pt x="745" y="146" on="0"/>
        <pt x="763" y="102" on="1"/>
        <pt x="773" y="75" on="0"/>
        <pt x="891" y="66" on="1"/>
        <pt x="898" y="55" on="0"/>
        <pt x="897" y="1" on="0"/>
        <pt x="891" y="-8" on="1"/>
        <pt x="754" y="6" on="0"/>
        <pt x="460" y="6" on="0"/>
        <pt x="323" y="-8" on="1"/>
        <pt x="317" y="1" on="0"/>
        <pt x="316" y="55" on="0"/>
        <pt x="323" y="66" on="1"/>
        <pt x="441" y="75" on="0"/>
        <pt x="451" y="102" on="1"/>
        <pt x="466" y="137" on="0"/>
      </contour>
    </TTGlyph>
    <TTGlyph name="Yacute" xMin="0" yMin="-8" xMax="1278" yMax="1738">
      <component glyphName="acutecomb.cap" x="1295" y="0" flags="0x1004"/>
      <component glyphName="Y" x="0" y="0" flags="0x1004"/>
    </TTGlyph>
    <TTGlyph name="Ycircumflex" xMin="0" yMin="-8" xMax="1278" yMax="1740">
      <component glyphName="uni0302.cap" x="1163" y="4" flags="0x1004"/>
      <component glyphName="Y" x="0" y="0" flags="0x1004"/>
    </TTGlyph>
    <TTGlyph name="Ydieresis" xMin="0" yMin="-8" xMax="1278" yMax="1728">
      <component glyphName="uni0308.cap" x="265" y="24" flags="0x1004"/>
      <component glyphName="Y" x="0" y="0" flags="0x1004"/>
    </TTGlyph>
    <TTGlyph name="Ygrave" xMin="0" yMin="-8" xMax="1278" yMax="1738">
      <component glyphName="Y" x="0" y="0" flags="0x1004"/>
      <component glyphName="gravecomb.cap" x="1028" y="0" flags="0x1004"/>
    </TTGlyph>
    <TTGlyph name="Z" xMin="41" yMin="0" xMax="1229" yMax="1332">
      <contour>
        <pt x="93" y="946" on="1"/>
        <pt x="165" y="1324" on="1"/>
        <pt x="186" y="1319" on="0"/>
        <pt x="390" y="1310" on="0"/>
        <pt x="427" y="1310" on="1"/>
        <pt x="707" y="1312" on="1"/>
        <pt x="928" y="1315" on="0"/>
        <pt x="1171" y="1332" on="1"/>
        <pt x="1177" y="1331" on="0"/>
        <pt x="1191" y="1282" on="0"/>
        <pt x="1191" y="1266" on="1"/>
        <pt x="1187" y="1252" on="0"/>
        <pt x="606" y="384" on="1"/>
        <pt x="413" y="94" on="1"/>
        <pt x="845" y="94" on="1"/>
        <pt x="965" y="94" on="0"/>
        <pt x="1035" y="164" on="1"/>
        <pt x="1100" y="229" on="0"/>
        <pt x="1141" y="340" on="1"/>
        <pt x="1144" y="352" on="0"/>
        <pt x="1164" y="352" on="1"/>
        <pt x="1217" y="352" on="0"/>
        <pt x="1229" y="340" on="1"/>
        <pt x="1220" y="309" on="0"/>
        <pt x="1131" y="52" on="0"/>
        <pt x="1121" y="2" on="1"/>
        <pt x="93" y="0" on="1"/>
        <pt x="67" y="0" on="0"/>
        <pt x="38" y="40" on="0"/>
        <pt x="41" y="44" on="1"/>
        <pt x="833" y="1220" on="1"/>
        <pt x="467" y="1220" on="1"/>
        <pt x="371" y="1220" on="0"/>
        <pt x="320" y="1184" on="1"/>
        <pt x="276" y="1154" on="0"/>
        <pt x="246" y="1110" on="0"/>
        <pt x="230" y="1085" on="0"/>
        <pt x="209" y="1037" on="0"/>
        <pt x="200" y="1012" on="0"/>
        <pt x="181" y="959" on="0"/>
        <pt x="173" y="936" on="0"/>
        <pt x="103" y="936" on="0"/>
      </contour>
    </TTGlyph>
    <TTGlyph name="Zacute" xMin="41" yMin="0" xMax="1229" yMax="1738">
      <component glyphName="acutecomb.cap" x="1249" y="0" flags="0x1004"/>
      <component glyphName="Z" x="0" y="0" flags="0x1004"/>
    </TTGlyph>
    <TTGlyph name="Zcaron" xMin="41" yMin="0" xMax="1229" yMax="1738">
      <component glyphName="uni030C.cap" x="339" y="52" flags="0x1004"/>
      <component glyphName="Z" x="0" y="0" flags="0x1004"/>
    </TTGlyph>
    <TTGlyph name="Zdotaccent" xMin="41" yMin="0" xMax="1229" yMax="1716">
      <component glyphName="uni0307" x="1201" y="450" flags="0x1004"/>
      <component glyphName="Z" x="0" y="0" flags="0x1004"/>
    </TTGlyph>
    <TTGlyph name="a" xMin="62" yMin="-16" xMax="916" yMax="898">
      <contour>
        <pt x="333" y="189" on="0"/>
        <pt x="409" y="124" on="0"/>
        <pt x="488" y="124" on="0"/>
        <pt x="536" y="155" on="0"/>
        <pt x="536" y="166" on="1"/>
        <pt x="536" y="446" on="1"/>
        <pt x="530" y="443" on="0"/>
        <pt x="428" y="397" on="0"/>
        <pt x="404" y="382" on="1"/>
        <pt x="328" y="333" on="0"/>
        <pt x="332" y="248" on="1"/>
      </contour>
      <contour>
        <pt x="796" y="179" on="0"/>
        <pt x="823" y="136" on="0"/>
        <pt x="866" y="136" on="0"/>
        <pt x="902" y="156" on="1"/>
        <pt x="916" y="149" on="0"/>
        <pt x="916" y="105" on="0"/>
        <pt x="908" y="92" on="1"/>
        <pt x="793" y="-12" on="0"/>
        <pt x="702" y="-12" on="1"/>
        <pt x="654" y="-12" on="0"/>
        <pt x="564" y="50" on="0"/>
        <pt x="550" y="88" on="1"/>
        <pt x="525" y="66" on="0"/>
        <pt x="371" y="-16" on="0"/>
        <pt x="324" y="-16" on="1"/>
        <pt x="214" y="-16" on="0"/>
        <pt x="62" y="135" on="0"/>
        <pt x="62" y="228" on="1"/>
        <pt x="62" y="284" on="0"/>
        <pt x="125" y="375" on="0"/>
        <pt x="199" y="399" on="0"/>
        <pt x="267" y="424" on="1"/>
        <pt x="347" y="454" on="0"/>
        <pt x="536" y="528" on="1"/>
        <pt x="536" y="622" on="1"/>
        <pt x="536" y="700" on="0"/>
        <pt x="469" y="822" on="0"/>
        <pt x="418" y="822" on="1"/>
        <pt x="356" y="822" on="0"/>
        <pt x="330" y="751" on="1"/>
        <pt x="314" y="710" on="0"/>
        <pt x="302" y="654" on="1"/>
        <pt x="283" y="566" on="0"/>
        <pt x="190" y="566" on="1"/>
        <pt x="148" y="566" on="0"/>
        <pt x="86" y="621" on="0"/>
        <pt x="86" y="695" on="0"/>
        <pt x="114" y="744" on="1"/>
        <pt x="152" y="782" on="0"/>
        <pt x="383" y="898" on="0"/>
        <pt x="622" y="898" on="0"/>
        <pt x="796" y="725" on="0"/>
        <pt x="796" y="592" on="1"/>
        <pt x="796" y="218" on="1"/>
      </contour>
    </TTGlyph>
    <TTGlyph name="aAlf.dagger" xMin="-125" yMin="860" xMax="114" yMax="1453">
      <component glyphName="uni0670" x="-313" y="-934" flags="0x1004"/>
    </TTGlyph>
    <TTGlyph name="aAlf.fina" xMin="76" yMin="-30" xMax="541" yMax="1485">
      <contour>
        <pt x="162" y="1485" on="1"/>
        <pt x="202" y="1553" on="0"/>
        <pt x="212" y="1471" on="1"/>
        <pt x="255" y="1091" on="0"/>
        <pt x="270" y="457" on="0"/>
        <pt x="275" y="388" on="1"/>
        <pt x="285" y="228" on="0"/>
        <pt x="469" y="216" on="1"/>
        <pt x="531" y="212" on="0"/>
        <pt x="541" y="154" on="1"/>
        <pt x="545" y="131" on="0"/>
        <pt x="527" y="25" on="0"/>
        <pt x="500" y="-29" on="0"/>
        <pt x="470" y="-30" on="1"/>
        <pt x="180" y="-30" on="0"/>
        <pt x="162" y="247" on="1"/>
        <pt x="154" y="374" on="0"/>
        <pt x="146" y="679" on="1"/>
        <pt x="138" y="955" on="0"/>
        <pt x="76" y="1271" on="1"/>
        <pt x="66" y="1322" on="0"/>
        <pt x="86" y="1356" on="1"/>
      </contour>
    </TTGlyph>
    <TTGlyph name="aAlf.fina.alt" xMin="131" yMin="-44" xMax="1703" yMax="1668">
      <contour>
        <pt x="344" y="1668" on="1"/>
        <pt x="407" y="1672" on="0"/>
        <pt x="399" y="1605" on="1"/>
        <pt x="382" y="1468" on="1"/>
        <pt x="376" y="1423" on="0"/>
        <pt x="268" y="1411" on="0"/>
        <pt x="215" y="1389" on="0"/>
        <pt x="215" y="1280" on="1"/>
        <pt x="218" y="719" on="0"/>
        <pt x="283" y="565" on="1"/>
        <pt x="406" y="271" on="0"/>
        <pt x="875" y="218" on="1"/>
        <pt x="1147" y="188" on="0"/>
        <pt x="1611" y="215" on="1"/>
        <pt x="1689" y="220" on="0"/>
        <pt x="1702" y="160" on="1"/>
        <pt x="1706" y="142" on="0"/>
        <pt x="1703" y="122" on="1"/>
        <pt x="1684" y="8" on="0"/>
        <pt x="1647" y="-17" on="1"/>
        <pt x="1634" y="-26" on="0"/>
        <pt x="1618" y="-30" on="1"/>
        <pt x="1525" y="-45" on="0"/>
        <pt x="1166" y="-44" on="1"/>
        <pt x="485" y="-42" on="0"/>
        <pt x="284" y="207" on="1"/>
        <pt x="180" y="336" on="0"/>
        <pt x="149" y="605" on="1"/>
        <pt x="133" y="743" on="0"/>
        <pt x="131" y="820" on="1"/>
        <pt x="118" y="1318" on="0"/>
        <pt x="139" y="1468" on="1"/>
        <pt x="151" y="1554" on="0"/>
        <pt x="250" y="1662" on="0"/>
      </contour>
    </TTGlyph>
    <TTGlyph name="aAlf.fina_KafAlf" xMin="20" yMin="-52" xMax="498" yMax="1552">
      <contour>
        <pt x="171" y="1513" on="1"/>
        <pt x="227" y="1306" on="0"/>
        <pt x="234" y="389" on="0"/>
        <pt x="304" y="237" on="0"/>
        <pt x="483" y="203" on="0"/>
        <pt x="498" y="68" on="1"/>
        <pt x="508" y="-28" on="0"/>
        <pt x="432" y="-48" on="1"/>
        <pt x="410" y="-54" on="0"/>
        <pt x="383" y="-52" on="1"/>
        <pt x="280" y="-42" on="0"/>
        <pt x="206" y="35" on="1"/>
        <pt x="87" y="158" on="0"/>
        <pt x="93" y="582" on="1"/>
        <pt x="96" y="809" on="0"/>
        <pt x="48" y="1252" on="0"/>
        <pt x="17" y="1389" on="0"/>
        <pt x="24" y="1423" on="0"/>
        <pt x="30" y="1432" on="1"/>
        <pt x="89" y="1526" on="1"/>
        <pt x="102" y="1546" on="0"/>
        <pt x="117" y="1551" on="1"/>
        <pt x="156" y="1563" on="0"/>
      </contour>
    </TTGlyph>
    <TTGlyph name="aAlf.fina_KafMemAlf" xMin="57" yMin="-175" xMax="452" yMax="1568">
      <contour>
        <pt x="265" y="778" on="1"/>
        <pt x="262" y="260" on="0"/>
        <pt x="415" y="87" on="1"/>
        <pt x="466" y="29" on="0"/>
        <pt x="438" y="-180" on="0"/>
        <pt x="368" y="-175" on="1"/>
        <pt x="323" y="-169" on="0"/>
        <pt x="278" y="-103" on="1"/>
        <pt x="179" y="45" on="0"/>
        <pt x="110" y="509" on="0"/>
        <pt x="112" y="1075" on="0"/>
        <pt x="57" y="1375" on="1"/>
        <pt x="49" y="1420" on="0"/>
        <pt x="62" y="1440" on="1"/>
        <pt x="127" y="1538" on="1"/>
        <pt x="145" y="1565" on="0"/>
        <pt x="166" y="1568" on="1"/>
        <pt x="207" y="1572" on="0"/>
        <pt x="213" y="1513" on="1"/>
        <pt x="253" y="1214" on="0"/>
        <pt x="260" y="965" on="1"/>
      </contour>
    </TTGlyph>
    <TTGlyph name="aAlf.fina_LamAlfFina" xMin="100" yMin="273" xMax="946" yMax="1241">
      <contour>
        <pt x="946" y="410" on="1"/>
        <pt x="960" y="283" on="0"/>
        <pt x="928" y="273" on="1"/>
        <pt x="899" y="264" on="0"/>
        <pt x="880" y="327" on="1"/>
        <pt x="789" y="620" on="0"/>
        <pt x="480" y="804" on="1"/>
        <pt x="456" y="755" on="1"/>
        <pt x="423" y="688" on="0"/>
        <pt x="336" y="747" on="1"/>
        <pt x="157" y="871" on="1"/>
        <pt x="105" y="906" on="0"/>
        <pt x="104" y="957" on="1"/>
        <pt x="100" y="1176" on="1"/>
        <pt x="99" y="1221" on="0"/>
        <pt x="165" y="1260" on="0"/>
        <pt x="210" y="1238" on="1"/>
        <pt x="892" y="884" on="0"/>
      </contour>
    </TTGlyph>
    <TTGlyph name="aAlf.fina_LamAlfIsol" xMin="100" yMin="-90" xMax="1069" yMax="1430">
      <contour>
        <pt x="567" y="133" on="1"/>
        <pt x="847" y="108" on="0"/>
        <pt x="958" y="127" on="1"/>
        <pt x="884" y="457" on="0"/>
        <pt x="398" y="1036" on="1"/>
        <pt x="368" y="986" on="1"/>
        <pt x="334" y="929" on="0"/>
        <pt x="273" y="995" on="1"/>
        <pt x="132" y="1147" on="1"/>
        <pt x="91" y="1191" on="0"/>
        <pt x="100" y="1251" on="1"/>
        <pt x="127" y="1430" on="1"/>
        <pt x="148" y="1564" on="0"/>
        <pt x="306" y="1394" on="1"/>
        <pt x="544" y="1138" on="0"/>
        <pt x="755" y="817" on="1"/>
        <pt x="1049" y="370" on="0"/>
        <pt x="1069" y="88" on="1"/>
        <pt x="1076" y="-52" on="0"/>
        <pt x="985" y="-76" on="1"/>
        <pt x="788" y="-126" on="0"/>
        <pt x="557" y="-90" on="1"/>
        <pt x="513" y="-82" on="0"/>
        <pt x="504" y="-56" on="1"/>
        <pt x="471" y="48" on="0"/>
        <pt x="509" y="103" on="1"/>
        <pt x="533" y="136" on="0"/>
      </contour>
    </TTGlyph>
    <TTGlyph name="aAlf.fina_MemAlfFina" xMin="56" yMin="-256" xMax="470" yMax="1480">
      <contour>
        <pt x="257" y="-202" on="1"/>
        <pt x="251" y="-193" on="0"/>
        <pt x="223" y="-149" on="0"/>
        <pt x="197" y="0" on="0"/>
        <pt x="122" y="1066" on="0"/>
        <pt x="56" y="1296" on="1"/>
        <pt x="46" y="1332" on="0"/>
        <pt x="59" y="1355" on="1"/>
        <pt x="115" y="1456" on="1"/>
        <pt x="127" y="1474" on="0"/>
        <pt x="140" y="1480" on="1"/>
        <pt x="176" y="1493" on="0"/>
        <pt x="192" y="1448" on="1"/>
        <pt x="240" y="1313" on="0"/>
        <pt x="316" y="506" on="0"/>
        <pt x="328" y="313" on="1"/>
        <pt x="348" y="1" on="0"/>
        <pt x="429" y="-77" on="1"/>
        <pt x="539" y="-181" on="0"/>
        <pt x="470" y="-256" on="1"/>
        <pt x="366" y="-362" on="0"/>
      </contour>
    </TTGlyph>
    <TTGlyph name="aAlf.fina_Narrow" xMin="76" yMin="-30" xMax="441" yMax="1485">
      <contour>
        <pt x="162" y="1485" on="1"/>
        <pt x="202" y="1553" on="0"/>
        <pt x="212" y="1471" on="1"/>
        <pt x="255" y="1091" on="0"/>
        <pt x="270" y="457" on="0"/>
        <pt x="275" y="388" on="1"/>
        <pt x="286" y="221" on="0"/>
        <pt x="369" y="216" on="1"/>
        <pt x="429" y="212" on="0"/>
        <pt x="441" y="154" on="1"/>
        <pt x="445" y="131" on="0"/>
        <pt x="427" y="25" on="0"/>
        <pt x="400" y="-29" on="0"/>
        <pt x="370" y="-30" on="1"/>
        <pt x="181" y="-30" on="0"/>
        <pt x="162" y="247" on="1"/>
        <pt x="153" y="403" on="0"/>
        <pt x="138" y="955" on="0"/>
        <pt x="76" y="1271" on="1"/>
        <pt x="66" y="1322" on="0"/>
        <pt x="86" y="1356" on="1"/>
      </contour>
    </TTGlyph>
    <TTGlyph name="aAlf.isol" xMin="104" yMin="-1" xMax="305" yMax="1418">
      <contour>
        <pt x="202" y="1418" on="1"/>
        <pt x="244" y="1509" on="0"/>
        <pt x="256" y="1377" on="1"/>
        <pt x="305" y="877" on="1"/>
        <pt x="366" y="202" on="0"/>
        <pt x="276" y="30" on="1"/>
        <pt x="256" y="-8" on="0"/>
        <pt x="218" y="6" on="0"/>
        <pt x="220" y="98" on="1"/>
        <pt x="223" y="256" on="0"/>
        <pt x="148" y="810" on="1"/>
        <pt x="104" y="1151" on="1"/>
        <pt x="98" y="1195" on="0"/>
        <pt x="117" y="1235" on="1"/>
      </contour>
    </TTGlyph>
    <TTGlyph name="aAyn.fina" xMin="132" yMin="-1158" xMax="1513" yMax="552">
      <contour>
        <pt x="872" y="552" on="1"/>
        <pt x="980" y="486" on="0"/>
        <pt x="968" y="352" on="0"/>
        <pt x="882" y="268" on="0"/>
        <pt x="839" y="254" on="1"/>
        <pt x="925" y="217" on="0"/>
        <pt x="1010" y="215" on="1"/>
        <pt x="1095" y="213" on="0"/>
        <pt x="1103" y="157" on="1"/>
        <pt x="1110" y="111" on="0"/>
        <pt x="1110" y="108" on="1"/>
        <pt x="1100" y="-31" on="0"/>
        <pt x="1010" y="-30" on="1"/>
        <pt x="829" y="-29" on="0"/>
        <pt x="642" y="181" on="1"/>
        <pt x="231" y="-45" on="0"/>
        <pt x="217" y="-388" on="1"/>
        <pt x="203" y="-702" on="0"/>
        <pt x="495" y="-839" on="1"/>
        <pt x="739" y="-952" on="0"/>
        <pt x="1419" y="-913" on="1"/>
        <pt x="1510" y="-908" on="0"/>
        <pt x="1513" y="-931" on="1"/>
        <pt x="1519" y="-971" on="0"/>
        <pt x="1223" y="-1097" on="1"/>
        <pt x="1096" y="-1151" on="0"/>
        <pt x="994" y="-1158" on="1"/>
        <pt x="760" y="-1175" on="0"/>
        <pt x="556" y="-1124" on="1"/>
        <pt x="45" y="-998" on="0"/>
        <pt x="132" y="-387" on="1"/>
        <pt x="189" y="13" on="0"/>
        <pt x="497" y="279" on="1"/>
        <pt x="457" y="304" on="0"/>
        <pt x="331" y="313" on="0"/>
        <pt x="306" y="363" on="0"/>
        <pt x="315" y="386" on="1"/>
        <pt x="358" y="492" on="0"/>
        <pt x="446" y="548" on="1"/>
        <pt x="659" y="683" on="0"/>
      </contour>
    </TTGlyph>
    <TTGlyph name="aAyn.init" xMin="-92" yMin="-30" xMax="867" yMax="871">
      <contour>
        <pt x="867" y="508" on="1"/>
        <pt x="825" y="343" on="1"/>
        <pt x="818" y="316" on="0"/>
        <pt x="730" y="279" on="0"/>
        <pt x="475" y="177" on="1"/>
        <pt x="-1" y="-30" on="1"/>
        <pt x="-69" y="-30" on="0"/>
        <pt x="-114" y="171" on="0"/>
        <pt x="-12" y="213" on="1"/>
        <pt x="68" y="246" on="0"/>
        <pt x="109" y="264" on="1"/>
        <pt x="-1" y="357" on="0"/>
        <pt x="30" y="487" on="1"/>
        <pt x="95" y="763" on="0"/>
        <pt x="325" y="871" on="1"/>
        <pt x="383" y="898" on="0"/>
        <pt x="543" y="822" on="0"/>
        <pt x="624" y="738" on="1"/>
        <pt x="667" y="693" on="0"/>
        <pt x="642" y="640" on="0"/>
        <pt x="462" y="691" on="0"/>
        <pt x="197" y="631" on="0"/>
        <pt x="154" y="540" on="1"/>
        <pt x="142" y="515" on="0"/>
        <pt x="211" y="455" on="1"/>
        <pt x="383" y="307" on="0"/>
        <pt x="710" y="513" on="1"/>
        <pt x="755" y="541" on="0"/>
        <pt x="786" y="560" on="1"/>
        <pt x="898" y="631" on="0"/>
      </contour>
    </TTGlyph>
    <TTGlyph name="aAyn.init_AboveHaaIsol" xMin="-88" yMin="441" xMax="998" yMax="1281">
      <component glyphName="aAyn.init_AynHaaInit" x="0" y="0" flags="0x1004"/>
    </TTGlyph>
    <TTGlyph name="aAyn.init_AynHaaInit" xMin="-88" yMin="441" xMax="998" yMax="1281">
      <contour>
        <pt x="942" y="957" on="1"/>
        <pt x="969" y="970" on="0"/>
        <pt x="1025" y="917" on="0"/>
        <pt x="980" y="841" on="1"/>
        <pt x="979" y="839" on="0"/>
        <pt x="939" y="777" on="1"/>
        <pt x="920" y="748" on="0"/>
        <pt x="888" y="739" on="1"/>
        <pt x="341" y="589" on="0"/>
        <pt x="245" y="554" on="1"/>
        <pt x="-7" y="442" on="1"/>
        <pt x="-74" y="433" on="0"/>
        <pt x="-88" y="478" on="1"/>
        <pt x="-95" y="501" on="0"/>
        <pt x="-71" y="526" on="1"/>
        <pt x="4" y="615" on="0"/>
        <pt x="247" y="720" on="1"/>
        <pt x="199" y="764" on="0"/>
        <pt x="174" y="806" on="1"/>
        <pt x="135" y="872" on="0"/>
        <pt x="217" y="1087" on="0"/>
        <pt x="456" y="1289" on="0"/>
        <pt x="561" y="1281" on="1"/>
        <pt x="713" y="1268" on="0"/>
        <pt x="807" y="1132" on="1"/>
        <pt x="829" y="1098" on="0"/>
        <pt x="789" y="1044" on="0"/>
        <pt x="754" y="1056" on="1"/>
        <pt x="637" y="1095" on="0"/>
        <pt x="559" y="1093" on="1"/>
        <pt x="399" y="1088" on="0"/>
        <pt x="325" y="993" on="1"/>
        <pt x="408" y="876" on="0"/>
        <pt x="522" y="866" on="1"/>
        <pt x="706" y="850" on="0"/>
      </contour>
    </TTGlyph>
    <TTGlyph name="aAyn.init_AynMemInit" xMin="-175" yMin="365" xMax="901" yMax="1164">
      <contour>
        <pt x="-41" y="366" on="1"/>
        <pt x="-141" y="327" on="0"/>
        <pt x="-208" y="424" on="0"/>
        <pt x="-133" y="515" on="0"/>
        <pt x="52" y="582" on="1"/>
        <pt x="110" y="603" on="0"/>
        <pt x="148" y="618" on="1"/>
        <pt x="85" y="670" on="0"/>
        <pt x="27" y="802" on="0"/>
        <pt x="123" y="1035" on="0"/>
        <pt x="257" y="1139" on="1"/>
        <pt x="443" y="1283" on="0"/>
        <pt x="613" y="1163" on="1"/>
        <pt x="666" y="1125" on="0"/>
        <pt x="714" y="1063" on="1"/>
        <pt x="744" y="1025" on="0"/>
        <pt x="710" y="993" on="1"/>
        <pt x="683" y="971" on="0"/>
        <pt x="654" y="981" on="1"/>
        <pt x="444" y="1049" on="0"/>
        <pt x="207" y="907" on="1"/>
        <pt x="305" y="786" on="0"/>
        <pt x="456" y="761" on="1"/>
        <pt x="545" y="746" on="0"/>
        <pt x="810" y="878" on="1"/>
        <pt x="856" y="901" on="0"/>
        <pt x="882" y="875" on="1"/>
        <pt x="925" y="832" on="0"/>
        <pt x="900" y="792" on="1"/>
        <pt x="837" y="693" on="1"/>
        <pt x="817" y="663" on="0"/>
        <pt x="794" y="653" on="1"/>
        <pt x="707" y="618" on="0"/>
        <pt x="429" y="526" on="1"/>
      </contour>
    </TTGlyph>
    <TTGlyph name="aAyn.init_AynYaaIsol" xMin="-86" yMin="192" xMax="1119" yMax="1143">
      <contour>
        <pt x="1069" y="642" on="1"/>
        <pt x="1051" y="602" on="0"/>
        <pt x="1031" y="592" on="1"/>
        <pt x="883" y="530" on="0"/>
        <pt x="261" y="295" on="0"/>
        <pt x="40" y="194" on="0"/>
        <pt x="-54" y="191" on="0"/>
        <pt x="-73" y="213" on="1"/>
        <pt x="-85" y="228" on="0"/>
        <pt x="-86" y="250" on="1"/>
        <pt x="-85" y="331" on="0"/>
        <pt x="-16" y="372" on="1"/>
        <pt x="106" y="443" on="0"/>
        <pt x="326" y="531" on="1"/>
        <pt x="207" y="661" on="0"/>
        <pt x="226" y="746" on="1"/>
        <pt x="254" y="865" on="0"/>
        <pt x="521" y="1127" on="0"/>
        <pt x="624" y="1143" on="1"/>
        <pt x="687" y="1151" on="0"/>
        <pt x="894" y="1049" on="0"/>
        <pt x="947" y="992" on="1"/>
        <pt x="973" y="964" on="0"/>
        <pt x="938" y="906" on="0"/>
        <pt x="900" y="916" on="1"/>
        <pt x="610" y="995" on="0"/>
        <pt x="417" y="813" on="1"/>
        <pt x="483" y="713" on="0"/>
        <pt x="662" y="680" on="1"/>
        <pt x="739" y="666" on="0"/>
        <pt x="978" y="791" on="1"/>
        <pt x="1047" y="827" on="0"/>
        <pt x="1087" y="829" on="0"/>
        <pt x="1099" y="824" on="1"/>
        <pt x="1138" y="809" on="0"/>
        <pt x="1119" y="759" on="1"/>
      </contour>
    </TTGlyph>
    <TTGlyph name="aAyn.init_Finjani" xMin="-70" yMin="-30" xMax="706" yMax="809">
      <contour>
        <pt x="706" y="322" on="1"/>
        <pt x="661" y="198" on="1"/>
        <pt x="651" y="170" on="0"/>
        <pt x="626" y="153" on="1"/>
        <pt x="497" y="62" on="0"/>
        <pt x="107" y="-46" on="0"/>
        <pt x="-4" y="-30" on="1"/>
        <pt x="-89" y="-17" on="0"/>
        <pt x="-70" y="124" on="1"/>
        <pt x="-57" y="208" on="0"/>
        <pt x="-12" y="215" on="1"/>
        <pt x="-4" y="216" on="0"/>
        <pt x="5" y="215" on="1"/>
        <pt x="-29" y="279" on="0"/>
        <pt x="-36" y="352" on="1"/>
        <pt x="-53" y="535" on="0"/>
        <pt x="201" y="793" on="0"/>
        <pt x="442" y="824" on="0"/>
        <pt x="626" y="650" on="1"/>
        <pt x="653" y="625" on="0"/>
        <pt x="616" y="562" on="0"/>
        <pt x="570" y="579" on="1"/>
        <pt x="416" y="637" on="0"/>
        <pt x="204" y="563" on="1"/>
        <pt x="123" y="535" on="0"/>
        <pt x="101" y="474" on="0"/>
        <pt x="240" y="273" on="0"/>
        <pt x="284" y="263" on="1"/>
        <pt x="391" y="241" on="0"/>
        <pt x="522" y="316" on="1"/>
        <pt x="646" y="388" on="1"/>
        <pt x="752" y="449" on="0"/>
      </contour>
    </TTGlyph>
    <TTGlyph name="aAyn.init_YaaBarree" xMin="-115" yMin="150" xMax="1059" yMax="1213">
      <contour>
        <pt x="564" y="1213" on="1"/>
        <pt x="628" y="1220" on="0"/>
        <pt x="834" y="1119" on="0"/>
        <pt x="887" y="1062" on="1"/>
        <pt x="912" y="1034" on="0"/>
        <pt x="879" y="977" on="0"/>
        <pt x="842" y="986" on="1"/>
        <pt x="546" y="1063" on="0"/>
        <pt x="357" y="883" on="1"/>
        <pt x="425" y="780" on="0"/>
        <pt x="602" y="750" on="1"/>
        <pt x="679" y="736" on="0"/>
        <pt x="918" y="861" on="1"/>
        <pt x="987" y="897" on="0"/>
        <pt x="1027" y="899" on="0"/>
        <pt x="1039" y="894" on="1"/>
        <pt x="1078" y="879" on="0"/>
        <pt x="1059" y="829" on="1"/>
        <pt x="1009" y="712" on="1"/>
        <pt x="990" y="672" on="0"/>
        <pt x="953" y="654" on="0"/>
        <pt x="857" y="618" on="1"/>
        <pt x="202" y="369" on="0"/>
        <pt x="31" y="216" on="1"/>
        <pt x="-22" y="167" on="0"/>
        <pt x="-72" y="135" on="0"/>
        <pt x="-135" y="175" on="0"/>
        <pt x="-114" y="224" on="1"/>
        <pt x="-16" y="425" on="0"/>
        <pt x="311" y="595" on="1"/>
        <pt x="252" y="632" on="0"/>
        <pt x="154" y="747" on="0"/>
        <pt x="166" y="815" on="1"/>
        <pt x="194" y="935" on="0"/>
        <pt x="463" y="1199" on="0"/>
      </contour>
    </TTGlyph>
    <TTGlyph name="aAyn.isol" xMin="130" yMin="-988" xMax="1503" yMax="947">
      <contour>
        <pt x="485" y="-685" on="1"/>
        <pt x="827" y="-806" on="0"/>
        <pt x="1409" y="-708" on="1"/>
        <pt x="1501" y="-691" on="0"/>
        <pt x="1503" y="-715" on="1"/>
        <pt x="1505" y="-748" on="0"/>
        <pt x="1450" y="-780" on="1"/>
        <pt x="1183" y="-937" on="1"/>
        <pt x="1112" y="-979" on="0"/>
        <pt x="984" y="-988" on="1"/>
        <pt x="718" y="-1007" on="0"/>
        <pt x="546" y="-964" on="1"/>
        <pt x="46" y="-838" on="0"/>
        <pt x="130" y="-236" on="1"/>
        <pt x="173" y="72" on="0"/>
        <pt x="363" y="316" on="1"/>
        <pt x="144" y="414" on="0"/>
        <pt x="155" y="509" on="1"/>
        <pt x="188" y="795" on="0"/>
        <pt x="412" y="947" on="1"/>
        <pt x="495" y="1003" on="0"/>
        <pt x="601" y="937" on="1"/>
        <pt x="678" y="890" on="0"/>
        <pt x="714" y="837" on="1"/>
        <pt x="730" y="813" on="0"/>
        <pt x="717" y="779" on="0"/>
        <pt x="666" y="790" on="1"/>
        <pt x="443" y="837" on="0"/>
        <pt x="257" y="623" on="1"/>
        <pt x="405" y="504" on="0"/>
        <pt x="585" y="515" on="1"/>
        <pt x="611" y="517" on="0"/>
        <pt x="668" y="553" on="1"/>
        <pt x="842" y="668" on="0"/>
        <pt x="907" y="704" on="1"/>
        <pt x="1005" y="759" on="0"/>
        <pt x="986" y="684" on="1"/>
        <pt x="921" y="528" on="1"/>
        <pt x="908" y="497" on="0"/>
        <pt x="883" y="486" on="1"/>
        <pt x="735" y="417" on="0"/>
        <pt x="525" y="267" on="1"/>
        <pt x="237" y="61" on="0"/>
        <pt x="207" y="-262" on="1"/>
        <pt x="177" y="-576" on="0"/>
      </contour>
    </TTGlyph>
    <TTGlyph name="aAyn.medi" xMin="-92" yMin="-30" xMax="842" yMax="554">
      <contour>
        <pt x="750" y="215" on="1"/>
        <pt x="827" y="214" on="0"/>
        <pt x="840" y="151" on="1"/>
        <pt x="844" y="130" on="0"/>
        <pt x="842" y="108" on="1"/>
        <pt x="822" y="-30" on="0"/>
        <pt x="752" y="-30" on="1"/>
        <pt x="541" y="-29" on="0"/>
        <pt x="368" y="178" on="1"/>
        <pt x="132" y="-30" on="0"/>
        <pt x="-1" y="-30" on="1"/>
        <pt x="-74" y="-30" on="0"/>
        <pt x="-109" y="175" on="0"/>
        <pt x="-45" y="205" on="1"/>
        <pt x="-25" y="214" on="0"/>
        <pt x="-1" y="215" on="1"/>
        <pt x="131" y="219" on="0"/>
        <pt x="221" y="272" on="1"/>
        <pt x="182" y="303" on="0"/>
        <pt x="52" y="321" on="1"/>
        <pt x="9" y="327" on="0"/>
        <pt x="17" y="379" on="1"/>
        <pt x="32" y="463" on="0"/>
        <pt x="133" y="542" on="1"/>
        <pt x="325" y="690" on="0"/>
        <pt x="563" y="554" on="1"/>
        <pt x="683" y="483" on="0"/>
        <pt x="664" y="404" on="1"/>
        <pt x="647" y="328" on="0"/>
        <pt x="523" y="256" on="1"/>
        <pt x="589" y="217" on="0"/>
      </contour>
    </TTGlyph>
    <TTGlyph name="aAyn.medi_AynYaaFina" xMin="-93" yMin="-73" xMax="918" yMax="556">
      <contour>
        <pt x="162" y="359" on="1"/>
        <pt x="183" y="487" on="0"/>
        <pt x="271" y="542" on="1"/>
        <pt x="486" y="676" on="0"/>
        <pt x="668" y="555" on="1"/>
        <pt x="761" y="492" on="0"/>
        <pt x="789" y="418" on="1"/>
        <pt x="801" y="385" on="0"/>
        <pt x="763" y="291" on="0"/>
        <pt x="712" y="246" on="1"/>
        <pt x="775" y="216" on="0"/>
        <pt x="905" y="214" on="0"/>
        <pt x="918" y="154" on="1"/>
        <pt x="921" y="135" on="0"/>
        <pt x="914" y="75" on="1"/>
        <pt x="901" y="-29" on="0"/>
        <pt x="841" y="-30" on="1"/>
        <pt x="715" y="-29" on="0"/>
        <pt x="494" y="124" on="1"/>
        <pt x="492" y="124" on="0"/>
        <pt x="490" y="123" on="1"/>
        <pt x="177" y="22" on="0"/>
        <pt x="27" y="-72" on="1"/>
        <pt x="-25" y="-104" on="0"/>
        <pt x="-101" y="-15" on="0"/>
        <pt x="-84" y="73" on="0"/>
        <pt x="-59" y="98" on="1"/>
        <pt x="8" y="159" on="0"/>
        <pt x="288" y="262" on="1"/>
        <pt x="242" y="287" on="0"/>
        <pt x="172" y="302" on="0"/>
        <pt x="164" y="335" on="1"/>
        <pt x="161" y="347" on="0"/>
      </contour>
    </TTGlyph>
    <TTGlyph name="aBaa.fina" xMin="142" yMin="-192" xMax="1883" yMax="532">
      <contour>
        <pt x="229" y="516" on="1"/>
        <pt x="259" y="556" on="0"/>
        <pt x="284" y="532" on="1"/>
        <pt x="305" y="511" on="0"/>
        <pt x="282" y="478" on="1"/>
        <pt x="216" y="385" on="0"/>
        <pt x="232" y="323" on="1"/>
        <pt x="297" y="60" on="0"/>
        <pt x="839" y="76" on="1"/>
        <pt x="1224" y="87" on="0"/>
        <pt x="1535" y="214" on="1"/>
        <pt x="1589" y="236" on="0"/>
        <pt x="1601" y="300" on="1"/>
        <pt x="1608" y="339" on="0"/>
        <pt x="1642" y="340" on="1"/>
        <pt x="1675" y="340" on="0"/>
        <pt x="1676" y="287" on="1"/>
        <pt x="1678" y="222" on="0"/>
        <pt x="1812" y="215" on="1"/>
        <pt x="1870" y="212" on="0"/>
        <pt x="1883" y="159" on="1"/>
        <pt x="1888" y="139" on="0"/>
        <pt x="1882" y="78" on="1"/>
        <pt x="1870" y="-30" on="0"/>
        <pt x="1810" y="-30" on="1"/>
        <pt x="1718" y="-30" on="0"/>
        <pt x="1636" y="81" on="1"/>
        <pt x="1259" y="-192" on="0"/>
        <pt x="756" y="-192" on="1"/>
        <pt x="235" y="-193" on="0"/>
        <pt x="142" y="72" on="1"/>
        <pt x="94" y="209" on="0"/>
        <pt x="143" y="340" on="1"/>
        <pt x="189" y="458" on="0"/>
      </contour>
    </TTGlyph>
    <TTGlyph name="aBaa.fina_BaaBaaIsol" xMin="121" yMin="-147" xMax="1634" yMax="530">
      <contour>
        <pt x="1613" y="292" on="1"/>
        <pt x="1698" y="238" on="0"/>
        <pt x="1634" y="104" on="1"/>
        <pt x="1598" y="35" on="0"/>
        <pt x="1534" y="65" on="1"/>
        <pt x="1205" y="-146" on="0"/>
        <pt x="673" y="-147" on="1"/>
        <pt x="188" y="-146" on="0"/>
        <pt x="121" y="134" on="1"/>
        <pt x="93" y="249" on="0"/>
        <pt x="160" y="463" on="0"/>
        <pt x="217" y="525" on="1"/>
        <pt x="243" y="553" on="0"/>
        <pt x="297" y="507" on="0"/>
        <pt x="263" y="463" on="1"/>
        <pt x="207" y="392" on="0"/>
        <pt x="213" y="318" on="1"/>
        <pt x="228" y="110" on="0"/>
        <pt x="781" y="109" on="1"/>
        <pt x="1036" y="108" on="0"/>
        <pt x="1294" y="174" on="1"/>
        <pt x="1438" y="211" on="0"/>
        <pt x="1502" y="266" on="0"/>
        <pt x="1530" y="349" on="1"/>
        <pt x="1547" y="400" on="0"/>
        <pt x="1640" y="369" on="0"/>
      </contour>
    </TTGlyph>
    <TTGlyph name="aBaa.init" xMin="-76" yMin="-30" xMax="264" yMax="590">
      <contour>
        <pt x="105" y="436" on="1"/>
        <pt x="163" y="563" on="1"/>
        <pt x="194" y="631" on="0"/>
        <pt x="217" y="590" on="1"/>
        <pt x="317" y="417" on="0"/>
        <pt x="210" y="-30" on="0"/>
        <pt x="0" y="-30" on="1"/>
        <pt x="-42" y="-30" on="0"/>
        <pt x="-77" y="107" on="0"/>
        <pt x="-75" y="192" on="0"/>
        <pt x="-32" y="209" on="1"/>
        <pt x="-17" y="215" on="0"/>
        <pt x="0" y="215" on="1"/>
        <pt x="119" y="212" on="0"/>
        <pt x="173" y="262" on="1"/>
        <pt x="162" y="313" on="0"/>
        <pt x="86" y="395" on="0"/>
      </contour>
    </TTGlyph>
    <TTGlyph name="aBaa.init_AboveHaaIsol" xMin="-76" yMin="412" xMax="844" yMax="1187">
      <contour>
        <pt x="-55" y="462" on="1"/>
        <pt x="-7" y="521" on="0"/>
        <pt x="99" y="580" on="1"/>
        <pt x="333" y="713" on="0"/>
        <pt x="483" y="864" on="0"/>
        <pt x="557" y="1058" on="0"/>
        <pt x="628" y="1186" on="0"/>
        <pt x="751" y="1186" on="0"/>
        <pt x="795" y="1117" on="1"/>
        <pt x="855" y="1022" on="0"/>
        <pt x="844" y="732" on="1"/>
        <pt x="843" y="695" on="0"/>
        <pt x="814" y="681" on="1"/>
        <pt x="803" y="676" on="0"/>
        <pt x="791" y="677" on="1"/>
        <pt x="746" y="678" on="0"/>
        <pt x="737" y="731" on="1"/>
        <pt x="719" y="894" on="0"/>
        <pt x="676" y="926" on="1"/>
        <pt x="661" y="935" on="0"/>
        <pt x="632" y="893" on="0"/>
        <pt x="595" y="819" on="1"/>
        <pt x="494" y="614" on="0"/>
        <pt x="222" y="461" on="1"/>
        <pt x="213" y="456" on="0"/>
        <pt x="139" y="412" on="1"/>
        <pt x="41" y="355" on="0"/>
        <pt x="-49" y="419" on="1"/>
        <pt x="-76" y="437" on="1"/>
      </contour>
    </TTGlyph>
    <TTGlyph name="aBaa.init_BaaBaaHaaInit" xMin="-71" yMin="537" xMax="223" yMax="947">
      <contour>
        <pt x="17" y="537" on="1"/>
        <pt x="-15" y="534" on="0"/>
        <pt x="-63" y="559" on="0"/>
        <pt x="-79" y="661" on="0"/>
        <pt x="-25" y="771" on="0"/>
        <pt x="33" y="776" on="1"/>
        <pt x="107" y="781" on="0"/>
        <pt x="124" y="898" on="1"/>
        <pt x="130" y="933" on="0"/>
        <pt x="183" y="961" on="0"/>
        <pt x="240" y="914" on="0"/>
        <pt x="223" y="805" on="1"/>
        <pt x="179" y="556" on="0"/>
      </contour>
    </TTGlyph>
    <TTGlyph name="aBaa.init_BaaBaaIsol" xMin="-101" yMin="-21" xMax="394" yMax="447">
      <contour>
        <pt x="-66" y="82" on="1"/>
        <pt x="-141" y="135" on="0"/>
        <pt x="-101" y="237" on="1"/>
        <pt x="-39" y="347" on="0"/>
        <pt x="20" y="303" on="1"/>
        <pt x="141" y="211" on="0"/>
        <pt x="273" y="198" on="1"/>
        <pt x="272" y="214" on="0"/>
        <pt x="224" y="273" on="0"/>
        <pt x="233" y="301" on="1"/>
        <pt x="280" y="442" on="1"/>
        <pt x="317" y="552" on="0"/>
        <pt x="363" y="447" on="1"/>
        <pt x="407" y="333" on="0"/>
        <pt x="394" y="196" on="1"/>
        <pt x="376" y="-1" on="0"/>
        <pt x="257" y="-21" on="1"/>
        <pt x="109" y="-44" on="0"/>
      </contour>
    </TTGlyph>
    <TTGlyph name="aBaa.init_BaaBaaMemInit" xMin="-72" yMin="477" xMax="233" yMax="873">
      <contour>
        <pt x="30" y="477" on="1"/>
        <pt x="-52" y="457" on="0"/>
        <pt x="-71" y="507" on="1"/>
        <pt x="-83" y="538" on="0"/>
        <pt x="-37" y="713" on="0"/>
        <pt x="26" y="714" on="1"/>
        <pt x="55" y="715" on="0"/>
        <pt x="112" y="780" on="0"/>
        <pt x="126" y="823" on="1"/>
        <pt x="149" y="891" on="0"/>
        <pt x="241" y="855" on="0"/>
        <pt x="232" y="804" on="1"/>
        <pt x="167" y="510" on="0"/>
      </contour>
    </TTGlyph>
    <TTGlyph name="aBaa.init_BaaBaaYaaIsol" xMin="-86" yMin="248" xMax="232" yMax="677">
      <contour>
        <pt x="149" y="632" on="1"/>
        <pt x="161" y="684" on="0"/>
        <pt x="241" y="670" on="0"/>
        <pt x="232" y="607" on="1"/>
        <pt x="178" y="252" on="0"/>
        <pt x="-4" y="248" on="1"/>
        <pt x="-91" y="246" on="0"/>
        <pt x="-80" y="487" on="0"/>
        <pt x="9" y="494" on="1"/>
        <pt x="118" y="501" on="0"/>
      </contour>
    </TTGlyph>
    <TTGlyph name="aBaa.init_BaaDalIsol" xMin="-123" yMin="-22" xMax="242" yMax="585">
      <contour>
        <pt x="154" y="254" on="1"/>
        <pt x="128" y="312" on="0"/>
        <pt x="44" y="385" on="0"/>
        <pt x="57" y="430" on="1"/>
        <pt x="100" y="585" on="1"/>
        <pt x="136" y="714" on="0"/>
        <pt x="271" y="433" on="0"/>
        <pt x="242" y="193" on="1"/>
        <pt x="218" y="-3" on="0"/>
        <pt x="62" y="-22" on="1"/>
        <pt x="-20" y="-32" on="0"/>
        <pt x="-160" y="88" on="0"/>
        <pt x="-86" y="285" on="0"/>
        <pt x="106" y="222" on="0"/>
      </contour>
    </TTGlyph>
    <TTGlyph name="aBaa.init_BaaHaaInit" xMin="4" yMin="447" xMax="903" yMax="1160">
      <contour>
        <pt x="903" y="738" on="1"/>
        <pt x="904" y="687" on="0"/>
        <pt x="834" y="679" on="0"/>
        <pt x="826" y="729" on="1"/>
        <pt x="808" y="846" on="0"/>
        <pt x="774" y="882" on="1"/>
        <pt x="738" y="921" on="0"/>
        <pt x="705" y="877" on="1"/>
        <pt x="454" y="540" on="0"/>
        <pt x="265" y="462" on="1"/>
        <pt x="171" y="422" on="0"/>
        <pt x="101" y="447" on="1"/>
        <pt x="21" y="475" on="0"/>
        <pt x="8" y="549" on="1"/>
        <pt x="4" y="574" on="1"/>
        <pt x="28" y="582" on="1"/>
        <pt x="233" y="655" on="0"/>
        <pt x="424" y="770" on="1"/>
        <pt x="565" y="858" on="0"/>
        <pt x="689" y="1157" on="0"/>
        <pt x="762" y="1160" on="1"/>
        <pt x="846" y="1162" on="0"/>
        <pt x="877" y="1002" on="1"/>
        <pt x="901" y="876" on="0"/>
      </contour>
    </TTGlyph>
    <TTGlyph name="aBaa.init_BaaHaaMemInit" xMin="-553" yMin="745" xMax="394" yMax="1296">
      <contour>
        <pt x="259" y="1296" on="1"/>
        <pt x="360" y="1299" on="0"/>
        <pt x="386" y="1194" on="1"/>
        <pt x="394" y="1162" on="0"/>
        <pt x="394" y="1123" on="1"/>
        <pt x="394" y="995" on="0"/>
        <pt x="351" y="834" on="1"/>
        <pt x="344" y="808" on="0"/>
        <pt x="290" y="784" on="0"/>
        <pt x="242" y="830" on="0"/>
        <pt x="248" y="867" on="1"/>
        <pt x="276" y="1037" on="0"/>
        <pt x="185" y="1030" on="1"/>
        <pt x="168" y="1029" on="0"/>
        <pt x="123" y="993" on="1"/>
        <pt x="-87" y="828" on="0"/>
        <pt x="-227" y="785" on="1"/>
        <pt x="-457" y="714" on="0"/>
        <pt x="-591" y="776" on="0"/>
        <pt x="-553" y="858" on="1"/>
        <pt x="-539" y="881" on="0"/>
        <pt x="-488" y="893" on="1"/>
        <pt x="-202" y="959" on="0"/>
        <pt x="-54" y="1050" on="1"/>
        <pt x="16" y="1093" on="0"/>
        <pt x="64" y="1149" on="1"/>
        <pt x="190" y="1294" on="0"/>
      </contour>
    </TTGlyph>
    <TTGlyph name="aBaa.init_BaaHehInit" xMin="-45" yMin="-100" xMax="690" yMax="392">
      <contour>
        <pt x="515" y="115" on="1"/>
        <pt x="479" y="191" on="0"/>
        <pt x="392" y="183" on="1"/>
        <pt x="273" y="171" on="0"/>
        <pt x="86" y="68" on="0"/>
        <pt x="21" y="-63" on="1"/>
        <pt x="-9" y="-123" on="0"/>
        <pt x="-45" y="-100" on="1"/>
        <pt x="-78" y="-75" on="0"/>
        <pt x="-45" y="-8" on="1"/>
        <pt x="74" y="238" on="0"/>
        <pt x="447" y="452" on="0"/>
        <pt x="599" y="392" on="1"/>
        <pt x="687" y="357" on="0"/>
        <pt x="693" y="183" on="0"/>
        <pt x="619" y="111" on="1"/>
        <pt x="566" y="61" on="0"/>
        <pt x="528" y="98" on="1"/>
        <pt x="520" y="106" on="0"/>
      </contour>
    </TTGlyph>
    <TTGlyph name="aBaa.init_BaaMemHaaInit" xMin="-164" yMin="679" xMax="365" yMax="1380">
      <contour>
        <pt x="145" y="1380" on="1"/>
        <pt x="264" y="1397" on="0"/>
        <pt x="359" y="1297" on="1"/>
        <pt x="379" y="1276" on="0"/>
        <pt x="365" y="1236" on="1"/>
        <pt x="365" y="1236" on="0"/>
        <pt x="314" y="1083" on="1"/>
        <pt x="296" y="1028" on="0"/>
        <pt x="258" y="1065" on="1"/>
        <pt x="107" y="1215" on="0"/>
        <pt x="-48" y="1064" on="1"/>
        <pt x="-11" y="912" on="0"/>
        <pt x="141" y="832" on="1"/>
        <pt x="165" y="819" on="0"/>
        <pt x="169" y="814" on="1"/>
        <pt x="203" y="771" on="0"/>
        <pt x="114" y="716" on="1"/>
        <pt x="51" y="678" on="0"/>
        <pt x="-118" y="680" on="0"/>
        <pt x="-168" y="848" on="0"/>
        <pt x="-164" y="946" on="1"/>
        <pt x="-155" y="1157" on="0"/>
        <pt x="-9" y="1299" on="1"/>
        <pt x="61" y="1368" on="0"/>
      </contour>
    </TTGlyph>
    <TTGlyph name="aBaa.init_BaaMemInit" xMin="-192" yMin="386" xMax="421" yMax="1003">
      <contour>
        <pt x="91" y="736" on="1"/>
        <pt x="-32" y="667" on="0"/>
        <pt x="-62" y="550" on="0"/>
        <pt x="-28" y="417" on="0"/>
        <pt x="-100" y="386" on="1"/>
        <pt x="-187" y="352" on="0"/>
        <pt x="-192" y="478" on="1"/>
        <pt x="-195" y="552" on="0"/>
        <pt x="-165" y="637" on="1"/>
        <pt x="-48" y="967" on="0"/>
        <pt x="183" y="1003" on="1"/>
        <pt x="302" y="1020" on="0"/>
        <pt x="394" y="927" on="1"/>
        <pt x="431" y="887" on="0"/>
        <pt x="421" y="849" on="1"/>
        <pt x="379" y="697" on="0"/>
        <pt x="330" y="678" on="1"/>
        <pt x="310" y="671" on="0"/>
        <pt x="286" y="692" on="1"/>
        <pt x="180" y="785" on="0"/>
      </contour>
    </TTGlyph>
    <TTGlyph name="aBaa.init_BaaMemIsol" xMin="-129" yMin="351" xMax="709" yMax="747">
      <contour>
        <pt x="708" y="577" on="1"/>
        <pt x="695" y="532" on="0"/>
        <pt x="602" y="412" on="0"/>
        <pt x="580" y="405" on="1"/>
        <pt x="523" y="388" on="0"/>
        <pt x="504" y="451" on="1"/>
        <pt x="492" y="496" on="0"/>
        <pt x="435" y="502" on="1"/>
        <pt x="310" y="513" on="0"/>
        <pt x="30" y="351" on="1"/>
        <pt x="-80" y="288" on="0"/>
        <pt x="-129" y="369" on="1"/>
        <pt x="-151" y="409" on="0"/>
        <pt x="-128" y="433" on="1"/>
        <pt x="-91" y="471" on="0"/>
        <pt x="37" y="552" on="1"/>
        <pt x="345" y="749" on="0"/>
        <pt x="520" y="747" on="1"/>
        <pt x="602" y="746" on="0"/>
        <pt x="729" y="650" on="0"/>
      </contour>
    </TTGlyph>
    <TTGlyph name="aBaa.init_BaaNonIsol" xMin="-130" yMin="274" xMax="260" yMax="707">
      <component glyphName="aBaa.init_BaaRaaIsol" x="-21" y="149" flags="0x1004"/>
    </TTGlyph>
    <TTGlyph name="aBaa.init_BaaRaaIsol" xMin="-109" yMin="125" xMax="281" yMax="558">
      <contour>
        <pt x="170" y="404" on="1"/>
        <pt x="219" y="448" on="0"/>
        <pt x="212" y="556" on="0"/>
        <pt x="276" y="559" on="0"/>
        <pt x="281" y="517" on="1"/>
        <pt x="299" y="359" on="0"/>
        <pt x="200" y="143" on="0"/>
        <pt x="-12" y="108" on="0"/>
        <pt x="-78" y="141" on="1"/>
        <pt x="-124" y="166" on="0"/>
        <pt x="-109" y="238" on="1"/>
        <pt x="-78" y="395" on="1"/>
        <pt x="-71" y="428" on="0"/>
        <pt x="-55" y="441" on="1"/>
        <pt x="-22" y="464" on="0"/>
        <pt x="34" y="389" on="0"/>
        <pt x="144" y="381" on="0"/>
      </contour>
    </TTGlyph>
    <TTGlyph name="aBaa.init_BaaSenAltInit" xMin="-45" yMin="-37" xMax="339" yMax="892">
      <component glyphName="aBaa.init_BaaSenInit" x="0" y="-138" flags="0x1004"/>
    </TTGlyph>
    <TTGlyph name="aBaa.init_BaaSenInit" xMin="-45" yMin="101" xMax="339" yMax="1030">
      <contour>
        <pt x="207" y="1030" on="1"/>
        <pt x="379" y="624" on="0"/>
        <pt x="339" y="274" on="1"/>
        <pt x="333" y="222" on="0"/>
        <pt x="279" y="102" on="0"/>
        <pt x="226" y="101" on="1"/>
        <pt x="127" y="104" on="0"/>
        <pt x="-14" y="294" on="1"/>
        <pt x="-60" y="357" on="0"/>
        <pt x="-45" y="481" on="1"/>
        <pt x="-39" y="531" on="0"/>
        <pt x="-6" y="531" on="1"/>
        <pt x="16" y="531" on="0"/>
        <pt x="29" y="501" on="1"/>
        <pt x="83" y="377" on="0"/>
        <pt x="253" y="317" on="1"/>
        <pt x="247" y="472" on="0"/>
        <pt x="91" y="776" on="1"/>
        <pt x="78" y="802" on="0"/>
        <pt x="86" y="837" on="1"/>
        <pt x="86" y="837" on="0"/>
        <pt x="125" y="1027" on="1"/>
        <pt x="152" y="1159" on="0"/>
      </contour>
    </TTGlyph>
    <TTGlyph name="aBaa.init_BaaYaaIsol" xMin="-134" yMin="103" xMax="327" yMax="1004">
      <contour>
        <pt x="107" y="968" on="1"/>
        <pt x="129" y="1032" on="0"/>
        <pt x="179" y="1003" on="1"/>
        <pt x="228" y="973" on="0"/>
        <pt x="280" y="862" on="1"/>
        <pt x="396" y="613" on="0"/>
        <pt x="327" y="405" on="1"/>
        <pt x="297" y="317" on="0"/>
        <pt x="241" y="255" on="1"/>
        <pt x="113" y="111" on="0"/>
        <pt x="-97" y="103" on="1"/>
        <pt x="-110" y="103" on="0"/>
        <pt x="-120" y="107" on="1"/>
        <pt x="-155" y="123" on="0"/>
        <pt x="-134" y="166" on="1"/>
        <pt x="-75" y="286" on="1"/>
        <pt x="-58" y="303" on="0"/>
        <pt x="-36" y="306" on="1"/>
        <pt x="128" y="328" on="0"/>
        <pt x="229" y="433" on="1"/>
        <pt x="231" y="525" on="0"/>
        <pt x="134" y="686" on="0"/>
        <pt x="73" y="733" on="1"/>
        <pt x="39" y="763" on="0"/>
        <pt x="55" y="811" on="1"/>
      </contour>
    </TTGlyph>
    <TTGlyph name="aBaa.init_High" xMin="-55" yMin="-30" xMax="206" yMax="551">
      <contour>
        <pt x="71" y="522" on="1"/>
        <pt x="78" y="541" on="0"/>
        <pt x="88" y="550" on="1"/>
        <pt x="117" y="577" on="0"/>
        <pt x="150" y="541" on="1"/>
        <pt x="187" y="495" on="0"/>
        <pt x="216" y="286" on="0"/>
        <pt x="195" y="184" on="0"/>
        <pt x="190" y="164" on="1"/>
        <pt x="139" y="-6" on="0"/>
        <pt x="5" y="-30" on="1"/>
        <pt x="-27" y="-34" on="0"/>
        <pt x="-36" y="-17" on="1"/>
        <pt x="-52" y="14" on="0"/>
        <pt x="-54" y="38" on="1"/>
        <pt x="-67" y="223" on="0"/>
        <pt x="4" y="215" on="1"/>
        <pt x="34" y="210" on="0"/>
        <pt x="72" y="215" on="1"/>
        <pt x="60" y="273" on="0"/>
        <pt x="21" y="343" on="0"/>
        <pt x="27" y="371" on="1"/>
      </contour>
    </TTGlyph>
    <TTGlyph name="aBaa.init_Tatweel" xMin="-86" yMin="-30" xMax="487" yMax="575">
      <contour>
        <pt x="290" y="417" on="1"/>
        <pt x="348" y="544" on="1"/>
        <pt x="358" y="566" on="0"/>
        <pt x="372" y="574" on="1"/>
        <pt x="409" y="598" on="0"/>
        <pt x="439" y="548" on="1"/>
        <pt x="493" y="456" on="0"/>
        <pt x="487" y="269" on="1"/>
        <pt x="483" y="173" on="0"/>
        <pt x="429" y="101" on="1"/>
        <pt x="318" y="-47" on="0"/>
        <pt x="-2" y="-30" on="1"/>
        <pt x="-55" y="-27" on="0"/>
        <pt x="-90" y="141" on="0"/>
        <pt x="-85" y="163" on="1"/>
        <pt x="-73" y="229" on="0"/>
        <pt x="-4" y="216" on="1"/>
        <pt x="141" y="188" on="0"/>
        <pt x="340" y="258" on="1"/>
        <pt x="322" y="307" on="0"/>
        <pt x="271" y="374" on="0"/>
      </contour>
    </TTGlyph>
    <TTGlyph name="aBaa.init_YaaBarree" xMin="-296" yMin="556" xMax="54" yMax="1183">
      <contour>
        <pt x="-296" y="1137" on="1"/>
        <pt x="-296" y="1169" on="0"/>
        <pt x="-228" y="1195" on="0"/>
        <pt x="-161" y="1128" on="1"/>
        <pt x="-151" y="1118" on="0"/>
        <pt x="-65" y="1022" on="1"/>
        <pt x="92" y="848" on="0"/>
        <pt x="54" y="661" on="1"/>
        <pt x="41" y="601" on="0"/>
        <pt x="37" y="590" on="1"/>
        <pt x="19" y="551" on="0"/>
        <pt x="-15" y="557" on="1"/>
        <pt x="-58" y="566" on="0"/>
        <pt x="-60" y="640" on="1"/>
        <pt x="-61" y="750" on="0"/>
        <pt x="-249" y="924" on="1"/>
        <pt x="-275" y="948" on="0"/>
        <pt x="-290" y="976" on="0"/>
        <pt x="-293" y="1000" on="1"/>
      </contour>
    </TTGlyph>
    <TTGlyph name="aBaa.isol" xMin="155" yMin="-42" xMax="1755" yMax="764">
      <contour>
        <pt x="188" y="151" on="1"/>
        <pt x="87" y="276" on="0"/>
        <pt x="155" y="470" on="1"/>
        <pt x="183" y="548" on="0"/>
        <pt x="262" y="637" on="1"/>
        <pt x="291" y="669" on="0"/>
        <pt x="312" y="648" on="1"/>
        <pt x="332" y="628" on="0"/>
        <pt x="305" y="599" on="1"/>
        <pt x="232" y="521" on="0"/>
        <pt x="243" y="453" on="1"/>
        <pt x="282" y="217" on="0"/>
        <pt x="858" y="217" on="1"/>
        <pt x="1346" y="216" on="0"/>
        <pt x="1666" y="396" on="1"/>
        <pt x="1649" y="471" on="0"/>
        <pt x="1575" y="535" on="1"/>
        <pt x="1556" y="552" on="0"/>
        <pt x="1566" y="583" on="1"/>
        <pt x="1627" y="764" on="1"/>
        <pt x="1646" y="820" on="0"/>
        <pt x="1690" y="752" on="1"/>
        <pt x="1794" y="591" on="0"/>
        <pt x="1755" y="355" on="1"/>
        <pt x="1735" y="239" on="0"/>
        <pt x="1667" y="196" on="1"/>
        <pt x="1332" y="-16" on="0"/>
        <pt x="850" y="-42" on="1"/>
        <pt x="365" y="-68" on="0"/>
      </contour>
    </TTGlyph>
    <TTGlyph name="aBaa.medi" xMin="-73" yMin="-30" xMax="566" yMax="366">
      <contour>
        <pt x="372" y="296" on="1"/>
        <pt x="433" y="219" on="0"/>
        <pt x="500" y="214" on="1"/>
        <pt x="556" y="209" on="0"/>
        <pt x="566" y="172" on="1"/>
        <pt x="572" y="146" on="0"/>
        <pt x="557" y="26" on="0"/>
        <pt x="530" y="-29" on="0"/>
        <pt x="500" y="-30" on="1"/>
        <pt x="381" y="-30" on="0"/>
        <pt x="278" y="100" on="1"/>
        <pt x="152" y="-30" on="0"/>
        <pt x="0" y="-30" on="1"/>
        <pt x="-44" y="-29" on="0"/>
        <pt x="-55" y="25" on="1"/>
        <pt x="-73" y="108" on="1"/>
        <pt x="-80" y="142" on="0"/>
        <pt x="-36" y="212" on="0"/>
        <pt x="0" y="215" on="1"/>
        <pt x="243" y="233" on="0"/>
        <pt x="299" y="335" on="1"/>
        <pt x="316" y="366" on="0"/>
        <pt x="338" y="366" on="1"/>
        <pt x="368" y="366" on="0"/>
        <pt x="371" y="299" on="0"/>
      </contour>
    </TTGlyph>
    <TTGlyph name="aBaa.medi_BaaBaaHaaInit" xMin="-88" yMin="433" xMax="1002" yMax="935">
      <contour>
        <pt x="276" y="708" on="1"/>
        <pt x="452" y="784" on="0"/>
        <pt x="613" y="934" on="1"/>
        <pt x="736" y="1048" on="0"/>
        <pt x="814" y="923" on="1"/>
        <pt x="826" y="905" on="0"/>
        <pt x="835" y="884" on="1"/>
        <pt x="872" y="796" on="0"/>
        <pt x="918" y="785" on="1"/>
        <pt x="947" y="778" on="0"/>
        <pt x="958" y="778" on="1"/>
        <pt x="1038" y="776" on="0"/>
        <pt x="1001" y="653" on="1"/>
        <pt x="996" y="635" on="0"/>
        <pt x="985" y="605" on="1"/>
        <pt x="961" y="541" on="0"/>
        <pt x="922" y="538" on="1"/>
        <pt x="769" y="530" on="0"/>
        <pt x="681" y="734" on="1"/>
        <pt x="678" y="741" on="0"/>
        <pt x="676" y="745" on="1"/>
        <pt x="650" y="777" on="0"/>
        <pt x="535" y="684" on="1"/>
        <pt x="367" y="549" on="0"/>
        <pt x="74" y="437" on="1"/>
        <pt x="-41" y="393" on="0"/>
        <pt x="-88" y="434" on="1"/>
        <pt x="-133" y="475" on="0"/>
        <pt x="-9" y="610" on="0"/>
        <pt x="23" y="624" on="0"/>
        <pt x="216" y="682" on="0"/>
      </contour>
    </TTGlyph>
    <TTGlyph name="aBaa.medi_BaaBaaInit" xMin="-85" yMin="-30" xMax="412" yMax="339">
      <contour>
        <pt x="412" y="142" on="1"/>
        <pt x="354" y="36" on="0"/>
        <pt x="291" y="79" on="1"/>
        <pt x="265" y="96" on="0"/>
        <pt x="240" y="113" on="1"/>
        <pt x="107" y="-28" on="0"/>
        <pt x="1" y="-30" on="1"/>
        <pt x="-68" y="-31" on="0"/>
        <pt x="-85" y="86" on="1"/>
        <pt x="-101" y="203" on="0"/>
        <pt x="-4" y="216" on="1"/>
        <pt x="175" y="236" on="0"/>
        <pt x="247" y="325" on="1"/>
        <pt x="283" y="369" on="0"/>
        <pt x="319" y="339" on="1"/>
        <pt x="350" y="313" on="0"/>
        <pt x="371" y="298" on="1"/>
        <pt x="457" y="225" on="0"/>
      </contour>
    </TTGlyph>
    <TTGlyph name="aBaa.medi_BaaBaaMemInit" xMin="-170" yMin="472" xMax="445" yMax="886">
      <contour>
        <pt x="400" y="714" on="1"/>
        <pt x="468" y="713" on="0"/>
        <pt x="421" y="499" on="0"/>
        <pt x="384" y="481" on="1"/>
        <pt x="370" y="475" on="0"/>
        <pt x="354" y="473" on="1"/>
        <pt x="245" y="478" on="0"/>
        <pt x="110" y="651" on="1"/>
        <pt x="102" y="661" on="0"/>
        <pt x="72" y="655" on="1"/>
        <pt x="-12" y="634" on="0"/>
        <pt x="-128" y="500" on="0"/>
        <pt x="-180" y="544" on="0"/>
        <pt x="-170" y="579" on="1"/>
        <pt x="-140" y="679" on="0"/>
        <pt x="-77" y="754" on="1"/>
        <pt x="40" y="886" on="0"/>
        <pt x="144" y="886" on="1"/>
        <pt x="211" y="885" on="0"/>
        <pt x="254" y="814" on="1"/>
        <pt x="319" y="714" on="0"/>
      </contour>
    </TTGlyph>
    <TTGlyph name="aBaa.medi_BaaBaaYaaIsol" xMin="-75" yMin="26" xMax="821" yMax="707">
      <contour>
        <pt x="729" y="248" on="1"/>
        <pt x="611" y="247" on="0"/>
        <pt x="415" y="483" on="0"/>
        <pt x="366" y="479" on="1"/>
        <pt x="222" y="468" on="0"/>
        <pt x="104" y="330" on="1"/>
        <pt x="72" y="292" on="0"/>
        <pt x="83" y="247" on="1"/>
        <pt x="110" y="134" on="0"/>
        <pt x="57" y="50" on="1"/>
        <pt x="18" y="-6" on="0"/>
        <pt x="-33" y="26" on="1"/>
        <pt x="-100" y="72" on="0"/>
        <pt x="-50" y="254" on="0"/>
        <pt x="-1" y="336" on="1"/>
        <pt x="117" y="533" on="0"/>
        <pt x="288" y="659" on="1"/>
        <pt x="351" y="706" on="0"/>
        <pt x="505" y="707" on="0"/>
        <pt x="594" y="585" on="1"/>
        <pt x="662" y="491" on="0"/>
        <pt x="747" y="495" on="1"/>
        <pt x="824" y="498" on="0"/>
        <pt x="817" y="253" on="0"/>
      </contour>
    </TTGlyph>
    <TTGlyph name="aBaa.medi_BaaHehMedi" xMin="-49" yMin="-106" xMax="695" yMax="357">
      <contour>
        <pt x="58" y="7" on="1"/>
        <pt x="39" y="-17" on="0"/>
        <pt x="16" y="-73" on="0"/>
        <pt x="12" y="-80" on="1"/>
        <pt x="-5" y="-112" on="0"/>
        <pt x="-34" y="-106" on="1"/>
        <pt x="-103" y="-96" on="0"/>
        <pt x="-49" y="-9" on="1"/>
        <pt x="52" y="188" on="0"/>
        <pt x="302" y="379" on="0"/>
        <pt x="444" y="357" on="1"/>
        <pt x="497" y="346" on="0"/>
        <pt x="595" y="221" on="0"/>
        <pt x="690" y="207" on="0"/>
        <pt x="700" y="88" on="0"/>
        <pt x="681" y="-12" on="0"/>
        <pt x="650" y="-31" on="0"/>
        <pt x="635" y="-30" on="1"/>
        <pt x="533" y="-23" on="0"/>
        <pt x="435" y="71" on="1"/>
        <pt x="385" y="119" on="0"/>
        <pt x="361" y="124" on="1"/>
        <pt x="166" y="143" on="0"/>
      </contour>
    </TTGlyph>
    <TTGlyph name="aBaa.medi_BaaMemAlfFina" xMin="-92" yMin="-30" xMax="563" yMax="393">
      <contour>
        <pt x="-91" y="173" on="1"/>
        <pt x="1" y="392" on="0"/>
        <pt x="268" y="393" on="1"/>
        <pt x="327" y="392" on="0"/>
        <pt x="424" y="221" on="0"/>
        <pt x="485" y="216" on="1"/>
        <pt x="564" y="208" on="0"/>
        <pt x="562" y="-29" on="0"/>
        <pt x="483" y="-30" on="1"/>
        <pt x="336" y="-29" on="0"/>
        <pt x="230" y="140" on="1"/>
        <pt x="207" y="174" on="0"/>
        <pt x="67" y="124" on="1"/>
        <pt x="4" y="100" on="0"/>
        <pt x="-25" y="62" on="1"/>
        <pt x="-52" y="16" on="0"/>
        <pt x="-131" y="73" on="0"/>
      </contour>
    </TTGlyph>
    <TTGlyph name="aBaa.medi_BaaMemFina" xMin="-67" yMin="-30" xMax="793" yMax="416">
      <contour>
        <pt x="441" y="416" on="1"/>
        <pt x="526" y="415" on="0"/>
        <pt x="630" y="273" on="1"/>
        <pt x="670" y="220" on="0"/>
        <pt x="697" y="215" on="1"/>
        <pt x="792" y="197" on="0"/>
        <pt x="793" y="123" on="1"/>
        <pt x="794" y="69" on="0"/>
        <pt x="739" y="-29" on="0"/>
        <pt x="692" y="-30" on="1"/>
        <pt x="573" y="-29" on="0"/>
        <pt x="483" y="116" on="1"/>
        <pt x="428" y="205" on="0"/>
        <pt x="145" y="171" on="0"/>
        <pt x="41" y="90" on="1"/>
        <pt x="-11" y="49" on="0"/>
        <pt x="-42" y="83" on="1"/>
        <pt x="-91" y="134" on="0"/>
        <pt x="-42" y="199" on="0"/>
        <pt x="37" y="251" on="1"/>
        <pt x="296" y="418" on="0"/>
      </contour>
    </TTGlyph>
    <TTGlyph name="aBaa.medi_BaaNonFina" xMin="-67" yMin="-30" xMax="519" yMax="649">
      <contour>
        <pt x="443" y="-30" on="1"/>
        <pt x="337" y="-14" on="0"/>
        <pt x="254" y="135" on="0"/>
        <pt x="220" y="343" on="1"/>
        <pt x="153" y="260" on="0"/>
        <pt x="54" y="246" on="1"/>
        <pt x="-22" y="237" on="0"/>
        <pt x="-54" y="310" on="1"/>
        <pt x="-76" y="364" on="0"/>
        <pt x="-57" y="463" on="0"/>
        <pt x="-13" y="474" on="1"/>
        <pt x="4" y="478" on="0"/>
        <pt x="23" y="474" on="1"/>
        <pt x="156" y="450" on="0"/>
        <pt x="226" y="605" on="1"/>
        <pt x="248" y="652" on="0"/>
        <pt x="331" y="644" on="0"/>
        <pt x="337" y="590" on="1"/>
        <pt x="362" y="329" on="0"/>
        <pt x="414" y="221" on="0"/>
        <pt x="452" y="215" on="1"/>
        <pt x="534" y="201" on="0"/>
        <pt x="518" y="82" on="1"/>
        <pt x="506" y="-7" on="0"/>
        <pt x="475" y="-24" on="1"/>
        <pt x="460" y="-32" on="0"/>
      </contour>
    </TTGlyph>
    <TTGlyph name="aBaa.medi_BaaRaaFina" xMin="-79" yMin="-30" xMax="610" yMax="663">
      <contour>
        <pt x="379" y="657" on="0"/>
        <pt x="392" y="570" on="0"/>
        <pt x="421" y="310" on="0"/>
        <pt x="482" y="225" on="0"/>
        <pt x="598" y="202" on="0"/>
        <pt x="610" y="150" on="1"/>
        <pt x="616" y="126" on="0"/>
        <pt x="603" y="72" on="1"/>
        <pt x="579" y="-30" on="0"/>
        <pt x="530" y="-30" on="1"/>
        <pt x="302" y="-30" on="0"/>
        <pt x="302" y="360" on="1"/>
        <pt x="222" y="200" on="0"/>
        <pt x="50" y="202" on="1"/>
        <pt x="-59" y="203" on="0"/>
        <pt x="-79" y="306" on="1"/>
        <pt x="-94" y="391" on="0"/>
        <pt x="-62" y="426" on="1"/>
        <pt x="-14" y="481" on="0"/>
        <pt x="30" y="450" on="1"/>
        <pt x="43" y="441" on="0"/>
        <pt x="50" y="439" on="1"/>
        <pt x="166" y="430" on="0"/>
        <pt x="260" y="504" on="0"/>
        <pt x="299" y="623" on="1"/>
        <pt x="313" y="668" on="0"/>
      </contour>
    </TTGlyph>
    <TTGlyph name="aBaa.medi_BaaYaaFina" xMin="-75" yMin="-149" xMax="706" yMax="419">
      <contour>
        <pt x="505" y="311" on="1"/>
        <pt x="555" y="228" on="0"/>
        <pt x="625" y="216" on="1"/>
        <pt x="727" y="198" on="0"/>
        <pt x="685" y="24" on="0"/>
        <pt x="685" y="22" on="1"/>
        <pt x="665" y="-32" on="0"/>
        <pt x="629" y="-30" on="1"/>
        <pt x="483" y="-21" on="0"/>
        <pt x="395" y="106" on="1"/>
        <pt x="344" y="180" on="0"/>
        <pt x="258" y="185" on="0"/>
        <pt x="74" y="80" on="0"/>
        <pt x="64" y="53" on="1"/>
        <pt x="25" y="-75" on="0"/>
        <pt x="-16" y="-131" on="1"/>
        <pt x="-34" y="-146" on="0"/>
        <pt x="-48" y="-149" on="1"/>
        <pt x="-71" y="-153" on="0"/>
        <pt x="-75" y="-111" on="1"/>
        <pt x="-82" y="-28" on="0"/>
        <pt x="-1" y="106" on="1"/>
        <pt x="78" y="238" on="0"/>
        <pt x="298" y="417" on="0"/>
        <pt x="440" y="420" on="0"/>
      </contour>
    </TTGlyph>
    <TTGlyph name="aBaa.medi_High" xMin="-77" yMin="-30" xMax="568" yMax="783">
      <contour>
        <pt x="151" y="625" on="1"/>
        <pt x="147" y="654" on="0"/>
        <pt x="197" y="751" on="0"/>
        <pt x="209" y="766" on="1"/>
        <pt x="223" y="779" on="0"/>
        <pt x="236" y="783" on="1"/>
        <pt x="278" y="791" on="0"/>
        <pt x="290" y="732" on="1"/>
        <pt x="300" y="689" on="0"/>
        <pt x="373" y="346" on="0"/>
        <pt x="432" y="223" on="0"/>
        <pt x="503" y="215" on="1"/>
        <pt x="543" y="210" on="0"/>
        <pt x="579" y="141" on="0"/>
        <pt x="556" y="17" on="0"/>
        <pt x="526" y="-31" on="0"/>
        <pt x="499" y="-30" on="1"/>
        <pt x="330" y="-26" on="0"/>
        <pt x="250" y="184" on="1"/>
        <pt x="156" y="-14" on="0"/>
        <pt x="3" y="-30" on="1"/>
        <pt x="-40" y="-33" on="0"/>
        <pt x="-56" y="16" on="1"/>
        <pt x="-74" y="78" on="0"/>
        <pt x="-79" y="186" on="0"/>
        <pt x="-35" y="207" on="1"/>
        <pt x="-19" y="214" on="0"/>
        <pt x="-1" y="215" on="1"/>
        <pt x="148" y="222" on="0"/>
        <pt x="209" y="319" on="1"/>
        <pt x="207" y="335" on="0"/>
        <pt x="182" y="435" on="0"/>
      </contour>
    </TTGlyph>
    <TTGlyph name="aBaa.medi_KafBaaInit" xMin="-72" yMin="-30" xMax="534" yMax="321">
      <contour>
        <pt x="219" y="163" on="1"/>
        <pt x="110" y="-15" on="0"/>
        <pt x="5" y="-30" on="1"/>
        <pt x="-42" y="-38" on="0"/>
        <pt x="-81" y="85" on="0"/>
        <pt x="-62" y="211" on="0"/>
        <pt x="-1" y="215" on="1"/>
        <pt x="158" y="221" on="0"/>
        <pt x="232" y="317" on="1"/>
        <pt x="254" y="346" on="0"/>
        <pt x="279" y="321" on="1"/>
        <pt x="341" y="261" on="0"/>
        <pt x="458" y="229" on="1"/>
        <pt x="518" y="207" on="0"/>
        <pt x="549" y="67" on="0"/>
        <pt x="501" y="26" on="0"/>
        <pt x="469" y="30" on="1"/>
        <pt x="355" y="46" on="0"/>
      </contour>
    </TTGlyph>
    <TTGlyph name="aBaa.medi_KafBaaMedi" xMin="-55" yMin="-30" xMax="432" yMax="296">
      <contour>
        <pt x="225" y="288" on="1"/>
        <pt x="304" y="236" on="0"/>
        <pt x="373" y="222" on="1"/>
        <pt x="488" y="197" on="0"/>
        <pt x="432" y="55" on="1"/>
        <pt x="407" y="-5" on="0"/>
        <pt x="361" y="7" on="1"/>
        <pt x="253" y="41" on="0"/>
        <pt x="187" y="105" on="1"/>
        <pt x="99" y="-19" on="0"/>
        <pt x="3" y="-30" on="1"/>
        <pt x="-40" y="-35" on="0"/>
        <pt x="-55" y="27" on="1"/>
        <pt x="-98" y="210" on="0"/>
        <pt x="-1" y="215" on="1"/>
        <pt x="99" y="218" on="0"/>
        <pt x="148" y="278" on="1"/>
        <pt x="161" y="293" on="0"/>
        <pt x="208" y="298" on="0"/>
      </contour>
    </TTGlyph>
    <TTGlyph name="aBaa.medi_LamBaaMemInit" xMin="-151" yMin="464" xMax="351" yMax="847">
      <contour>
        <pt x="-78" y="539" on="1"/>
        <pt x="-100" y="468" on="0"/>
        <pt x="-181" y="504" on="0"/>
        <pt x="-121" y="683" on="0"/>
        <pt x="51" y="843" on="0"/>
        <pt x="152" y="847" on="1"/>
        <pt x="211" y="847" on="0"/>
        <pt x="239" y="801" on="1"/>
        <pt x="292" y="711" on="0"/>
        <pt x="313" y="694" on="1"/>
        <pt x="348" y="683" on="0"/>
        <pt x="353" y="566" on="0"/>
        <pt x="337" y="521" on="1"/>
        <pt x="314" y="457" on="0"/>
        <pt x="266" y="464" on="1"/>
        <pt x="203" y="475" on="0"/>
        <pt x="159" y="565" on="1"/>
        <pt x="129" y="625" on="0"/>
        <pt x="101" y="627" on="1"/>
        <pt x="2" y="631" on="0"/>
        <pt x="-74" y="548" on="1"/>
        <pt x="-76" y="545" on="0"/>
      </contour>
    </TTGlyph>
    <TTGlyph name="aBaa.medi_SenBaaMemInit" xMin="-187" yMin="373" xMax="559" yMax="868">
      <contour>
        <pt x="-53" y="499" on="1"/>
        <pt x="-54" y="403" on="0"/>
        <pt x="-105" y="379" on="1"/>
        <pt x="-120" y="374" on="0"/>
        <pt x="-132" y="374" on="1"/>
        <pt x="-190" y="376" on="0"/>
        <pt x="-182" y="587" on="0"/>
        <pt x="-142" y="658" on="1"/>
        <pt x="-17" y="881" on="0"/>
        <pt x="140" y="868" on="1"/>
        <pt x="198" y="861" on="0"/>
        <pt x="225" y="811" on="1"/>
        <pt x="332" y="617" on="0"/>
        <pt x="478" y="633" on="1"/>
        <pt x="530" y="639" on="0"/>
        <pt x="551" y="591" on="1"/>
        <pt x="558" y="575" on="0"/>
        <pt x="559" y="557" on="1"/>
        <pt x="563" y="472" on="0"/>
        <pt x="511" y="415" on="1"/>
        <pt x="479" y="383" on="0"/>
        <pt x="442" y="384" on="1"/>
        <pt x="320" y="390" on="0"/>
        <pt x="230" y="460" on="1"/>
        <pt x="173" y="506" on="0"/>
        <pt x="89" y="611" on="1"/>
        <pt x="72" y="632" on="0"/>
        <pt x="-52" y="537" on="0"/>
      </contour>
    </TTGlyph>
    <TTGlyph name="aDal.fina" xMin="159" yMin="-30" xMax="1032" yMax="1056">
      <contour>
        <pt x="1017" y="200" on="0"/>
        <pt x="1047" y="82" on="0"/>
        <pt x="1032" y="34" on="1"/>
        <pt x="1012" y="-31" on="0"/>
        <pt x="964" y="-30" on="1"/>
        <pt x="806" y="-28" on="0"/>
        <pt x="754" y="243" on="1"/>
        <pt x="689" y="88" on="0"/>
        <pt x="599" y="48" on="1"/>
        <pt x="512" y="9" on="0"/>
        <pt x="327" y="10" on="1"/>
        <pt x="45" y="10" on="0"/>
        <pt x="159" y="319" on="1"/>
        <pt x="172" y="352" on="0"/>
        <pt x="216" y="352" on="0"/>
        <pt x="230" y="314" on="1"/>
        <pt x="244" y="275" on="0"/>
        <pt x="276" y="270" on="1"/>
        <pt x="467" y="238" on="0"/>
        <pt x="619" y="297" on="1"/>
        <pt x="701" y="329" on="0"/>
        <pt x="715" y="388" on="1"/>
        <pt x="715" y="409" on="0"/>
        <pt x="660" y="791" on="0"/>
        <pt x="653" y="873" on="0"/>
        <pt x="676" y="924" on="1"/>
        <pt x="723" y="1028" on="1"/>
        <pt x="736" y="1056" on="0"/>
        <pt x="780" y="1056" on="0"/>
        <pt x="783" y="1025" on="1"/>
        <pt x="844" y="523" on="0"/>
        <pt x="922" y="225" on="0"/>
        <pt x="965" y="214" on="1"/>
      </contour>
    </TTGlyph>
    <TTGlyph name="aDal.fina_BaaDalIsol" xMin="109" yMin="-21" xMax="1095" yMax="1040">
      <contour>
        <pt x="737" y="965" on="1"/>
        <pt x="814" y="663" on="0"/>
        <pt x="858" y="531" on="1"/>
        <pt x="944" y="272" on="0"/>
        <pt x="983" y="259" on="1"/>
        <pt x="1042" y="225" on="0"/>
        <pt x="1095" y="141" on="1"/>
        <pt x="1168" y="26" on="0"/>
        <pt x="1094" y="-11" on="1"/>
        <pt x="1080" y="-18" on="0"/>
        <pt x="1065" y="-21" on="1"/>
        <pt x="854" y="-52" on="0"/>
        <pt x="754" y="311" on="1"/>
        <pt x="734" y="182" on="0"/>
        <pt x="689" y="129" on="1"/>
        <pt x="620" y="47" on="0"/>
        <pt x="247" y="-59" on="0"/>
        <pt x="106" y="27" on="0"/>
        <pt x="113" y="185" on="0"/>
        <pt x="138" y="281" on="1"/>
        <pt x="149" y="323" on="0"/>
        <pt x="193" y="326" on="0"/>
        <pt x="210" y="264" on="0"/>
        <pt x="282" y="215" on="0"/>
        <pt x="666" y="315" on="0"/>
        <pt x="695" y="384" on="1"/>
        <pt x="706" y="411" on="0"/>
        <pt x="644" y="630" on="1"/>
        <pt x="582" y="848" on="0"/>
        <pt x="602" y="895" on="1"/>
        <pt x="663" y="1040" on="1"/>
        <pt x="696" y="1122" on="0"/>
      </contour>
    </TTGlyph>
    <TTGlyph name="aDal.fina_KafDal" xMin="281" yMin="-85" xMax="1076" yMax="843">
      <contour>
        <pt x="939" y="-85" on="1"/>
        <pt x="855" y="-22" on="0"/>
        <pt x="811" y="201" on="1"/>
        <pt x="783" y="121" on="0"/>
        <pt x="748" y="72" on="1"/>
        <pt x="674" y="-28" on="0"/>
        <pt x="411" y="-67" on="0"/>
        <pt x="353" y="-46" on="1"/>
        <pt x="265" y="-15" on="0"/>
        <pt x="281" y="182" on="1"/>
        <pt x="285" y="227" on="0"/>
        <pt x="328" y="241" on="0"/>
        <pt x="364" y="174" on="0"/>
        <pt x="746" y="224" on="0"/>
        <pt x="765" y="313" on="1"/>
        <pt x="769" y="350" on="0"/>
        <pt x="719" y="681" on="1"/>
        <pt x="714" y="721" on="0"/>
        <pt x="731" y="755" on="1"/>
        <pt x="776" y="843" on="1"/>
        <pt x="823" y="935" on="0"/>
        <pt x="842" y="805" on="1"/>
        <pt x="910" y="256" on="0"/>
        <pt x="1029" y="176" on="1"/>
        <pt x="1077" y="144" on="0"/>
        <pt x="1074" y="-15" on="0"/>
        <pt x="994" y="-126" on="0"/>
      </contour>
    </TTGlyph>
    <TTGlyph name="aDal.fina_LamDal" xMin="115" yMin="-226" xMax="1082" yMax="812">
      <contour>
        <pt x="1013" y="-226" on="1"/>
        <pt x="927" y="-225" on="0"/>
        <pt x="789" y="-111" on="0"/>
        <pt x="718" y="101" on="1"/>
        <pt x="664" y="-23" on="0"/>
        <pt x="624" y="-53" on="1"/>
        <pt x="502" y="-147" on="0"/>
        <pt x="228" y="-138" on="1"/>
        <pt x="133" y="-135" on="0"/>
        <pt x="115" y="-23" on="1"/>
        <pt x="102" y="65" on="0"/>
        <pt x="146" y="187" on="1"/>
        <pt x="154" y="209" on="0"/>
        <pt x="198" y="218" on="0"/>
        <pt x="211" y="191" on="1"/>
        <pt x="251" y="104" on="0"/>
        <pt x="417" y="124" on="1"/>
        <pt x="649" y="157" on="0"/>
        <pt x="665" y="271" on="1"/>
        <pt x="582" y="667" on="1"/>
        <pt x="572" y="719" on="0"/>
        <pt x="589" y="750" on="1"/>
        <pt x="623" y="812" on="1"/>
        <pt x="681" y="915" on="0"/>
        <pt x="704" y="788" on="1"/>
        <pt x="782" y="373" on="0"/>
        <pt x="859" y="197" on="1"/>
        <pt x="912" y="76" on="0"/>
        <pt x="1014" y="64" on="1"/>
        <pt x="1070" y="56" on="0"/>
        <pt x="1094" y="-84" on="0"/>
        <pt x="1059" y="-225" on="0"/>
      </contour>
    </TTGlyph>
    <TTGlyph name="aDal.isol" xMin="176" yMin="-42" xMax="777" yMax="819">
      <contour>
        <pt x="368" y="584" on="1"/>
        <pt x="326" y="602" on="0"/>
        <pt x="378" y="744" on="0"/>
        <pt x="430" y="841" on="0"/>
        <pt x="469" y="819" on="1"/>
        <pt x="723" y="669" on="0"/>
        <pt x="777" y="395" on="1"/>
        <pt x="806" y="249" on="0"/>
        <pt x="767" y="137" on="1"/>
        <pt x="744" y="70" on="0"/>
        <pt x="706" y="54" on="1"/>
        <pt x="492" y="-32" on="0"/>
        <pt x="337" y="-42" on="1"/>
        <pt x="112" y="-57" on="0"/>
        <pt x="176" y="203" on="1"/>
        <pt x="188" y="253" on="0"/>
        <pt x="215" y="253" on="1"/>
        <pt x="235" y="254" on="0"/>
        <pt x="265" y="203" on="0"/>
        <pt x="606" y="247" on="0"/>
        <pt x="702" y="293" on="1"/>
        <pt x="672" y="449" on="0"/>
      </contour>
    </TTGlyph>
    <TTGlyph name="aFaa.fina" xMin="130" yMin="-220" xMax="2140" yMax="731">
      <contour>
        <pt x="1593" y="615" on="1"/>
        <pt x="1737" y="832" on="0"/>
        <pt x="1958" y="629" on="0"/>
        <pt x="1910" y="367" on="1"/>
        <pt x="1898" y="301" on="0"/>
        <pt x="1861" y="222" on="1"/>
        <pt x="1930" y="208" on="0"/>
        <pt x="2060" y="215" on="1"/>
        <pt x="2118" y="218" on="0"/>
        <pt x="2134" y="161" on="1"/>
        <pt x="2140" y="139" on="0"/>
        <pt x="2140" y="122" on="1"/>
        <pt x="2137" y="-24" on="0"/>
        <pt x="2060" y="-30" on="1"/>
        <pt x="1875" y="-44" on="0"/>
        <pt x="1706" y="32" on="1"/>
        <pt x="1268" y="-220" on="0"/>
        <pt x="752" y="-220" on="1"/>
        <pt x="106" y="-219" on="0"/>
        <pt x="130" y="140" on="1"/>
        <pt x="139" y="280" on="0"/>
        <pt x="233" y="439" on="1"/>
        <pt x="272" y="505" on="0"/>
        <pt x="305" y="478" on="1"/>
        <pt x="324" y="463" on="0"/>
        <pt x="301" y="419" on="1"/>
        <pt x="234" y="292" on="0"/>
        <pt x="258" y="248" on="1"/>
        <pt x="366" y="48" on="0"/>
        <pt x="1193" y="63" on="0"/>
        <pt x="1508" y="172" on="1"/>
        <pt x="1458" y="230" on="0"/>
        <pt x="1499" y="477" on="0"/>
      </contour>
      <contour>
        <pt x="1718" y="479" on="1"/>
        <pt x="1633" y="486" on="0"/>
        <pt x="1582" y="354" on="1"/>
        <pt x="1614" y="273" on="0"/>
        <pt x="1761" y="272" on="0"/>
        <pt x="1807" y="329" on="1"/>
        <pt x="1800" y="472" on="0"/>
      </contour>
    </TTGlyph>
    <TTGlyph name="aFaa.init" xMin="-66" yMin="-30" xMax="475" yMax="908">
      <contour>
        <pt x="158" y="656" on="1"/>
        <pt x="111" y="656" on="0"/>
        <pt x="105" y="565" on="1"/>
        <pt x="135" y="555" on="0"/>
        <pt x="232" y="565" on="0"/>
        <pt x="243" y="584" on="1"/>
        <pt x="197" y="656" on="0"/>
      </contour>
      <contour>
        <pt x="209" y="908" on="1"/>
        <pt x="271" y="908" on="0"/>
        <pt x="312" y="867" on="1"/>
        <pt x="475" y="702" on="0"/>
        <pt x="475" y="418" on="1"/>
        <pt x="475" y="254" on="0"/>
        <pt x="416" y="176" on="1"/>
        <pt x="251" y="-35" on="0"/>
        <pt x="1" y="-30" on="1"/>
        <pt x="-49" y="-29" on="0"/>
        <pt x="-65" y="32" on="1"/>
        <pt x="-80" y="94" on="0"/>
        <pt x="-66" y="152" on="1"/>
        <pt x="-51" y="212" on="0"/>
        <pt x="-2" y="215" on="1"/>
        <pt x="256" y="233" on="0"/>
        <pt x="374" y="343" on="1"/>
        <pt x="367" y="412" on="0"/>
        <pt x="358" y="422" on="1"/>
        <pt x="345" y="437" on="0"/>
        <pt x="331" y="412" on="1"/>
        <pt x="292" y="343" on="0"/>
        <pt x="230" y="329" on="1"/>
        <pt x="29" y="281" on="0"/>
        <pt x="16" y="435" on="1"/>
        <pt x="1" y="613" on="0"/>
        <pt x="135" y="908" on="0"/>
      </contour>
    </TTGlyph>
    <TTGlyph name="aFaa.init_FaaHaaInit" xMin="-116" yMin="364" xMax="430" yMax="1265">
      <contour>
        <pt x="62" y="997" on="1"/>
        <pt x="74" y="925" on="0"/>
        <pt x="124" y="923" on="1"/>
        <pt x="175" y="922" on="0"/>
        <pt x="192" y="973" on="1"/>
        <pt x="151" y="1016" on="0"/>
        <pt x="83" y="1025" on="0"/>
      </contour>
      <contour>
        <pt x="337" y="727" on="1"/>
        <pt x="335" y="770" on="0"/>
        <pt x="297" y="811" on="1"/>
        <pt x="181" y="647" on="0"/>
        <pt x="57" y="682" on="1"/>
        <pt x="-89" y="723" on="0"/>
        <pt x="-1" y="1025" on="1"/>
        <pt x="59" y="1232" on="0"/>
        <pt x="164" y="1265" on="1"/>
        <pt x="231" y="1286" on="0"/>
        <pt x="312" y="1189" on="1"/>
        <pt x="421" y="1058" on="0"/>
        <pt x="430" y="768" on="1"/>
        <pt x="433" y="670" on="0"/>
        <pt x="385" y="583" on="1"/>
        <pt x="261" y="356" on="0"/>
        <pt x="-11" y="364" on="1"/>
        <pt x="-97" y="367" on="0"/>
        <pt x="-134" y="452" on="0"/>
        <pt x="-56" y="549" on="0"/>
        <pt x="-13" y="571" on="0"/>
        <pt x="21" y="577" on="1"/>
        <pt x="311" y="630" on="0"/>
      </contour>
    </TTGlyph>
    <TTGlyph name="aFaa.init_FaaMemInit" xMin="-189" yMin="375" xMax="240" yMax="1193">
      <contour>
        <pt x="30" y="890" on="1"/>
        <pt x="-5" y="944" on="0"/>
        <pt x="-82" y="944" on="0"/>
        <pt x="-110" y="905" on="1"/>
        <pt x="-122" y="889" on="0"/>
        <pt x="-106" y="875" on="1"/>
        <pt x="-48" y="822" on="0"/>
        <pt x="26" y="867" on="1"/>
        <pt x="40" y="876" on="0"/>
      </contour>
      <contour>
        <pt x="10" y="1193" on="1"/>
        <pt x="115" y="1198" on="0"/>
        <pt x="191" y="1042" on="1"/>
        <pt x="289" y="841" on="0"/>
        <pt x="240" y="568" on="1"/>
        <pt x="219" y="452" on="0"/>
        <pt x="149" y="397" on="1"/>
        <pt x="99" y="357" on="0"/>
        <pt x="-177" y="393" on="0"/>
        <pt x="-174" y="446" on="1"/>
        <pt x="-171" y="508" on="0"/>
        <pt x="-7" y="522" on="1"/>
        <pt x="105" y="531" on="0"/>
        <pt x="163" y="593" on="1"/>
        <pt x="156" y="660" on="0"/>
        <pt x="120" y="713" on="1"/>
        <pt x="48" y="570" on="0"/>
        <pt x="-94" y="611" on="1"/>
        <pt x="-260" y="659" on="0"/>
        <pt x="-189" y="944" on="1"/>
        <pt x="-129" y="1187" on="0"/>
      </contour>
    </TTGlyph>
    <TTGlyph name="aFaa.init_FaaYaaIsol" xMin="-85" yMin="112" xMax="326" yMax="1014">
      <contour>
        <pt x="65" y="782" on="0"/>
        <pt x="10" y="780" on="0"/>
        <pt x="-17" y="746" on="1"/>
        <pt x="-30" y="729" on="0"/>
        <pt x="-5" y="711" on="1"/>
        <pt x="57" y="666" on="0"/>
        <pt x="119" y="722" on="1"/>
        <pt x="127" y="731" on="0"/>
        <pt x="118" y="739" on="1"/>
      </contour>
      <contour>
        <pt x="258" y="931" on="1"/>
        <pt x="410" y="703" on="0"/>
        <pt x="326" y="393" on="1"/>
        <pt x="251" y="112" on="0"/>
        <pt x="-85" y="112" on="1"/>
        <pt x="-178" y="118" on="0"/>
        <pt x="-75" y="292" on="1"/>
        <pt x="-61" y="316" on="0"/>
        <pt x="-32" y="320" on="1"/>
        <pt x="225" y="357" on="0"/>
        <pt x="278" y="444" on="1"/>
        <pt x="298" y="477" on="0"/>
        <pt x="226" y="571" on="1"/>
        <pt x="190" y="499" on="0"/>
        <pt x="142" y="471" on="1"/>
        <pt x="12" y="397" on="0"/>
        <pt x="-68" y="523" on="1"/>
        <pt x="-130" y="622" on="0"/>
        <pt x="-67" y="777" on="1"/>
        <pt x="27" y="1010" on="0"/>
        <pt x="131" y="1014" on="1"/>
        <pt x="202" y="1016" on="0"/>
      </contour>
    </TTGlyph>
    <TTGlyph name="aFaa.init_YaaBarree" xMin="-429" yMin="557" xMax="33" yMax="1277">
      <contour>
        <pt x="-207" y="999" on="1"/>
        <pt x="-251" y="1068" on="0"/>
        <pt x="-331" y="1065" on="0"/>
        <pt x="-340" y="992" on="1"/>
        <pt x="-340" y="982" on="0"/>
        <pt x="-337" y="981" on="1"/>
        <pt x="-299" y="970" on="0"/>
        <pt x="-219" y="981" on="0"/>
      </contour>
      <contour>
        <pt x="-243" y="1277" on="1"/>
        <pt x="-203" y="1275" on="0"/>
        <pt x="-162" y="1237" on="1"/>
        <pt x="101" y="993" on="0"/>
        <pt x="33" y="639" on="1"/>
        <pt x="15" y="549" on="0"/>
        <pt x="-17" y="557" on="1"/>
        <pt x="-51" y="567" on="0"/>
        <pt x="-24" y="715" on="0"/>
        <pt x="-118" y="869" on="1"/>
        <pt x="-160" y="770" on="0"/>
        <pt x="-228" y="756" on="1"/>
        <pt x="-390" y="723" on="0"/>
        <pt x="-468" y="979" on="0"/>
        <pt x="-373" y="1150" on="1"/>
        <pt x="-300" y="1280" on="0"/>
      </contour>
    </TTGlyph>
</ttFont>
